<svg xmlns="http://www.w3.org/2000/svg" viewBox="0 0 1240 600" font-family="Pretendard, -apple-system, BlinkMacSystemFont, sans-serif">
  <defs>
    <pattern id="grid" width="40" height="40" patternUnits="userSpaceOnUse">
      <path d="M 40 0 L 0 0 0 40" fill="none" stroke="#1e293b" stroke-width="0.5"/>
    </pattern>
    <marker id="arr" markerWidth="10" markerHeight="7" refX="9" refY="3.5" orient="auto"><polygon points="0,0 10,3.5 0,7" fill="#64748b"/></marker>
    <marker id="arr-input" markerWidth="10" markerHeight="7" refX="9" refY="3.5" orient="auto"><polygon points="0,0 10,3.5 0,7" fill="#60a5fa"/></marker>
    <marker id="arr-llm" markerWidth="10" markerHeight="7" refX="9" refY="3.5" orient="auto"><polygon points="0,0 10,3.5 0,7" fill="#fb923c"/></marker>
    <marker id="arr-model" markerWidth="10" markerHeight="7" refX="9" refY="3.5" orient="auto"><polygon points="0,0 10,3.5 0,7" fill="#a78bfa"/></marker>
    <marker id="arr-token" markerWidth="10" markerHeight="7" refX="9" refY="3.5" orient="auto"><polygon points="0,0 10,3.5 0,7" fill="#34d399"/></marker>
    <marker id="arr-output" markerWidth="10" markerHeight="7" refX="9" refY="3.5" orient="auto"><polygon points="0,0 10,3.5 0,7" fill="#34d399"/></marker>
    <marker id="arr-gate" markerWidth="10" markerHeight="7" refX="9" refY="3.5" orient="auto"><polygon points="0,0 10,3.5 0,7" fill="#fbbf24"/></marker>
    <marker id="arr-tool" markerWidth="10" markerHeight="7" refX="9" refY="3.5" orient="auto"><polygon points="0,0 10,3.5 0,7" fill="#22d3ee"/></marker>
    <marker id="arr-memory" markerWidth="10" markerHeight="7" refX="9" refY="3.5" orient="auto"><polygon points="0,0 10,3.5 0,7" fill="#f472b6"/></marker>
    <marker id="arr-error" markerWidth="10" markerHeight="7" refX="9" refY="3.5" orient="auto"><polygon points="0,0 10,3.5 0,7" fill="#f87171"/></marker>
  </defs>
  <rect width="1240" height="600" fill="#020617"/>
  <rect width="1240" height="600" fill="url(#grid)"/>
  <text x="620" y="36" text-anchor="middle" font-size="18" font-weight="700" fill="#f1f5f9">캡스톤 통합 아키텍처 — Part 1~7 한 장</text>
  <text x="620" y="58" text-anchor="middle" font-size="12" fill="#94a3b8">본 챕터들의 모든 조각이 하나의 시스템에 들어간다. 각 모듈이 어느 챕터에서 왔는지 추적 가능.</text>
  <rect x="60" y="90" width="1120" height="110" rx="12" fill="rgba(96,165,250,0.05)" stroke="#60a5fa" stroke-width="1" stroke-dasharray="8,4"/>
  <text x="72" y="108" font-size="10" font-weight="700" fill="#60a5fa" font-family="JetBrains Mono, monospace">SERVING</text>
  <rect x="90" y="116" width="240" height="70" rx="8" fill="rgba(96,165,250,0.15)" stroke="#60a5fa" stroke-width="1.3"/>
  <text x="104" y="138" font-size="13" font-weight="700" fill="#bfdbfe">API Gateway</text>
  <text x="104" y="156" font-size="11" font-family="JetBrains Mono, monospace" fill="#60a5fa">FastAPI · async</text>
  <text x="316" y="176" text-anchor="end" font-size="10" font-family="JetBrains Mono, monospace" fill="#cbd5e1">Ch 26</text>
  <rect x="363" y="116" width="240" height="70" rx="8" fill="rgba(251,191,36,0.15)" stroke="#fbbf24" stroke-width="1.3"/>
  <text x="377" y="138" font-size="13" font-weight="700" fill="#fde68a">Guardrails 7</text>
  <text x="377" y="156" font-size="11" font-family="JetBrains Mono, monospace" fill="#fbbf24">in/tool/out</text>
  <text x="589" y="176" text-anchor="end" font-size="10" font-family="JetBrains Mono, monospace" fill="#cbd5e1">Ch 28</text>
  <rect x="636" y="116" width="240" height="70" rx="8" fill="rgba(244,114,182,0.15)" stroke="#f472b6" stroke-width="1.3"/>
  <text x="650" y="138" font-size="13" font-weight="700" fill="#fbcfe8">Session Store</text>
  <text x="650" y="156" font-size="11" font-family="JetBrains Mono, monospace" fill="#f472b6">Redis · TTL</text>
  <text x="862" y="176" text-anchor="end" font-size="10" font-family="JetBrains Mono, monospace" fill="#cbd5e1">Ch 26</text>
  <rect x="909" y="116" width="240" height="70" rx="8" fill="rgba(248,113,113,0.15)" stroke="#f87171" stroke-width="1.3"/>
  <text x="923" y="138" font-size="13" font-weight="700" fill="#fecaca">Approval Queue</text>
  <text x="923" y="156" font-size="11" font-family="JetBrains Mono, monospace" fill="#f87171">high-risk</text>
  <text x="1135" y="176" text-anchor="end" font-size="10" font-family="JetBrains Mono, monospace" fill="#cbd5e1">Ch 29</text>
  <rect x="60" y="216" width="1120" height="110" rx="12" fill="rgba(251,146,60,0.05)" stroke="#fb923c" stroke-width="1" stroke-dasharray="8,4"/>
  <text x="72" y="234" font-size="10" font-weight="700" fill="#fb923c" font-family="JetBrains Mono, monospace">AGENT</text>
  <rect x="90" y="242" width="240" height="70" rx="8" fill="rgba(251,146,60,0.15)" stroke="#fb923c" stroke-width="1.3"/>
  <text x="104" y="264" font-size="13" font-weight="700" fill="#fed7aa">LangGraph</text>
  <text x="104" y="282" font-size="11" font-family="JetBrains Mono, monospace" fill="#fb923c">state · interrupt</text>
  <text x="316" y="302" text-anchor="end" font-size="10" font-family="JetBrains Mono, monospace" fill="#cbd5e1">Ch 23</text>
  <rect x="363" y="242" width="240" height="70" rx="8" fill="rgba(34,211,238,0.15)" stroke="#22d3ee" stroke-width="1.3"/>
  <text x="377" y="264" font-size="13" font-weight="700" fill="#a5f3fc">Tools (ACI)</text>
  <text x="377" y="282" font-size="11" font-family="JetBrains Mono, monospace" fill="#22d3ee">data/action/orch</text>
  <text x="589" y="302" text-anchor="end" font-size="10" font-family="JetBrains Mono, monospace" fill="#cbd5e1">Ch 22</text>
  <rect x="636" y="242" width="240" height="70" rx="8" fill="rgba(244,114,182,0.15)" stroke="#f472b6" stroke-width="1.3"/>
  <text x="650" y="264" font-size="13" font-weight="700" fill="#fbcfe8">Memory</text>
  <text x="650" y="282" font-size="11" font-family="JetBrains Mono, monospace" fill="#f472b6">thread + store</text>
  <text x="862" y="302" text-anchor="end" font-size="10" font-family="JetBrains Mono, monospace" fill="#cbd5e1">Ch 24</text>
  <rect x="909" y="242" width="240" height="70" rx="8" fill="rgba(167,139,250,0.15)" stroke="#a78bfa" stroke-width="1.3"/>
  <text x="923" y="264" font-size="13" font-weight="700" fill="#ddd6fe">Model Router</text>
  <text x="923" y="282" font-size="11" font-family="JetBrains Mono, monospace" fill="#a78bfa">Haiku/Sonnet/Opus</text>
  <text x="1135" y="302" text-anchor="end" font-size="10" font-family="JetBrains Mono, monospace" fill="#cbd5e1">Ch 30</text>
  <rect x="60" y="342" width="1120" height="110" rx="12" fill="rgba(34,211,238,0.05)" stroke="#22d3ee" stroke-width="1" stroke-dasharray="8,4"/>
  <text x="72" y="360" font-size="10" font-weight="700" fill="#22d3ee" font-family="JetBrains Mono, monospace">KNOWLEDGE</text>
  <rect x="90" y="368" width="240" height="70" rx="8" fill="rgba(34,211,238,0.15)" stroke="#22d3ee" stroke-width="1.3"/>
  <text x="104" y="390" font-size="13" font-weight="700" fill="#a5f3fc">Hybrid Retrieval</text>
  <text x="104" y="408" font-size="11" font-family="JetBrains Mono, monospace" fill="#22d3ee">BM25 + dense</text>
  <text x="316" y="428" text-anchor="end" font-size="10" font-family="JetBrains Mono, monospace" fill="#cbd5e1">Ch 12</text>
  <rect x="363" y="368" width="240" height="70" rx="8" fill="rgba(34,211,238,0.15)" stroke="#22d3ee" stroke-width="1.3"/>
  <text x="377" y="390" font-size="13" font-weight="700" fill="#a5f3fc">Reranker</text>
  <text x="377" y="408" font-size="11" font-family="JetBrains Mono, monospace" fill="#22d3ee">cross-encoder</text>
  <text x="589" y="428" text-anchor="end" font-size="10" font-family="JetBrains Mono, monospace" fill="#cbd5e1">Ch 12</text>
  <rect x="636" y="368" width="240" height="70" rx="8" fill="rgba(244,114,182,0.15)" stroke="#f472b6" stroke-width="1.3"/>
  <text x="650" y="390" font-size="13" font-weight="700" fill="#fbcfe8">Vector Store</text>
  <text x="650" y="408" font-size="11" font-family="JetBrains Mono, monospace" fill="#f472b6">Chroma · meta</text>
  <text x="862" y="428" text-anchor="end" font-size="10" font-family="JetBrains Mono, monospace" fill="#cbd5e1">Ch 10·11</text>
  <rect x="909" y="368" width="240" height="70" rx="8" fill="rgba(52,211,153,0.15)" stroke="#34d399" stroke-width="1.3"/>
  <text x="923" y="390" font-size="13" font-weight="700" fill="#a7f3d0">Citation</text>
  <text x="923" y="408" font-size="11" font-family="JetBrains Mono, monospace" fill="#34d399">XML 경계</text>
  <text x="1135" y="428" text-anchor="end" font-size="10" font-family="JetBrains Mono, monospace" fill="#cbd5e1">Ch 11</text>
  <rect x="60" y="468" width="1120" height="110" rx="12" fill="rgba(52,211,153,0.05)" stroke="#34d399" stroke-width="1" stroke-dasharray="8,4"/>
  <text x="72" y="486" font-size="10" font-weight="700" fill="#34d399" font-family="JetBrains Mono, monospace">EVAL · LEARN</text>
  <rect x="90" y="494" width="240" height="70" rx="8" fill="rgba(52,211,153,0.15)" stroke="#34d399" stroke-width="1.3"/>
  <text x="104" y="516" font-size="13" font-weight="700" fill="#a7f3d0">Trace + Logs</text>
  <text x="104" y="534" font-size="11" font-family="JetBrains Mono, monospace" fill="#34d399">trace_id · cost</text>
  <text x="316" y="554" text-anchor="end" font-size="10" font-family="JetBrains Mono, monospace" fill="#cbd5e1">Ch 27</text>
  <rect x="363" y="494" width="240" height="70" rx="8" fill="rgba(251,191,36,0.15)" stroke="#fbbf24" stroke-width="1.3"/>
  <text x="377" y="516" font-size="13" font-weight="700" fill="#fde68a">Failure Classifier</text>
  <text x="377" y="534" font-size="11" font-family="JetBrains Mono, monospace" fill="#fbbf24">5 layer · Judge</text>
  <text x="589" y="554" text-anchor="end" font-size="10" font-family="JetBrains Mono, monospace" fill="#cbd5e1">Ch 17·19</text>
  <rect x="636" y="494" width="240" height="70" rx="8" fill="rgba(52,211,153,0.2)" stroke="#34d399" stroke-width="1.3"/>
  <text x="650" y="516" font-size="13" font-weight="700" fill="#a7f3d0">Eval Set</text>
  <text x="650" y="534" font-size="11" font-family="JetBrains Mono, monospace" fill="#34d399">gold + regression</text>
  <text x="862" y="554" text-anchor="end" font-size="10" font-family="JetBrains Mono, monospace" fill="#cbd5e1">Ch 16</text>
  <rect x="909" y="494" width="240" height="70" rx="8" fill="rgba(52,211,153,0.2)" stroke="#34d399" stroke-width="1.3"/>
  <text x="923" y="516" font-size="13" font-weight="700" fill="#a7f3d0">LoRA / DPO</text>
  <text x="923" y="534" font-size="11" font-family="JetBrains Mono, monospace" fill="#34d399">adapter · 주간</text>
  <text x="1135" y="554" text-anchor="end" font-size="10" font-family="JetBrains Mono, monospace" fill="#cbd5e1">Ch 33·34</text>
  <path d="M 1180 523.0 L 1208 523.0 L 1208 145.0 L 1180 145.0" stroke="#34d399" stroke-width="1.5" fill="none" marker-end="url(#arr-token)" stroke-dasharray="5,3"/>
  <rect x="1218.0" y="325.0" width="156" height="18" rx="4" fill="#0f172a" stroke="#334155" stroke-width="0.8"/>
  <text x="1296" y="338.0" text-anchor="middle" font-size="11" font-family="JetBrains Mono, monospace" fill="#94a3b8">주간 학습 → 새 adapter 배포</text>
  <rect x="40" y="565" width="1160" height="22" rx="4" fill="#0f172a" stroke="#334155" stroke-width="0.8"/>
  <text x="620.0" y="581" text-anchor="middle" font-size="11" fill="#cbd5e1">한 모듈 = 한 챕터로 추적 가능. 전체 챕터를 다 쓰지 않아도 캡스톤은 가능 — 단 루프는 닫혀야 한다.</text>
</svg>