<svg xmlns="http://www.w3.org/2000/svg" viewBox="0 0 1040 280" font-family="Pretendard, -apple-system, BlinkMacSystemFont, sans-serif">
  <defs>
    <pattern id="grid" width="40" height="40" patternUnits="userSpaceOnUse">
      <path d="M 40 0 L 0 0 0 40" fill="none" stroke="#f1f5f9" stroke-width="0.5"/>
    </pattern>
    <marker id="arr" markerWidth="10" markerHeight="7" refX="9" refY="3.5" orient="auto"><polygon points="0,0 10,3.5 0,7" fill="#6b7280"/></marker>
    <marker id="arr-input" markerWidth="10" markerHeight="7" refX="9" refY="3.5" orient="auto"><polygon points="0,0 10,3.5 0,7" fill="#2563eb"/></marker>
    <marker id="arr-llm" markerWidth="10" markerHeight="7" refX="9" refY="3.5" orient="auto"><polygon points="0,0 10,3.5 0,7" fill="#ea580c"/></marker>
    <marker id="arr-model" markerWidth="10" markerHeight="7" refX="9" refY="3.5" orient="auto"><polygon points="0,0 10,3.5 0,7" fill="#7c3aed"/></marker>
    <marker id="arr-token" markerWidth="10" markerHeight="7" refX="9" refY="3.5" orient="auto"><polygon points="0,0 10,3.5 0,7" fill="#059669"/></marker>
    <marker id="arr-output" markerWidth="10" markerHeight="7" refX="9" refY="3.5" orient="auto"><polygon points="0,0 10,3.5 0,7" fill="#059669"/></marker>
    <marker id="arr-gate" markerWidth="10" markerHeight="7" refX="9" refY="3.5" orient="auto"><polygon points="0,0 10,3.5 0,7" fill="#ca8a04"/></marker>
    <marker id="arr-tool" markerWidth="10" markerHeight="7" refX="9" refY="3.5" orient="auto"><polygon points="0,0 10,3.5 0,7" fill="#0891b2"/></marker>
    <marker id="arr-memory" markerWidth="10" markerHeight="7" refX="9" refY="3.5" orient="auto"><polygon points="0,0 10,3.5 0,7" fill="#db2777"/></marker>
    <marker id="arr-error" markerWidth="10" markerHeight="7" refX="9" refY="3.5" orient="auto"><polygon points="0,0 10,3.5 0,7" fill="#dc2626"/></marker>
  </defs>
  <rect width="1040" height="280" fill="#ffffff"/>
  <rect width="1040" height="280" fill="url(#grid)"/>
  <text x="520" y="36" text-anchor="middle" font-size="18" font-weight="700" fill="#0f172a">임베딩 파이프라인</text>
  <text x="520" y="58" text-anchor="middle" font-size="12" fill="#64748b">텍스트를 숫자 벡터로 → 의미적으로 가까운 것을 검색</text>
  <path d="M 208,157 L 226,157" stroke="#6b7280" stroke-width="1.8" fill="none" marker-end="url(#arr)"/>
  <path d="M 410,157 L 428,157" stroke="#6b7280" stroke-width="1.8" fill="none" marker-end="url(#arr)"/>
  <path d="M 612,157 L 630,157" stroke="#6b7280" stroke-width="1.8" fill="none" marker-end="url(#arr)"/>
  <path d="M 814,157 L 832,157" stroke="#6b7280" stroke-width="1.8" fill="none" marker-end="url(#arr)"/>
  <rect x="26" y="100" width="180" height="115" rx="10" fill="#ffffff"/>
  <rect x="26" y="100" width="180" height="115" rx="10" fill="#e3f2fd" stroke="#2563eb" stroke-width="1.5"/>
  <text x="116.0" y="153.5" text-anchor="middle" font-size="14" font-weight="700" fill="#0d47a1">원문 텍스트</text>
  <text x="116.0" y="169.5" text-anchor="middle" font-size="11" font-family="JetBrains Mono, monospace" fill="#1e40af">docs · query</text>
  <text x="116.0" y="185.5" text-anchor="middle" font-size="10" fill="#1e40af">"환불 정책…"</text>
  <rect x="228" y="100" width="180" height="115" rx="10" fill="#ffffff"/>
  <rect x="228" y="100" width="180" height="115" rx="10" fill="#f3e8ff" stroke="#7c3aed" stroke-width="1.5"/>
  <text x="318.0" y="153.5" text-anchor="middle" font-size="14" font-weight="700" fill="#4c1d95">임베딩 모델</text>
  <text x="318.0" y="169.5" text-anchor="middle" font-size="11" font-family="JetBrains Mono, monospace" fill="#6d28d9">encoder</text>
  <text x="318.0" y="185.5" text-anchor="middle" font-size="10" fill="#6d28d9">OpenAI/Voyage/BGE</text>
  <rect x="430" y="100" width="180" height="115" rx="10" fill="#ffffff"/>
  <rect x="430" y="100" width="180" height="115" rx="10" fill="#dcfce7" stroke="#059669" stroke-width="1.5"/>
  <text x="520.0" y="153.5" text-anchor="middle" font-size="14" font-weight="700" fill="#064e3b">벡터</text>
  <text x="520.0" y="169.5" text-anchor="middle" font-size="11" font-family="JetBrains Mono, monospace" fill="#047857">1536-d float</text>
  <text x="520.0" y="185.5" text-anchor="middle" font-size="10" fill="#047857">[0.12, -0.03, ...]</text>
  <rect x="632" y="100" width="180" height="115" rx="10" fill="#ffffff"/>
  <rect x="632" y="100" width="180" height="115" rx="10" fill="#fce7f3" stroke="#db2777" stroke-width="1.5"/>
  <text x="722.0" y="153.5" text-anchor="middle" font-size="14" font-weight="700" fill="#500724">벡터 DB</text>
  <text x="722.0" y="169.5" text-anchor="middle" font-size="11" font-family="JetBrains Mono, monospace" fill="#be185d">store + ANN</text>
  <text x="722.0" y="185.5" text-anchor="middle" font-size="10" fill="#be185d">Chroma/Qdrant/Pinecone</text>
  <rect x="834" y="100" width="180" height="115" rx="10" fill="#ffffff"/>
  <rect x="834" y="100" width="180" height="115" rx="10" fill="#cffafe" stroke="#0891b2" stroke-width="1.5"/>
  <text x="924.0" y="153.5" text-anchor="middle" font-size="14" font-weight="700" fill="#083344">검색 (top-k)</text>
  <text x="924.0" y="169.5" text-anchor="middle" font-size="11" font-family="JetBrains Mono, monospace" fill="#0e7490">cosine sim</text>
  <text x="924.0" y="185.5" text-anchor="middle" font-size="10" fill="#0e7490">가장 가까운 N개</text>
</svg>