<svg xmlns="http://www.w3.org/2000/svg" viewBox="0 0 1040 280" font-family="Pretendard, -apple-system, BlinkMacSystemFont, sans-serif">
  <defs>
    <pattern id="grid" width="40" height="40" patternUnits="userSpaceOnUse">
      <path d="M 40 0 L 0 0 0 40" fill="none" stroke="#1e293b" stroke-width="0.5"/>
    </pattern>
    <marker id="arr" markerWidth="10" markerHeight="7" refX="9" refY="3.5" orient="auto"><polygon points="0,0 10,3.5 0,7" fill="#64748b"/></marker>
    <marker id="arr-input" markerWidth="10" markerHeight="7" refX="9" refY="3.5" orient="auto"><polygon points="0,0 10,3.5 0,7" fill="#60a5fa"/></marker>
    <marker id="arr-llm" markerWidth="10" markerHeight="7" refX="9" refY="3.5" orient="auto"><polygon points="0,0 10,3.5 0,7" fill="#fb923c"/></marker>
    <marker id="arr-model" markerWidth="10" markerHeight="7" refX="9" refY="3.5" orient="auto"><polygon points="0,0 10,3.5 0,7" fill="#a78bfa"/></marker>
    <marker id="arr-token" markerWidth="10" markerHeight="7" refX="9" refY="3.5" orient="auto"><polygon points="0,0 10,3.5 0,7" fill="#34d399"/></marker>
    <marker id="arr-output" markerWidth="10" markerHeight="7" refX="9" refY="3.5" orient="auto"><polygon points="0,0 10,3.5 0,7" fill="#34d399"/></marker>
    <marker id="arr-gate" markerWidth="10" markerHeight="7" refX="9" refY="3.5" orient="auto"><polygon points="0,0 10,3.5 0,7" fill="#fbbf24"/></marker>
    <marker id="arr-tool" markerWidth="10" markerHeight="7" refX="9" refY="3.5" orient="auto"><polygon points="0,0 10,3.5 0,7" fill="#22d3ee"/></marker>
    <marker id="arr-memory" markerWidth="10" markerHeight="7" refX="9" refY="3.5" orient="auto"><polygon points="0,0 10,3.5 0,7" fill="#f472b6"/></marker>
    <marker id="arr-error" markerWidth="10" markerHeight="7" refX="9" refY="3.5" orient="auto"><polygon points="0,0 10,3.5 0,7" fill="#f87171"/></marker>
  </defs>
  <rect width="1040" height="280" fill="#020617"/>
  <rect width="1040" height="280" fill="url(#grid)"/>
  <text x="520" y="36" text-anchor="middle" font-size="18" font-weight="700" fill="#f1f5f9">임베딩 파이프라인</text>
  <text x="520" y="58" text-anchor="middle" font-size="12" fill="#94a3b8">텍스트를 숫자 벡터로 → 의미적으로 가까운 것을 검색</text>
  <path d="M 208,157 L 226,157" stroke="#64748b" stroke-width="1.8" fill="none" marker-end="url(#arr)"/>
  <path d="M 410,157 L 428,157" stroke="#64748b" stroke-width="1.8" fill="none" marker-end="url(#arr)"/>
  <path d="M 612,157 L 630,157" stroke="#64748b" stroke-width="1.8" fill="none" marker-end="url(#arr)"/>
  <path d="M 814,157 L 832,157" stroke="#64748b" stroke-width="1.8" fill="none" marker-end="url(#arr)"/>
  <rect x="26" y="100" width="180" height="115" rx="10" fill="#0f172a"/>
  <rect x="26" y="100" width="180" height="115" rx="10" fill="rgba(96,165,250,0.15)" stroke="#60a5fa" stroke-width="1.5"/>
  <text x="116.0" y="153.5" text-anchor="middle" font-size="14" font-weight="700" fill="#bfdbfe">원문 텍스트</text>
  <text x="116.0" y="169.5" text-anchor="middle" font-size="11" font-family="JetBrains Mono, monospace" fill="#60a5fa">docs · query</text>
  <text x="116.0" y="185.5" text-anchor="middle" font-size="10" fill="#60a5fa">"환불 정책…"</text>
  <rect x="228" y="100" width="180" height="115" rx="10" fill="#0f172a"/>
  <rect x="228" y="100" width="180" height="115" rx="10" fill="rgba(167,139,250,0.15)" stroke="#a78bfa" stroke-width="1.5"/>
  <text x="318.0" y="153.5" text-anchor="middle" font-size="14" font-weight="700" fill="#ddd6fe">임베딩 모델</text>
  <text x="318.0" y="169.5" text-anchor="middle" font-size="11" font-family="JetBrains Mono, monospace" fill="#a78bfa">encoder</text>
  <text x="318.0" y="185.5" text-anchor="middle" font-size="10" fill="#a78bfa">OpenAI/Voyage/BGE</text>
  <rect x="430" y="100" width="180" height="115" rx="10" fill="#0f172a"/>
  <rect x="430" y="100" width="180" height="115" rx="10" fill="rgba(52,211,153,0.15)" stroke="#34d399" stroke-width="1.5"/>
  <text x="520.0" y="153.5" text-anchor="middle" font-size="14" font-weight="700" fill="#a7f3d0">벡터</text>
  <text x="520.0" y="169.5" text-anchor="middle" font-size="11" font-family="JetBrains Mono, monospace" fill="#34d399">1536-d float</text>
  <text x="520.0" y="185.5" text-anchor="middle" font-size="10" fill="#34d399">[0.12, -0.03, ...]</text>
  <rect x="632" y="100" width="180" height="115" rx="10" fill="#0f172a"/>
  <rect x="632" y="100" width="180" height="115" rx="10" fill="rgba(244,114,182,0.15)" stroke="#f472b6" stroke-width="1.5"/>
  <text x="722.0" y="153.5" text-anchor="middle" font-size="14" font-weight="700" fill="#fbcfe8">벡터 DB</text>
  <text x="722.0" y="169.5" text-anchor="middle" font-size="11" font-family="JetBrains Mono, monospace" fill="#f472b6">store + ANN</text>
  <text x="722.0" y="185.5" text-anchor="middle" font-size="10" fill="#f472b6">Chroma/Qdrant/Pinecone</text>
  <rect x="834" y="100" width="180" height="115" rx="10" fill="#0f172a"/>
  <rect x="834" y="100" width="180" height="115" rx="10" fill="rgba(34,211,238,0.15)" stroke="#22d3ee" stroke-width="1.5"/>
  <text x="924.0" y="153.5" text-anchor="middle" font-size="14" font-weight="700" fill="#a5f3fc">검색 (top-k)</text>
  <text x="924.0" y="169.5" text-anchor="middle" font-size="11" font-family="JetBrains Mono, monospace" fill="#22d3ee">cosine sim</text>
  <text x="924.0" y="185.5" text-anchor="middle" font-size="10" fill="#22d3ee">가장 가까운 N개</text>
</svg>