<svg xmlns="http://www.w3.org/2000/svg" viewBox="0 0 1100 500" font-family="Pretendard, -apple-system, BlinkMacSystemFont, sans-serif">
  <defs>
    <pattern id="grid" width="40" height="40" patternUnits="userSpaceOnUse">
      <path d="M 40 0 L 0 0 0 40" fill="none" stroke="#1e293b" stroke-width="0.5"/>
    </pattern>
    <marker id="arr" markerWidth="10" markerHeight="7" refX="9" refY="3.5" orient="auto"><polygon points="0,0 10,3.5 0,7" fill="#64748b"/></marker>
    <marker id="arr-input" markerWidth="10" markerHeight="7" refX="9" refY="3.5" orient="auto"><polygon points="0,0 10,3.5 0,7" fill="#60a5fa"/></marker>
    <marker id="arr-llm" markerWidth="10" markerHeight="7" refX="9" refY="3.5" orient="auto"><polygon points="0,0 10,3.5 0,7" fill="#fb923c"/></marker>
    <marker id="arr-model" markerWidth="10" markerHeight="7" refX="9" refY="3.5" orient="auto"><polygon points="0,0 10,3.5 0,7" fill="#a78bfa"/></marker>
    <marker id="arr-token" markerWidth="10" markerHeight="7" refX="9" refY="3.5" orient="auto"><polygon points="0,0 10,3.5 0,7" fill="#34d399"/></marker>
    <marker id="arr-output" markerWidth="10" markerHeight="7" refX="9" refY="3.5" orient="auto"><polygon points="0,0 10,3.5 0,7" fill="#34d399"/></marker>
    <marker id="arr-gate" markerWidth="10" markerHeight="7" refX="9" refY="3.5" orient="auto"><polygon points="0,0 10,3.5 0,7" fill="#fbbf24"/></marker>
    <marker id="arr-tool" markerWidth="10" markerHeight="7" refX="9" refY="3.5" orient="auto"><polygon points="0,0 10,3.5 0,7" fill="#22d3ee"/></marker>
    <marker id="arr-memory" markerWidth="10" markerHeight="7" refX="9" refY="3.5" orient="auto"><polygon points="0,0 10,3.5 0,7" fill="#f472b6"/></marker>
    <marker id="arr-error" markerWidth="10" markerHeight="7" refX="9" refY="3.5" orient="auto"><polygon points="0,0 10,3.5 0,7" fill="#f87171"/></marker>
  </defs>
  <rect width="1100" height="500" fill="#020617"/>
  <rect width="1100" height="500" fill="url(#grid)"/>
  <text x="550" y="36" text-anchor="middle" font-size="18" font-weight="700" fill="#f1f5f9">RAG 파이프라인 — 두 단계</text>
  <text x="550" y="58" text-anchor="middle" font-size="12" fill="#94a3b8">Indexing (준비) + Query (실행) · 둘은 벡터 DB로 연결됨</text>
  <path d="M 260,175 L 282,175" stroke="#64748b" stroke-width="1.8" fill="none" marker-end="url(#arr)"/>
  <path d="M 446,175 L 468,175" stroke="#64748b" stroke-width="1.8" fill="none" marker-end="url(#arr)"/>
  <path d="M 632,175 L 654,175" stroke="#64748b" stroke-width="1.8" fill="none" marker-end="url(#arr)"/>
  <path d="M 818,175 L 840,175" stroke="#64748b" stroke-width="1.8" fill="none" marker-end="url(#arr)"/>
  <rect x="98" y="130" width="160" height="90" rx="10" fill="#0f172a"/>
  <rect x="98" y="130" width="160" height="90" rx="10" fill="rgba(96,165,250,0.15)" stroke="#60a5fa" stroke-width="1.5"/>
  <text x="178.0" y="171.0" text-anchor="middle" font-size="14" font-weight="700" fill="#bfdbfe">문서</text>
  <text x="178.0" y="187.0" text-anchor="middle" font-size="11" font-family="JetBrains Mono, monospace" fill="#60a5fa">docs</text>
  <rect x="284" y="130" width="160" height="90" rx="10" fill="#0f172a"/>
  <rect x="284" y="130" width="160" height="90" rx="10" fill="rgba(34,211,238,0.15)" stroke="#22d3ee" stroke-width="1.5"/>
  <text x="364.0" y="171.0" text-anchor="middle" font-size="14" font-weight="700" fill="#a5f3fc">로드</text>
  <text x="364.0" y="187.0" text-anchor="middle" font-size="11" font-family="JetBrains Mono, monospace" fill="#22d3ee">PDF/HTML/MD</text>
  <rect x="470" y="130" width="160" height="90" rx="10" fill="#0f172a"/>
  <rect x="470" y="130" width="160" height="90" rx="10" fill="rgba(34,211,238,0.15)" stroke="#22d3ee" stroke-width="1.5"/>
  <text x="550.0" y="171.0" text-anchor="middle" font-size="14" font-weight="700" fill="#a5f3fc">Chunking</text>
  <text x="550.0" y="187.0" text-anchor="middle" font-size="11" font-family="JetBrains Mono, monospace" fill="#22d3ee">split</text>
  <rect x="656" y="130" width="160" height="90" rx="10" fill="#0f172a"/>
  <rect x="656" y="130" width="160" height="90" rx="10" fill="rgba(167,139,250,0.15)" stroke="#a78bfa" stroke-width="1.5"/>
  <text x="736.0" y="171.0" text-anchor="middle" font-size="14" font-weight="700" fill="#ddd6fe">임베딩</text>
  <text x="736.0" y="187.0" text-anchor="middle" font-size="11" font-family="JetBrains Mono, monospace" fill="#a78bfa">encoder</text>
  <rect x="842" y="130" width="160" height="90" rx="10" fill="#0f172a"/>
  <rect x="842" y="130" width="160" height="90" rx="10" fill="rgba(244,114,182,0.15)" stroke="#f472b6" stroke-width="1.5"/>
  <text x="922.0" y="171.0" text-anchor="middle" font-size="14" font-weight="700" fill="#fbcfe8">벡터 DB</text>
  <text x="922.0" y="187.0" text-anchor="middle" font-size="11" font-family="JetBrains Mono, monospace" fill="#f472b6">store</text>
  <rect x="82" y="102" width="936" height="134" rx="12" fill="rgba(34,211,238,0.05)" stroke="#22d3ee" stroke-width="1" stroke-dasharray="8,4"/>
  <text x="94" y="120" font-size="10" font-weight="700" fill="#22d3ee" font-family="JetBrains Mono, monospace">INDEXING (한 번, 문서 업데이트 시 재실행)</text>
  <path d="M 260,385 L 282,385" stroke="#64748b" stroke-width="1.8" fill="none" marker-end="url(#arr)"/>
  <path d="M 446,385 L 468,385" stroke="#64748b" stroke-width="1.8" fill="none" marker-end="url(#arr)"/>
  <path d="M 632,385 L 654,385" stroke="#64748b" stroke-width="1.8" fill="none" marker-end="url(#arr)"/>
  <path d="M 818,385 L 840,385" stroke="#64748b" stroke-width="1.8" fill="none" marker-end="url(#arr)"/>
  <rect x="98" y="340" width="160" height="90" rx="10" fill="#0f172a"/>
  <rect x="98" y="340" width="160" height="90" rx="10" fill="rgba(96,165,250,0.15)" stroke="#60a5fa" stroke-width="1.5"/>
  <text x="178.0" y="381.0" text-anchor="middle" font-size="14" font-weight="700" fill="#bfdbfe">질문</text>
  <text x="178.0" y="397.0" text-anchor="middle" font-size="11" font-family="JetBrains Mono, monospace" fill="#60a5fa">query</text>
  <rect x="284" y="340" width="160" height="90" rx="10" fill="#0f172a"/>
  <rect x="284" y="340" width="160" height="90" rx="10" fill="rgba(167,139,250,0.15)" stroke="#a78bfa" stroke-width="1.5"/>
  <text x="364.0" y="381.0" text-anchor="middle" font-size="14" font-weight="700" fill="#ddd6fe">임베딩</text>
  <text x="364.0" y="397.0" text-anchor="middle" font-size="11" font-family="JetBrains Mono, monospace" fill="#a78bfa">same encoder</text>
  <rect x="470" y="340" width="160" height="90" rx="10" fill="#0f172a"/>
  <rect x="470" y="340" width="160" height="90" rx="10" fill="rgba(244,114,182,0.15)" stroke="#f472b6" stroke-width="1.5"/>
  <text x="550.0" y="381.0" text-anchor="middle" font-size="14" font-weight="700" fill="#fbcfe8">검색 top-k</text>
  <text x="550.0" y="397.0" text-anchor="middle" font-size="11" font-family="JetBrains Mono, monospace" fill="#f472b6">ANN</text>
  <rect x="656" y="340" width="160" height="90" rx="10" fill="#0f172a"/>
  <rect x="656" y="340" width="160" height="90" rx="10" fill="rgba(251,146,60,0.15)" stroke="#fb923c" stroke-width="1.5"/>
  <text x="736.0" y="381.0" text-anchor="middle" font-size="14" font-weight="700" fill="#fed7aa">Augment</text>
  <text x="736.0" y="397.0" text-anchor="middle" font-size="11" font-family="JetBrains Mono, monospace" fill="#fb923c">prompt + context</text>
  <rect x="842" y="340" width="160" height="90" rx="10" fill="#0f172a"/>
  <rect x="842" y="340" width="160" height="90" rx="10" fill="rgba(52,211,153,0.2)" stroke="#34d399" stroke-width="1.5"/>
  <text x="922.0" y="381.0" text-anchor="middle" font-size="14" font-weight="700" fill="#a7f3d0">생성 + 인용</text>
  <text x="922.0" y="397.0" text-anchor="middle" font-size="11" font-family="JetBrains Mono, monospace" fill="#34d399">LLM</text>
  <rect x="82" y="312" width="936" height="134" rx="12" fill="rgba(251,146,60,0.05)" stroke="#fb923c" stroke-width="1" stroke-dasharray="8,4"/>
  <text x="94" y="330" font-size="10" font-weight="700" fill="#fb923c" font-family="JetBrains Mono, monospace">QUERY (매 요청)</text>
  <path d="M 922,248 L 922,280 L 550,280 L 550,312" stroke="#34d399" stroke-width="1.5" fill="none" marker-end="url(#arr-token)" stroke-dasharray="5,3"/>
  <rect x="700.0" y="259" width="72" height="18" rx="4" fill="#0f172a" stroke="#334155" stroke-width="0.8"/>
  <text x="736" y="272" text-anchor="middle" font-size="11" font-family="JetBrains Mono, monospace" fill="#94a3b8">같은 벡터 공간</text>
</svg>