<svg xmlns="http://www.w3.org/2000/svg" viewBox="0 0 1100 440" font-family="Pretendard, -apple-system, BlinkMacSystemFont, sans-serif">
  <defs>
    <pattern id="grid" width="40" height="40" patternUnits="userSpaceOnUse">
      <path d="M 40 0 L 0 0 0 40" fill="none" stroke="#1e293b" stroke-width="0.5"/>
    </pattern>
    <marker id="arr" markerWidth="10" markerHeight="7" refX="9" refY="3.5" orient="auto"><polygon points="0,0 10,3.5 0,7" fill="#64748b"/></marker>
    <marker id="arr-input" markerWidth="10" markerHeight="7" refX="9" refY="3.5" orient="auto"><polygon points="0,0 10,3.5 0,7" fill="#60a5fa"/></marker>
    <marker id="arr-llm" markerWidth="10" markerHeight="7" refX="9" refY="3.5" orient="auto"><polygon points="0,0 10,3.5 0,7" fill="#fb923c"/></marker>
    <marker id="arr-model" markerWidth="10" markerHeight="7" refX="9" refY="3.5" orient="auto"><polygon points="0,0 10,3.5 0,7" fill="#a78bfa"/></marker>
    <marker id="arr-token" markerWidth="10" markerHeight="7" refX="9" refY="3.5" orient="auto"><polygon points="0,0 10,3.5 0,7" fill="#34d399"/></marker>
    <marker id="arr-output" markerWidth="10" markerHeight="7" refX="9" refY="3.5" orient="auto"><polygon points="0,0 10,3.5 0,7" fill="#34d399"/></marker>
    <marker id="arr-gate" markerWidth="10" markerHeight="7" refX="9" refY="3.5" orient="auto"><polygon points="0,0 10,3.5 0,7" fill="#fbbf24"/></marker>
    <marker id="arr-tool" markerWidth="10" markerHeight="7" refX="9" refY="3.5" orient="auto"><polygon points="0,0 10,3.5 0,7" fill="#22d3ee"/></marker>
    <marker id="arr-memory" markerWidth="10" markerHeight="7" refX="9" refY="3.5" orient="auto"><polygon points="0,0 10,3.5 0,7" fill="#f472b6"/></marker>
    <marker id="arr-error" markerWidth="10" markerHeight="7" refX="9" refY="3.5" orient="auto"><polygon points="0,0 10,3.5 0,7" fill="#f87171"/></marker>
  </defs>
  <rect width="1100" height="440" fill="#020617"/>
  <rect width="1100" height="440" fill="url(#grid)"/>
  <text x="550" y="36" text-anchor="middle" font-size="18" font-weight="700" fill="#f1f5f9">Hybrid 검색 + Reranker</text>
  <text x="550" y="58" text-anchor="middle" font-size="12" fill="#94a3b8">Dense(의미) + BM25(키워드) 병렬 → RRF 병합 → Cross-encoder rerank</text>
  <path d="M 180,225 L 260,155" stroke="#64748b" stroke-width="1.8" fill="none" marker-end="url(#arr)"/>
  <rect x="180.5" y="163.0" width="79" height="18" rx="4" fill="#0f172a" stroke="#334155" stroke-width="0.8"/>
  <text x="220.0" y="176.0" text-anchor="middle" font-size="11" font-family="JetBrains Mono, monospace" fill="#94a3b8">query vec</text>
  <path d="M 180,265 L 260,335" stroke="#64748b" stroke-width="1.8" fill="none" marker-end="url(#arr)"/>
  <rect x="170.0" y="273.0" width="100" height="18" rx="4" fill="#0f172a" stroke="#334155" stroke-width="0.8"/>
  <text x="220.0" y="286.0" text-anchor="middle" font-size="11" font-family="JetBrains Mono, monospace" fill="#94a3b8">query tokens</text>
  <path d="M 400,155 L 500,220" stroke="#64748b" stroke-width="1.8" fill="none" marker-end="url(#arr)"/>
  <rect x="421.0" y="160.5" width="58" height="18" rx="4" fill="#0f172a" stroke="#334155" stroke-width="0.8"/>
  <text x="450.0" y="173.5" text-anchor="middle" font-size="11" font-family="JetBrains Mono, monospace" fill="#94a3b8">top-20</text>
  <path d="M 400,335 L 500,270" stroke="#64748b" stroke-width="1.8" fill="none" marker-end="url(#arr)"/>
  <rect x="421.0" y="275.5" width="58" height="18" rx="4" fill="#0f172a" stroke="#334155" stroke-width="0.8"/>
  <text x="450.0" y="288.5" text-anchor="middle" font-size="11" font-family="JetBrains Mono, monospace" fill="#94a3b8">top-20</text>
  <path d="M 640,245 L 720,245" stroke="#64748b" stroke-width="1.8" fill="none" marker-end="url(#arr)"/>
  <path d="M 860,245 L 940,245" stroke="#34d399" stroke-width="1.5" fill="none" marker-end="url(#arr-output)"/>
  <rect x="874.5" y="218.0" width="51" height="18" rx="4" fill="#0f172a" stroke="#334155" stroke-width="0.8"/>
  <text x="900.0" y="231.0" text-anchor="middle" font-size="11" font-family="JetBrains Mono, monospace" fill="#94a3b8">top-5</text>
  <rect x="40" y="200" width="140" height="90" rx="10" fill="#0f172a"/>
  <rect x="40" y="200" width="140" height="90" rx="10" fill="rgba(96,165,250,0.15)" stroke="#60a5fa" stroke-width="1.5"/>
  <text x="110.0" y="241.0" text-anchor="middle" font-size="14" font-weight="700" fill="#bfdbfe">쿼리</text>
  <text x="110.0" y="257.0" text-anchor="middle" font-size="11" font-family="JetBrains Mono, monospace" fill="#60a5fa">user query</text>
  <rect x="260" y="110" width="140" height="90" rx="10" fill="#0f172a"/>
  <rect x="260" y="110" width="140" height="90" rx="10" fill="rgba(167,139,250,0.15)" stroke="#a78bfa" stroke-width="1.5"/>
  <text x="330.0" y="151.0" text-anchor="middle" font-size="14" font-weight="700" fill="#ddd6fe">Dense</text>
  <text x="330.0" y="167.0" text-anchor="middle" font-size="11" font-family="JetBrains Mono, monospace" fill="#a78bfa">임베딩 + ANN</text>
  <text x="330.0" y="183.0" text-anchor="middle" font-size="10" fill="#a78bfa">의미 검색</text>
  <rect x="260" y="290" width="140" height="90" rx="10" fill="#0f172a"/>
  <rect x="260" y="290" width="140" height="90" rx="10" fill="rgba(34,211,238,0.15)" stroke="#22d3ee" stroke-width="1.5"/>
  <text x="330.0" y="331.0" text-anchor="middle" font-size="14" font-weight="700" fill="#a5f3fc">BM25</text>
  <text x="330.0" y="347.0" text-anchor="middle" font-size="11" font-family="JetBrains Mono, monospace" fill="#22d3ee">키워드 통계</text>
  <text x="330.0" y="363.0" text-anchor="middle" font-size="10" fill="#22d3ee">용어 일치</text>
  <rect x="500" y="200" width="140" height="90" rx="10" fill="#0f172a"/>
  <rect x="500" y="200" width="140" height="90" rx="10" fill="rgba(251,191,36,0.15)" stroke="#fbbf24" stroke-width="1.5"/>
  <text x="570.0" y="241.0" text-anchor="middle" font-size="14" font-weight="700" fill="#fde68a">RRF 병합</text>
  <text x="570.0" y="257.0" text-anchor="middle" font-size="11" font-family="JetBrains Mono, monospace" fill="#fbbf24">reciprocal rank</text>
  <rect x="720" y="200" width="140" height="90" rx="10" fill="#0f172a"/>
  <rect x="720" y="200" width="140" height="90" rx="10" fill="rgba(244,114,182,0.15)" stroke="#f472b6" stroke-width="1.5"/>
  <text x="790.0" y="241.0" text-anchor="middle" font-size="14" font-weight="700" fill="#fbcfe8">Rerank</text>
  <text x="790.0" y="257.0" text-anchor="middle" font-size="11" font-family="JetBrains Mono, monospace" fill="#f472b6">cross-encoder</text>
  <rect x="940" y="200" width="140" height="90" rx="10" fill="#0f172a"/>
  <rect x="940" y="200" width="140" height="90" rx="10" fill="rgba(52,211,153,0.2)" stroke="#34d399" stroke-width="1.5"/>
  <text x="1010.0" y="241.0" text-anchor="middle" font-size="14" font-weight="700" fill="#a7f3d0">최종 top-k</text>
  <text x="1010.0" y="257.0" text-anchor="middle" font-size="11" font-family="JetBrains Mono, monospace" fill="#34d399">정밀</text>
</svg>