<svg xmlns="http://www.w3.org/2000/svg" viewBox="0 0 1100 440" font-family="Pretendard, -apple-system, BlinkMacSystemFont, sans-serif">
  <defs>
    <pattern id="grid" width="40" height="40" patternUnits="userSpaceOnUse">
      <path d="M 40 0 L 0 0 0 40" fill="none" stroke="#f1f5f9" stroke-width="0.5"/>
    </pattern>
    <marker id="arr" markerWidth="10" markerHeight="7" refX="9" refY="3.5" orient="auto"><polygon points="0,0 10,3.5 0,7" fill="#6b7280"/></marker>
    <marker id="arr-input" markerWidth="10" markerHeight="7" refX="9" refY="3.5" orient="auto"><polygon points="0,0 10,3.5 0,7" fill="#2563eb"/></marker>
    <marker id="arr-llm" markerWidth="10" markerHeight="7" refX="9" refY="3.5" orient="auto"><polygon points="0,0 10,3.5 0,7" fill="#ea580c"/></marker>
    <marker id="arr-model" markerWidth="10" markerHeight="7" refX="9" refY="3.5" orient="auto"><polygon points="0,0 10,3.5 0,7" fill="#7c3aed"/></marker>
    <marker id="arr-token" markerWidth="10" markerHeight="7" refX="9" refY="3.5" orient="auto"><polygon points="0,0 10,3.5 0,7" fill="#059669"/></marker>
    <marker id="arr-output" markerWidth="10" markerHeight="7" refX="9" refY="3.5" orient="auto"><polygon points="0,0 10,3.5 0,7" fill="#059669"/></marker>
    <marker id="arr-gate" markerWidth="10" markerHeight="7" refX="9" refY="3.5" orient="auto"><polygon points="0,0 10,3.5 0,7" fill="#ca8a04"/></marker>
    <marker id="arr-tool" markerWidth="10" markerHeight="7" refX="9" refY="3.5" orient="auto"><polygon points="0,0 10,3.5 0,7" fill="#0891b2"/></marker>
    <marker id="arr-memory" markerWidth="10" markerHeight="7" refX="9" refY="3.5" orient="auto"><polygon points="0,0 10,3.5 0,7" fill="#db2777"/></marker>
    <marker id="arr-error" markerWidth="10" markerHeight="7" refX="9" refY="3.5" orient="auto"><polygon points="0,0 10,3.5 0,7" fill="#dc2626"/></marker>
  </defs>
  <rect width="1100" height="440" fill="#ffffff"/>
  <rect width="1100" height="440" fill="url(#grid)"/>
  <text x="550" y="36" text-anchor="middle" font-size="18" font-weight="700" fill="#0f172a">Hybrid 검색 + Reranker</text>
  <text x="550" y="58" text-anchor="middle" font-size="12" fill="#64748b">Dense(의미) + BM25(키워드) 병렬 → RRF 병합 → Cross-encoder rerank</text>
  <path d="M 180,225 L 260,155" stroke="#6b7280" stroke-width="1.8" fill="none" marker-end="url(#arr)"/>
  <rect x="180.5" y="163.0" width="79" height="18" rx="4" fill="#ffffff" stroke="#e5e7eb" stroke-width="0.8"/>
  <text x="220.0" y="176.0" text-anchor="middle" font-size="11" font-family="JetBrains Mono, monospace" fill="#475569">query vec</text>
  <path d="M 180,265 L 260,335" stroke="#6b7280" stroke-width="1.8" fill="none" marker-end="url(#arr)"/>
  <rect x="170.0" y="273.0" width="100" height="18" rx="4" fill="#ffffff" stroke="#e5e7eb" stroke-width="0.8"/>
  <text x="220.0" y="286.0" text-anchor="middle" font-size="11" font-family="JetBrains Mono, monospace" fill="#475569">query tokens</text>
  <path d="M 400,155 L 500,220" stroke="#6b7280" stroke-width="1.8" fill="none" marker-end="url(#arr)"/>
  <rect x="421.0" y="160.5" width="58" height="18" rx="4" fill="#ffffff" stroke="#e5e7eb" stroke-width="0.8"/>
  <text x="450.0" y="173.5" text-anchor="middle" font-size="11" font-family="JetBrains Mono, monospace" fill="#475569">top-20</text>
  <path d="M 400,335 L 500,270" stroke="#6b7280" stroke-width="1.8" fill="none" marker-end="url(#arr)"/>
  <rect x="421.0" y="275.5" width="58" height="18" rx="4" fill="#ffffff" stroke="#e5e7eb" stroke-width="0.8"/>
  <text x="450.0" y="288.5" text-anchor="middle" font-size="11" font-family="JetBrains Mono, monospace" fill="#475569">top-20</text>
  <path d="M 640,245 L 720,245" stroke="#6b7280" stroke-width="1.8" fill="none" marker-end="url(#arr)"/>
  <path d="M 860,245 L 940,245" stroke="#059669" stroke-width="1.5" fill="none" marker-end="url(#arr-output)"/>
  <rect x="874.5" y="218.0" width="51" height="18" rx="4" fill="#ffffff" stroke="#e5e7eb" stroke-width="0.8"/>
  <text x="900.0" y="231.0" text-anchor="middle" font-size="11" font-family="JetBrains Mono, monospace" fill="#475569">top-5</text>
  <rect x="40" y="200" width="140" height="90" rx="10" fill="#ffffff"/>
  <rect x="40" y="200" width="140" height="90" rx="10" fill="#e3f2fd" stroke="#2563eb" stroke-width="1.5"/>
  <text x="110.0" y="241.0" text-anchor="middle" font-size="14" font-weight="700" fill="#0d47a1">쿼리</text>
  <text x="110.0" y="257.0" text-anchor="middle" font-size="11" font-family="JetBrains Mono, monospace" fill="#1e40af">user query</text>
  <rect x="260" y="110" width="140" height="90" rx="10" fill="#ffffff"/>
  <rect x="260" y="110" width="140" height="90" rx="10" fill="#f3e8ff" stroke="#7c3aed" stroke-width="1.5"/>
  <text x="330.0" y="151.0" text-anchor="middle" font-size="14" font-weight="700" fill="#4c1d95">Dense</text>
  <text x="330.0" y="167.0" text-anchor="middle" font-size="11" font-family="JetBrains Mono, monospace" fill="#6d28d9">임베딩 + ANN</text>
  <text x="330.0" y="183.0" text-anchor="middle" font-size="10" fill="#6d28d9">의미 검색</text>
  <rect x="260" y="290" width="140" height="90" rx="10" fill="#ffffff"/>
  <rect x="260" y="290" width="140" height="90" rx="10" fill="#cffafe" stroke="#0891b2" stroke-width="1.5"/>
  <text x="330.0" y="331.0" text-anchor="middle" font-size="14" font-weight="700" fill="#083344">BM25</text>
  <text x="330.0" y="347.0" text-anchor="middle" font-size="11" font-family="JetBrains Mono, monospace" fill="#0e7490">키워드 통계</text>
  <text x="330.0" y="363.0" text-anchor="middle" font-size="10" fill="#0e7490">용어 일치</text>
  <rect x="500" y="200" width="140" height="90" rx="10" fill="#ffffff"/>
  <rect x="500" y="200" width="140" height="90" rx="10" fill="#fef9c3" stroke="#ca8a04" stroke-width="1.5"/>
  <text x="570.0" y="241.0" text-anchor="middle" font-size="14" font-weight="700" fill="#713f12">RRF 병합</text>
  <text x="570.0" y="257.0" text-anchor="middle" font-size="11" font-family="JetBrains Mono, monospace" fill="#a16207">reciprocal rank</text>
  <rect x="720" y="200" width="140" height="90" rx="10" fill="#ffffff"/>
  <rect x="720" y="200" width="140" height="90" rx="10" fill="#fce7f3" stroke="#db2777" stroke-width="1.5"/>
  <text x="790.0" y="241.0" text-anchor="middle" font-size="14" font-weight="700" fill="#500724">Rerank</text>
  <text x="790.0" y="257.0" text-anchor="middle" font-size="11" font-family="JetBrains Mono, monospace" fill="#be185d">cross-encoder</text>
  <rect x="940" y="200" width="140" height="90" rx="10" fill="#ffffff"/>
  <rect x="940" y="200" width="140" height="90" rx="10" fill="#d1fae5" stroke="#059669" stroke-width="1.5"/>
  <text x="1010.0" y="241.0" text-anchor="middle" font-size="14" font-weight="700" fill="#064e3b">최종 top-k</text>
  <text x="1010.0" y="257.0" text-anchor="middle" font-size="11" font-family="JetBrains Mono, monospace" fill="#047857">정밀</text>
</svg>