<svg xmlns="http://www.w3.org/2000/svg" viewBox="0 0 1040 380" font-family="Pretendard, -apple-system, BlinkMacSystemFont, sans-serif">
  <defs>
    <pattern id="grid" width="40" height="40" patternUnits="userSpaceOnUse">
      <path d="M 40 0 L 0 0 0 40" fill="none" stroke="#1e293b" stroke-width="0.5"/>
    </pattern>
    <marker id="arr" markerWidth="10" markerHeight="7" refX="9" refY="3.5" orient="auto"><polygon points="0,0 10,3.5 0,7" fill="#64748b"/></marker>
    <marker id="arr-input" markerWidth="10" markerHeight="7" refX="9" refY="3.5" orient="auto"><polygon points="0,0 10,3.5 0,7" fill="#60a5fa"/></marker>
    <marker id="arr-llm" markerWidth="10" markerHeight="7" refX="9" refY="3.5" orient="auto"><polygon points="0,0 10,3.5 0,7" fill="#fb923c"/></marker>
    <marker id="arr-model" markerWidth="10" markerHeight="7" refX="9" refY="3.5" orient="auto"><polygon points="0,0 10,3.5 0,7" fill="#a78bfa"/></marker>
    <marker id="arr-token" markerWidth="10" markerHeight="7" refX="9" refY="3.5" orient="auto"><polygon points="0,0 10,3.5 0,7" fill="#34d399"/></marker>
    <marker id="arr-output" markerWidth="10" markerHeight="7" refX="9" refY="3.5" orient="auto"><polygon points="0,0 10,3.5 0,7" fill="#34d399"/></marker>
    <marker id="arr-gate" markerWidth="10" markerHeight="7" refX="9" refY="3.5" orient="auto"><polygon points="0,0 10,3.5 0,7" fill="#fbbf24"/></marker>
    <marker id="arr-tool" markerWidth="10" markerHeight="7" refX="9" refY="3.5" orient="auto"><polygon points="0,0 10,3.5 0,7" fill="#22d3ee"/></marker>
    <marker id="arr-memory" markerWidth="10" markerHeight="7" refX="9" refY="3.5" orient="auto"><polygon points="0,0 10,3.5 0,7" fill="#f472b6"/></marker>
    <marker id="arr-error" markerWidth="10" markerHeight="7" refX="9" refY="3.5" orient="auto"><polygon points="0,0 10,3.5 0,7" fill="#f87171"/></marker>
  </defs>
  <rect width="1040" height="380" fill="#020617"/>
  <rect width="1040" height="380" fill="url(#grid)"/>
  <text x="520" y="36" text-anchor="middle" font-size="18" font-weight="700" fill="#f1f5f9">HyDE — Hypothetical Document Embeddings</text>
  <text x="520" y="58" text-anchor="middle" font-size="12" fill="#94a3b8">쿼리 임베딩이 약할 때, 가상의 답변을 만들어 그걸로 검색</text>
  <text x="60" y="110" font-size="12" font-weight="700" fill="#f87171">❌ Basic</text>
  <text x="60" y="128" font-size="10" fill="#94a3b8" font-family="JetBrains Mono, monospace">query embed</text>
  <path d="M 342,140 L 398,140" stroke="#64748b" stroke-width="1.8" fill="none" marker-end="url(#arr)"/>
  <path d="M 562,140 L 618,140" stroke="#64748b" stroke-width="1.8" fill="none" marker-end="url(#arr)"/>
  <rect x="180" y="100" width="160" height="80" rx="10" fill="#0f172a"/>
  <rect x="180" y="100" width="160" height="80" rx="10" fill="rgba(96,165,250,0.15)" stroke="#60a5fa" stroke-width="1.5"/>
  <text x="260.0" y="136.0" text-anchor="middle" font-size="14" font-weight="700" fill="#bfdbfe">짧은 쿼리</text>
  <text x="260.0" y="152.0" text-anchor="middle" font-size="11" font-family="JetBrains Mono, monospace" fill="#60a5fa">"AI는?"</text>
  <rect x="400" y="100" width="160" height="80" rx="10" fill="#0f172a"/>
  <rect x="400" y="100" width="160" height="80" rx="10" fill="rgba(167,139,250,0.15)" stroke="#a78bfa" stroke-width="1.5"/>
  <text x="480.0" y="136.0" text-anchor="middle" font-size="14" font-weight="700" fill="#ddd6fe">임베딩</text>
  <text x="480.0" y="152.0" text-anchor="middle" font-size="11" font-family="JetBrains Mono, monospace" fill="#a78bfa">noisy</text>
  <rect x="620" y="100" width="160" height="80" rx="10" fill="#0f172a"/>
  <rect x="620" y="100" width="160" height="80" rx="10" fill="rgba(34,211,238,0.15)" stroke="#22d3ee" stroke-width="1.5"/>
  <text x="700.0" y="136.0" text-anchor="middle" font-size="14" font-weight="700" fill="#a5f3fc">검색</text>
  <text x="700.0" y="152.0" text-anchor="middle" font-size="11" font-family="JetBrains Mono, monospace" fill="#22d3ee">top-k 불안정</text>
  <text x="60" y="260" font-size="12" font-weight="700" fill="#34d399">✓ HyDE</text>
  <text x="60" y="278" font-size="10" fill="#94a3b8" font-family="JetBrains Mono, monospace">hyp. answer embed</text>
  <path d="M 342,290 L 378,290" stroke="#64748b" stroke-width="1.8" fill="none" marker-end="url(#arr)"/>
  <path d="M 542,290 L 578,290" stroke="#64748b" stroke-width="1.8" fill="none" marker-end="url(#arr)"/>
  <path d="M 742,290 L 778,290" stroke="#64748b" stroke-width="1.8" fill="none" marker-end="url(#arr)"/>
  <rect x="180" y="250" width="160" height="80" rx="10" fill="#0f172a"/>
  <rect x="180" y="250" width="160" height="80" rx="10" fill="rgba(96,165,250,0.15)" stroke="#60a5fa" stroke-width="1.5"/>
  <text x="260.0" y="286.0" text-anchor="middle" font-size="14" font-weight="700" fill="#bfdbfe">짧은 쿼리</text>
  <text x="260.0" y="302.0" text-anchor="middle" font-size="11" font-family="JetBrains Mono, monospace" fill="#60a5fa">"AI는?"</text>
  <rect x="380" y="250" width="160" height="80" rx="10" fill="#0f172a"/>
  <rect x="380" y="250" width="160" height="80" rx="10" fill="rgba(167,139,250,0.15)" stroke="#a78bfa" stroke-width="1.5"/>
  <text x="460.0" y="286.0" text-anchor="middle" font-size="14" font-weight="700" fill="#ddd6fe">LLM 가상답변</text>
  <text x="460.0" y="302.0" text-anchor="middle" font-size="11" font-family="JetBrains Mono, monospace" fill="#a78bfa">"AI는 인공지능…"</text>
  <rect x="580" y="250" width="160" height="80" rx="10" fill="#0f172a"/>
  <rect x="580" y="250" width="160" height="80" rx="10" fill="rgba(167,139,250,0.15)" stroke="#a78bfa" stroke-width="1.5"/>
  <text x="660.0" y="286.0" text-anchor="middle" font-size="14" font-weight="700" fill="#ddd6fe">임베딩</text>
  <text x="660.0" y="302.0" text-anchor="middle" font-size="11" font-family="JetBrains Mono, monospace" fill="#a78bfa">긴 답변</text>
  <rect x="780" y="250" width="160" height="80" rx="10" fill="#0f172a"/>
  <rect x="780" y="250" width="160" height="80" rx="10" fill="rgba(34,211,238,0.15)" stroke="#22d3ee" stroke-width="1.5"/>
  <text x="860.0" y="286.0" text-anchor="middle" font-size="14" font-weight="700" fill="#a5f3fc">검색</text>
  <text x="860.0" y="302.0" text-anchor="middle" font-size="11" font-family="JetBrains Mono, monospace" fill="#22d3ee">정확한 top-k</text>
</svg>