<svg xmlns="http://www.w3.org/2000/svg" viewBox="0 0 1040 440" font-family="Pretendard, -apple-system, BlinkMacSystemFont, sans-serif">
  <defs>
    <pattern id="grid" width="40" height="40" patternUnits="userSpaceOnUse">
      <path d="M 40 0 L 0 0 0 40" fill="none" stroke="#1e293b" stroke-width="0.5"/>
    </pattern>
    <marker id="arr" markerWidth="10" markerHeight="7" refX="9" refY="3.5" orient="auto"><polygon points="0,0 10,3.5 0,7" fill="#64748b"/></marker>
    <marker id="arr-input" markerWidth="10" markerHeight="7" refX="9" refY="3.5" orient="auto"><polygon points="0,0 10,3.5 0,7" fill="#60a5fa"/></marker>
    <marker id="arr-llm" markerWidth="10" markerHeight="7" refX="9" refY="3.5" orient="auto"><polygon points="0,0 10,3.5 0,7" fill="#fb923c"/></marker>
    <marker id="arr-model" markerWidth="10" markerHeight="7" refX="9" refY="3.5" orient="auto"><polygon points="0,0 10,3.5 0,7" fill="#a78bfa"/></marker>
    <marker id="arr-token" markerWidth="10" markerHeight="7" refX="9" refY="3.5" orient="auto"><polygon points="0,0 10,3.5 0,7" fill="#34d399"/></marker>
    <marker id="arr-output" markerWidth="10" markerHeight="7" refX="9" refY="3.5" orient="auto"><polygon points="0,0 10,3.5 0,7" fill="#34d399"/></marker>
    <marker id="arr-gate" markerWidth="10" markerHeight="7" refX="9" refY="3.5" orient="auto"><polygon points="0,0 10,3.5 0,7" fill="#fbbf24"/></marker>
    <marker id="arr-tool" markerWidth="10" markerHeight="7" refX="9" refY="3.5" orient="auto"><polygon points="0,0 10,3.5 0,7" fill="#22d3ee"/></marker>
    <marker id="arr-memory" markerWidth="10" markerHeight="7" refX="9" refY="3.5" orient="auto"><polygon points="0,0 10,3.5 0,7" fill="#f472b6"/></marker>
    <marker id="arr-error" markerWidth="10" markerHeight="7" refX="9" refY="3.5" orient="auto"><polygon points="0,0 10,3.5 0,7" fill="#f87171"/></marker>
  </defs>
  <rect width="1040" height="440" fill="#020617"/>
  <rect width="1040" height="440" fill="url(#grid)"/>
  <text x="520" y="36" text-anchor="middle" font-size="18" font-weight="700" fill="#f1f5f9">멀티모달 RAG — 텍스트 + 이미지</text>
  <text x="520" y="58" text-anchor="middle" font-size="12" fill="#94a3b8">PDF의 표·다이어그램·스크린샷까지 검색 대상으로</text>
  <rect x="40" y="200" width="120" height="90" rx="10" fill="#0f172a"/>
  <rect x="40" y="200" width="120" height="90" rx="10" fill="rgba(96,165,250,0.15)" stroke="#60a5fa" stroke-width="1.5"/>
  <text x="100.0" y="241.0" text-anchor="middle" font-size="14" font-weight="700" fill="#bfdbfe">PDF 문서</text>
  <text x="100.0" y="257.0" text-anchor="middle" font-size="11" font-family="JetBrains Mono, monospace" fill="#60a5fa">mixed</text>
  <rect x="240" y="100" width="180" height="90" rx="10" fill="#0f172a"/>
  <rect x="240" y="100" width="180" height="90" rx="10" fill="rgba(34,211,238,0.15)" stroke="#22d3ee" stroke-width="1.5"/>
  <text x="330.0" y="141.0" text-anchor="middle" font-size="14" font-weight="700" fill="#a5f3fc">텍스트 추출</text>
  <text x="330.0" y="157.0" text-anchor="middle" font-size="11" font-family="JetBrains Mono, monospace" fill="#22d3ee">unstructured / fitz</text>
  <rect x="240" y="300" width="180" height="90" rx="10" fill="#0f172a"/>
  <rect x="240" y="300" width="180" height="90" rx="10" fill="rgba(34,211,238,0.15)" stroke="#22d3ee" stroke-width="1.5"/>
  <text x="330.0" y="341.0" text-anchor="middle" font-size="14" font-weight="700" fill="#a5f3fc">이미지 추출</text>
  <text x="330.0" y="357.0" text-anchor="middle" font-size="11" font-family="JetBrains Mono, monospace" fill="#22d3ee">page rasterize</text>
  <path d="M 160,230 L 240,145" stroke="#64748b" stroke-width="1.8" fill="none" marker-end="url(#arr)"/>
  <rect x="181.5" y="160.5" width="37" height="18" rx="4" fill="#0f172a" stroke="#334155" stroke-width="0.8"/>
  <text x="200.0" y="173.5" text-anchor="middle" font-size="11" font-family="JetBrains Mono, monospace" fill="#94a3b8">텍스트</text>
  <path d="M 160,260 L 240,345" stroke="#64748b" stroke-width="1.8" fill="none" marker-end="url(#arr)"/>
  <rect x="181.5" y="275.5" width="37" height="18" rx="4" fill="#0f172a" stroke="#334155" stroke-width="0.8"/>
  <text x="200.0" y="288.5" text-anchor="middle" font-size="11" font-family="JetBrains Mono, monospace" fill="#94a3b8">이미지</text>
  <rect x="480" y="100" width="180" height="90" rx="10" fill="#0f172a"/>
  <rect x="480" y="100" width="180" height="90" rx="10" fill="rgba(167,139,250,0.15)" stroke="#a78bfa" stroke-width="1.5"/>
  <text x="570.0" y="141.0" text-anchor="middle" font-size="14" font-weight="700" fill="#ddd6fe">텍스트 임베딩</text>
  <text x="570.0" y="157.0" text-anchor="middle" font-size="11" font-family="JetBrains Mono, monospace" fill="#a78bfa">text-embed-3</text>
  <rect x="480" y="300" width="180" height="90" rx="10" fill="#0f172a"/>
  <rect x="480" y="300" width="180" height="90" rx="10" fill="rgba(167,139,250,0.15)" stroke="#a78bfa" stroke-width="1.5"/>
  <text x="570.0" y="341.0" text-anchor="middle" font-size="14" font-weight="700" fill="#ddd6fe">멀티모달 임베딩</text>
  <text x="570.0" y="357.0" text-anchor="middle" font-size="11" font-family="JetBrains Mono, monospace" fill="#a78bfa">CLIP / Voyage-mm</text>
  <path d="M 420,145 L 480,145" stroke="#64748b" stroke-width="1.8" fill="none" marker-end="url(#arr)"/>
  <path d="M 420,345 L 480,345" stroke="#64748b" stroke-width="1.8" fill="none" marker-end="url(#arr)"/>
  <rect x="720" y="100" width="140" height="90" rx="10" fill="#0f172a"/>
  <rect x="720" y="100" width="140" height="90" rx="10" fill="rgba(244,114,182,0.15)" stroke="#f472b6" stroke-width="1.5"/>
  <text x="790.0" y="141.0" text-anchor="middle" font-size="14" font-weight="700" fill="#fbcfe8">텍스트 DB</text>
  <text x="790.0" y="157.0" text-anchor="middle" font-size="11" font-family="JetBrains Mono, monospace" fill="#f472b6">vector</text>
  <rect x="720" y="300" width="140" height="90" rx="10" fill="#0f172a"/>
  <rect x="720" y="300" width="140" height="90" rx="10" fill="rgba(244,114,182,0.15)" stroke="#f472b6" stroke-width="1.5"/>
  <text x="790.0" y="341.0" text-anchor="middle" font-size="14" font-weight="700" fill="#fbcfe8">이미지 DB</text>
  <text x="790.0" y="357.0" text-anchor="middle" font-size="11" font-family="JetBrains Mono, monospace" fill="#f472b6">vector</text>
  <path d="M 660,145 L 720,145" stroke="#64748b" stroke-width="1.8" fill="none" marker-end="url(#arr)"/>
  <path d="M 660,345 L 720,345" stroke="#64748b" stroke-width="1.8" fill="none" marker-end="url(#arr)"/>
  <rect x="900" y="200" width="120" height="90" rx="10" fill="#0f172a"/>
  <rect x="900" y="200" width="120" height="90" rx="10" fill="rgba(251,146,60,0.15)" stroke="#fb923c" stroke-width="1.5"/>
  <text x="960.0" y="241.0" text-anchor="middle" font-size="14" font-weight="700" fill="#fed7aa">Vision LLM</text>
  <text x="960.0" y="257.0" text-anchor="middle" font-size="11" font-family="JetBrains Mono, monospace" fill="#fb923c">Claude/GPT-4o</text>
  <path d="M 860,170 L 900,230" stroke="#34d399" stroke-width="1.5" fill="none" marker-end="url(#arr-output)"/>
  <path d="M 860,320 L 900,260" stroke="#34d399" stroke-width="1.5" fill="none" marker-end="url(#arr-output)"/>
</svg>