<svg xmlns="http://www.w3.org/2000/svg" viewBox="0 0 1040 440" font-family="Pretendard, -apple-system, BlinkMacSystemFont, sans-serif">
  <defs>
    <pattern id="grid" width="40" height="40" patternUnits="userSpaceOnUse">
      <path d="M 40 0 L 0 0 0 40" fill="none" stroke="#f1f5f9" stroke-width="0.5"/>
    </pattern>
    <marker id="arr" markerWidth="10" markerHeight="7" refX="9" refY="3.5" orient="auto"><polygon points="0,0 10,3.5 0,7" fill="#6b7280"/></marker>
    <marker id="arr-input" markerWidth="10" markerHeight="7" refX="9" refY="3.5" orient="auto"><polygon points="0,0 10,3.5 0,7" fill="#2563eb"/></marker>
    <marker id="arr-llm" markerWidth="10" markerHeight="7" refX="9" refY="3.5" orient="auto"><polygon points="0,0 10,3.5 0,7" fill="#ea580c"/></marker>
    <marker id="arr-model" markerWidth="10" markerHeight="7" refX="9" refY="3.5" orient="auto"><polygon points="0,0 10,3.5 0,7" fill="#7c3aed"/></marker>
    <marker id="arr-token" markerWidth="10" markerHeight="7" refX="9" refY="3.5" orient="auto"><polygon points="0,0 10,3.5 0,7" fill="#059669"/></marker>
    <marker id="arr-output" markerWidth="10" markerHeight="7" refX="9" refY="3.5" orient="auto"><polygon points="0,0 10,3.5 0,7" fill="#059669"/></marker>
    <marker id="arr-gate" markerWidth="10" markerHeight="7" refX="9" refY="3.5" orient="auto"><polygon points="0,0 10,3.5 0,7" fill="#ca8a04"/></marker>
    <marker id="arr-tool" markerWidth="10" markerHeight="7" refX="9" refY="3.5" orient="auto"><polygon points="0,0 10,3.5 0,7" fill="#0891b2"/></marker>
    <marker id="arr-memory" markerWidth="10" markerHeight="7" refX="9" refY="3.5" orient="auto"><polygon points="0,0 10,3.5 0,7" fill="#db2777"/></marker>
    <marker id="arr-error" markerWidth="10" markerHeight="7" refX="9" refY="3.5" orient="auto"><polygon points="0,0 10,3.5 0,7" fill="#dc2626"/></marker>
  </defs>
  <rect width="1040" height="440" fill="#ffffff"/>
  <rect width="1040" height="440" fill="url(#grid)"/>
  <text x="520" y="36" text-anchor="middle" font-size="18" font-weight="700" fill="#0f172a">멀티모달 RAG — 텍스트 + 이미지</text>
  <text x="520" y="58" text-anchor="middle" font-size="12" fill="#64748b">PDF의 표·다이어그램·스크린샷까지 검색 대상으로</text>
  <rect x="40" y="200" width="120" height="90" rx="10" fill="#ffffff"/>
  <rect x="40" y="200" width="120" height="90" rx="10" fill="#e3f2fd" stroke="#2563eb" stroke-width="1.5"/>
  <text x="100.0" y="241.0" text-anchor="middle" font-size="14" font-weight="700" fill="#0d47a1">PDF 문서</text>
  <text x="100.0" y="257.0" text-anchor="middle" font-size="11" font-family="JetBrains Mono, monospace" fill="#1e40af">mixed</text>
  <rect x="240" y="100" width="180" height="90" rx="10" fill="#ffffff"/>
  <rect x="240" y="100" width="180" height="90" rx="10" fill="#cffafe" stroke="#0891b2" stroke-width="1.5"/>
  <text x="330.0" y="141.0" text-anchor="middle" font-size="14" font-weight="700" fill="#083344">텍스트 추출</text>
  <text x="330.0" y="157.0" text-anchor="middle" font-size="11" font-family="JetBrains Mono, monospace" fill="#0e7490">unstructured / fitz</text>
  <rect x="240" y="300" width="180" height="90" rx="10" fill="#ffffff"/>
  <rect x="240" y="300" width="180" height="90" rx="10" fill="#cffafe" stroke="#0891b2" stroke-width="1.5"/>
  <text x="330.0" y="341.0" text-anchor="middle" font-size="14" font-weight="700" fill="#083344">이미지 추출</text>
  <text x="330.0" y="357.0" text-anchor="middle" font-size="11" font-family="JetBrains Mono, monospace" fill="#0e7490">page rasterize</text>
  <path d="M 160,230 L 240,145" stroke="#6b7280" stroke-width="1.8" fill="none" marker-end="url(#arr)"/>
  <rect x="181.5" y="160.5" width="37" height="18" rx="4" fill="#ffffff" stroke="#e5e7eb" stroke-width="0.8"/>
  <text x="200.0" y="173.5" text-anchor="middle" font-size="11" font-family="JetBrains Mono, monospace" fill="#475569">텍스트</text>
  <path d="M 160,260 L 240,345" stroke="#6b7280" stroke-width="1.8" fill="none" marker-end="url(#arr)"/>
  <rect x="181.5" y="275.5" width="37" height="18" rx="4" fill="#ffffff" stroke="#e5e7eb" stroke-width="0.8"/>
  <text x="200.0" y="288.5" text-anchor="middle" font-size="11" font-family="JetBrains Mono, monospace" fill="#475569">이미지</text>
  <rect x="480" y="100" width="180" height="90" rx="10" fill="#ffffff"/>
  <rect x="480" y="100" width="180" height="90" rx="10" fill="#f3e8ff" stroke="#7c3aed" stroke-width="1.5"/>
  <text x="570.0" y="141.0" text-anchor="middle" font-size="14" font-weight="700" fill="#4c1d95">텍스트 임베딩</text>
  <text x="570.0" y="157.0" text-anchor="middle" font-size="11" font-family="JetBrains Mono, monospace" fill="#6d28d9">text-embed-3</text>
  <rect x="480" y="300" width="180" height="90" rx="10" fill="#ffffff"/>
  <rect x="480" y="300" width="180" height="90" rx="10" fill="#f3e8ff" stroke="#7c3aed" stroke-width="1.5"/>
  <text x="570.0" y="341.0" text-anchor="middle" font-size="14" font-weight="700" fill="#4c1d95">멀티모달 임베딩</text>
  <text x="570.0" y="357.0" text-anchor="middle" font-size="11" font-family="JetBrains Mono, monospace" fill="#6d28d9">CLIP / Voyage-mm</text>
  <path d="M 420,145 L 480,145" stroke="#6b7280" stroke-width="1.8" fill="none" marker-end="url(#arr)"/>
  <path d="M 420,345 L 480,345" stroke="#6b7280" stroke-width="1.8" fill="none" marker-end="url(#arr)"/>
  <rect x="720" y="100" width="140" height="90" rx="10" fill="#ffffff"/>
  <rect x="720" y="100" width="140" height="90" rx="10" fill="#fce7f3" stroke="#db2777" stroke-width="1.5"/>
  <text x="790.0" y="141.0" text-anchor="middle" font-size="14" font-weight="700" fill="#500724">텍스트 DB</text>
  <text x="790.0" y="157.0" text-anchor="middle" font-size="11" font-family="JetBrains Mono, monospace" fill="#be185d">vector</text>
  <rect x="720" y="300" width="140" height="90" rx="10" fill="#ffffff"/>
  <rect x="720" y="300" width="140" height="90" rx="10" fill="#fce7f3" stroke="#db2777" stroke-width="1.5"/>
  <text x="790.0" y="341.0" text-anchor="middle" font-size="14" font-weight="700" fill="#500724">이미지 DB</text>
  <text x="790.0" y="357.0" text-anchor="middle" font-size="11" font-family="JetBrains Mono, monospace" fill="#be185d">vector</text>
  <path d="M 660,145 L 720,145" stroke="#6b7280" stroke-width="1.8" fill="none" marker-end="url(#arr)"/>
  <path d="M 660,345 L 720,345" stroke="#6b7280" stroke-width="1.8" fill="none" marker-end="url(#arr)"/>
  <rect x="900" y="200" width="120" height="90" rx="10" fill="#ffffff"/>
  <rect x="900" y="200" width="120" height="90" rx="10" fill="#fef3e0" stroke="#ea580c" stroke-width="1.5"/>
  <text x="960.0" y="241.0" text-anchor="middle" font-size="14" font-weight="700" fill="#9a3412">Vision LLM</text>
  <text x="960.0" y="257.0" text-anchor="middle" font-size="11" font-family="JetBrains Mono, monospace" fill="#c2410c">Claude/GPT-4o</text>
  <path d="M 860,170 L 900,230" stroke="#059669" stroke-width="1.5" fill="none" marker-end="url(#arr-output)"/>
  <path d="M 860,320 L 900,260" stroke="#059669" stroke-width="1.5" fill="none" marker-end="url(#arr-output)"/>
</svg>