<svg xmlns="http://www.w3.org/2000/svg" viewBox="0 0 1120 560" font-family="Pretendard, -apple-system, BlinkMacSystemFont, sans-serif">
  <defs>
    <pattern id="grid" width="40" height="40" patternUnits="userSpaceOnUse">
      <path d="M 40 0 L 0 0 0 40" fill="none" stroke="#1e293b" stroke-width="0.5"/>
    </pattern>
    <marker id="arr" markerWidth="10" markerHeight="7" refX="9" refY="3.5" orient="auto"><polygon points="0,0 10,3.5 0,7" fill="#64748b"/></marker>
    <marker id="arr-input" markerWidth="10" markerHeight="7" refX="9" refY="3.5" orient="auto"><polygon points="0,0 10,3.5 0,7" fill="#60a5fa"/></marker>
    <marker id="arr-llm" markerWidth="10" markerHeight="7" refX="9" refY="3.5" orient="auto"><polygon points="0,0 10,3.5 0,7" fill="#fb923c"/></marker>
    <marker id="arr-model" markerWidth="10" markerHeight="7" refX="9" refY="3.5" orient="auto"><polygon points="0,0 10,3.5 0,7" fill="#a78bfa"/></marker>
    <marker id="arr-token" markerWidth="10" markerHeight="7" refX="9" refY="3.5" orient="auto"><polygon points="0,0 10,3.5 0,7" fill="#34d399"/></marker>
    <marker id="arr-output" markerWidth="10" markerHeight="7" refX="9" refY="3.5" orient="auto"><polygon points="0,0 10,3.5 0,7" fill="#34d399"/></marker>
    <marker id="arr-gate" markerWidth="10" markerHeight="7" refX="9" refY="3.5" orient="auto"><polygon points="0,0 10,3.5 0,7" fill="#fbbf24"/></marker>
    <marker id="arr-tool" markerWidth="10" markerHeight="7" refX="9" refY="3.5" orient="auto"><polygon points="0,0 10,3.5 0,7" fill="#22d3ee"/></marker>
    <marker id="arr-memory" markerWidth="10" markerHeight="7" refX="9" refY="3.5" orient="auto"><polygon points="0,0 10,3.5 0,7" fill="#f472b6"/></marker>
    <marker id="arr-error" markerWidth="10" markerHeight="7" refX="9" refY="3.5" orient="auto"><polygon points="0,0 10,3.5 0,7" fill="#f87171"/></marker>
  </defs>
  <rect width="1120" height="560" fill="#020617"/>
  <rect width="1120" height="560" fill="url(#grid)"/>
  <text x="560" y="36" text-anchor="middle" font-size="18" font-weight="700" fill="#f1f5f9">추론 품질 향상 4기법 — 같은 모델, 다른 전략</text>
  <text x="560" y="58" text-anchor="middle" font-size="12" fill="#94a3b8">한 번 묻는 대신, 여러 번·다른 방식으로 묻고 합치면 품질이 오른다.</text>
  <rect x="30" y="100" width="180" height="90" rx="8" fill="rgba(167,139,250,0.15)" stroke="#a78bfa" stroke-width="1.3"/>
  <text x="44" y="123" font-size="13" font-weight="700" fill="#ddd6fe">① Single (baseline)</text>
  <text x="44" y="143" font-size="11" fill="#a78bfa">직접 답 하나</text>
  <text x="44" y="163" font-size="10" font-family="JetBrains Mono, monospace" fill="#a78bfa">N=1 · 저비용</text>
  <rect x="230" y="115" width="60" height="40" rx="6" fill="rgba(96,165,250,0.15)" stroke="#60a5fa" stroke-width="1"/>
  <text x="260.0" y="140" text-anchor="middle" font-size="12" font-weight="700" fill="#bfdbfe">Q</text>
  <path d="M 290,135 L 320,135" stroke="#64748b" stroke-width="1.8" fill="none" marker-end="url(#arr)"/>
  <rect x="350" y="115" width="110" height="40" rx="6" fill="rgba(167,139,250,0.15)" stroke="#a78bfa" stroke-width="1"/>
  <text x="405" y="140" text-anchor="middle" font-size="11" font-weight="700" fill="#ddd6fe">LLM</text>
  <path d="M 460,135 L 940,135" stroke="#64748b" stroke-width="1.8" fill="none" marker-end="url(#arr)"/>
  <rect x="940" y="115" width="130" height="40" rx="6" fill="rgba(52,211,153,0.2)" stroke="#34d399" stroke-width="1"/>
  <text x="1005.0" y="140" text-anchor="middle" font-size="11" font-weight="700" fill="#a7f3d0">Answer</text>
  <rect x="30" y="215" width="180" height="90" rx="8" fill="rgba(251,146,60,0.15)" stroke="#fb923c" stroke-width="1.3"/>
  <text x="44" y="238" font-size="13" font-weight="700" fill="#fed7aa">② CoT (Chain-of-Thought)</text>
  <text x="44" y="258" font-size="11" fill="#fb923c">"단계별로 생각해"</text>
  <text x="44" y="278" font-size="10" font-family="JetBrains Mono, monospace" fill="#fb923c">N=1 · 토큰만 ↑</text>
  <rect x="230" y="230" width="60" height="40" rx="6" fill="rgba(96,165,250,0.15)" stroke="#60a5fa" stroke-width="1"/>
  <text x="260.0" y="255" text-anchor="middle" font-size="12" font-weight="700" fill="#bfdbfe">Q</text>
  <path d="M 290,250 L 320,250" stroke="#64748b" stroke-width="1.8" fill="none" marker-end="url(#arr)"/>
  <rect x="340" y="230" width="90" height="40" rx="6" fill="rgba(251,146,60,0.15)" stroke="#fb923c" stroke-width="1"/>
  <text x="385.0" y="255" text-anchor="middle" font-size="11" fill="#fed7aa">Step 1</text>
  <rect x="450" y="230" width="90" height="40" rx="6" fill="rgba(251,146,60,0.15)" stroke="#fb923c" stroke-width="1"/>
  <text x="495.0" y="255" text-anchor="middle" font-size="11" fill="#fed7aa">Step 2</text>
  <rect x="560" y="230" width="90" height="40" rx="6" fill="rgba(251,146,60,0.15)" stroke="#fb923c" stroke-width="1"/>
  <text x="605.0" y="255" text-anchor="middle" font-size="11" fill="#fed7aa">Step 3</text>
  <path d="M 430,250 L 450,250" stroke="#64748b" stroke-width="1.8" fill="none" marker-end="url(#arr)"/>
  <path d="M 540,250 L 560,250" stroke="#64748b" stroke-width="1.8" fill="none" marker-end="url(#arr)"/>
  <path d="M 650,250 L 940,250" stroke="#64748b" stroke-width="1.8" fill="none" marker-end="url(#arr)"/>
  <rect x="940" y="230" width="130" height="40" rx="6" fill="rgba(52,211,153,0.2)" stroke="#34d399" stroke-width="1"/>
  <text x="1005.0" y="255" text-anchor="middle" font-size="11" font-weight="700" fill="#a7f3d0">Answer</text>
  <rect x="30" y="330" width="180" height="90" rx="8" fill="rgba(52,211,153,0.15)" stroke="#34d399" stroke-width="1.3"/>
  <text x="44" y="353" font-size="13" font-weight="700" fill="#a7f3d0">③ Self-Consistency</text>
  <text x="44" y="373" font-size="11" fill="#34d399">N개 샘플 + 다수결</text>
  <text x="44" y="393" font-size="10" font-family="JetBrains Mono, monospace" fill="#34d399">N=5~20 · 비용 ×N</text>
  <rect x="230" y="345" width="60" height="40" rx="6" fill="rgba(96,165,250,0.15)" stroke="#60a5fa" stroke-width="1"/>
  <text x="260.0" y="370" text-anchor="middle" font-size="12" font-weight="700" fill="#bfdbfe">Q</text>
  <path d="M 290,365 L 320,365" stroke="#64748b" stroke-width="1.8" fill="none" marker-end="url(#arr)"/>
  <rect x="340" y="313" width="100" height="14" rx="4" fill="rgba(52,211,153,0.15)" stroke="#34d399" stroke-width="0.8"/>
  <text x="390" y="324" text-anchor="middle" font-size="9" font-family="JetBrains Mono, monospace" fill="#a7f3d0">LLM[t=1]</text>
  <rect x="340" y="329" width="100" height="14" rx="4" fill="rgba(52,211,153,0.15)" stroke="#34d399" stroke-width="0.8"/>
  <text x="390" y="340" text-anchor="middle" font-size="9" font-family="JetBrains Mono, monospace" fill="#a7f3d0">LLM[t=2]</text>
  <rect x="340" y="345" width="100" height="14" rx="4" fill="rgba(52,211,153,0.15)" stroke="#34d399" stroke-width="0.8"/>
  <text x="390" y="356" text-anchor="middle" font-size="9" font-family="JetBrains Mono, monospace" fill="#a7f3d0">LLM[t=3]</text>
  <rect x="340" y="361" width="100" height="14" rx="4" fill="rgba(52,211,153,0.15)" stroke="#34d399" stroke-width="0.8"/>
  <text x="390" y="372" text-anchor="middle" font-size="9" font-family="JetBrains Mono, monospace" fill="#a7f3d0">LLM[t=4]</text>
  <rect x="340" y="377" width="100" height="14" rx="4" fill="rgba(52,211,153,0.15)" stroke="#34d399" stroke-width="0.8"/>
  <text x="390" y="388" text-anchor="middle" font-size="9" font-family="JetBrains Mono, monospace" fill="#a7f3d0">LLM[t=5]</text>
  <rect x="490" y="340" width="110" height="50" rx="6" fill="rgba(251,191,36,0.15)" stroke="#fbbf24" stroke-width="1.2"/>
  <text x="545" y="360" text-anchor="middle" font-size="11" font-weight="700" fill="#fde68a">Majority</text>
  <text x="545" y="377" text-anchor="middle" font-size="10" fill="#fbbf24">Vote</text>
  <line x1="440" y1="320" x2="490" y2="365" stroke="#64748b" stroke-width="0.8"/>
  <line x1="440" y1="336" x2="490" y2="365" stroke="#64748b" stroke-width="0.8"/>
  <line x1="440" y1="352" x2="490" y2="365" stroke="#64748b" stroke-width="0.8"/>
  <line x1="440" y1="368" x2="490" y2="365" stroke="#64748b" stroke-width="0.8"/>
  <line x1="440" y1="384" x2="490" y2="365" stroke="#64748b" stroke-width="0.8"/>
  <path d="M 600,365 L 940,365" stroke="#64748b" stroke-width="1.8" fill="none" marker-end="url(#arr)"/>
  <rect x="940" y="345" width="130" height="40" rx="6" fill="rgba(52,211,153,0.2)" stroke="#34d399" stroke-width="1"/>
  <text x="1005.0" y="370" text-anchor="middle" font-size="11" font-weight="700" fill="#a7f3d0">Answer</text>
  <rect x="30" y="445" width="180" height="90" rx="8" fill="rgba(251,191,36,0.15)" stroke="#fbbf24" stroke-width="1.3"/>
  <text x="44" y="468" font-size="13" font-weight="700" fill="#fde68a">④ Best-of-N + Verifier</text>
  <text x="44" y="488" font-size="11" fill="#fbbf24">N개 생성 → verifier 선택</text>
  <text x="44" y="508" font-size="10" font-family="JetBrains Mono, monospace" fill="#fbbf24">N=5~20 + verifier</text>
  <rect x="230" y="460" width="60" height="40" rx="6" fill="rgba(96,165,250,0.15)" stroke="#60a5fa" stroke-width="1"/>
  <text x="260.0" y="485" text-anchor="middle" font-size="12" font-weight="700" fill="#bfdbfe">Q</text>
  <path d="M 290,480 L 320,480" stroke="#64748b" stroke-width="1.8" fill="none" marker-end="url(#arr)"/>
  <rect x="340" y="428" width="100" height="14" rx="4" fill="rgba(52,211,153,0.15)" stroke="#34d399" stroke-width="0.8"/>
  <text x="390" y="439" text-anchor="middle" font-size="9" font-family="JetBrains Mono, monospace" fill="#a7f3d0">LLM[t=1]</text>
  <rect x="340" y="444" width="100" height="14" rx="4" fill="rgba(52,211,153,0.15)" stroke="#34d399" stroke-width="0.8"/>
  <text x="390" y="455" text-anchor="middle" font-size="9" font-family="JetBrains Mono, monospace" fill="#a7f3d0">LLM[t=2]</text>
  <rect x="340" y="460" width="100" height="14" rx="4" fill="rgba(52,211,153,0.15)" stroke="#34d399" stroke-width="0.8"/>
  <text x="390" y="471" text-anchor="middle" font-size="9" font-family="JetBrains Mono, monospace" fill="#a7f3d0">LLM[t=3]</text>
  <rect x="340" y="476" width="100" height="14" rx="4" fill="rgba(52,211,153,0.15)" stroke="#34d399" stroke-width="0.8"/>
  <text x="390" y="487" text-anchor="middle" font-size="9" font-family="JetBrains Mono, monospace" fill="#a7f3d0">LLM[t=4]</text>
  <rect x="340" y="492" width="100" height="14" rx="4" fill="rgba(52,211,153,0.15)" stroke="#34d399" stroke-width="0.8"/>
  <text x="390" y="503" text-anchor="middle" font-size="9" font-family="JetBrains Mono, monospace" fill="#a7f3d0">LLM[t=5]</text>
  <rect x="490" y="455" width="110" height="50" rx="6" fill="rgba(251,191,36,0.15)" stroke="#fbbf24" stroke-width="1.2"/>
  <text x="545" y="475" text-anchor="middle" font-size="11" font-weight="700" fill="#fde68a">Verifier</text>
  <text x="545" y="492" text-anchor="middle" font-size="10" fill="#fbbf24">(score/test)</text>
  <line x1="440" y1="435" x2="490" y2="480" stroke="#64748b" stroke-width="0.8"/>
  <line x1="440" y1="451" x2="490" y2="480" stroke="#64748b" stroke-width="0.8"/>
  <line x1="440" y1="467" x2="490" y2="480" stroke="#64748b" stroke-width="0.8"/>
  <line x1="440" y1="483" x2="490" y2="480" stroke="#64748b" stroke-width="0.8"/>
  <line x1="440" y1="499" x2="490" y2="480" stroke="#64748b" stroke-width="0.8"/>
  <path d="M 600,480 L 940,480" stroke="#34d399" stroke-width="1.5" fill="none" marker-end="url(#arr-output)"/>
  <rect x="748.0" y="453.0" width="44" height="18" rx="4" fill="#0f172a" stroke="#334155" stroke-width="0.8"/>
  <text x="770.0" y="466.0" text-anchor="middle" font-size="11" font-family="JetBrains Mono, monospace" fill="#94a3b8">best</text>
  <rect x="940" y="460" width="130" height="40" rx="6" fill="rgba(52,211,153,0.2)" stroke="#34d399" stroke-width="1"/>
  <text x="1005.0" y="485" text-anchor="middle" font-size="11" font-weight="700" fill="#a7f3d0">Answer</text>
  <rect x="40" y="540" width="1040" height="15" rx="3" fill="#0f172a" stroke="#334155" stroke-width="0.5"/>
</svg>