<svg xmlns="http://www.w3.org/2000/svg" viewBox="0 0 1100 460" font-family="Pretendard, -apple-system, BlinkMacSystemFont, sans-serif">
  <defs>
    <pattern id="grid" width="40" height="40" patternUnits="userSpaceOnUse">
      <path d="M 40 0 L 0 0 0 40" fill="none" stroke="#1e293b" stroke-width="0.5"/>
    </pattern>
    <marker id="arr" markerWidth="10" markerHeight="7" refX="9" refY="3.5" orient="auto"><polygon points="0,0 10,3.5 0,7" fill="#64748b"/></marker>
    <marker id="arr-input" markerWidth="10" markerHeight="7" refX="9" refY="3.5" orient="auto"><polygon points="0,0 10,3.5 0,7" fill="#60a5fa"/></marker>
    <marker id="arr-llm" markerWidth="10" markerHeight="7" refX="9" refY="3.5" orient="auto"><polygon points="0,0 10,3.5 0,7" fill="#fb923c"/></marker>
    <marker id="arr-model" markerWidth="10" markerHeight="7" refX="9" refY="3.5" orient="auto"><polygon points="0,0 10,3.5 0,7" fill="#a78bfa"/></marker>
    <marker id="arr-token" markerWidth="10" markerHeight="7" refX="9" refY="3.5" orient="auto"><polygon points="0,0 10,3.5 0,7" fill="#34d399"/></marker>
    <marker id="arr-output" markerWidth="10" markerHeight="7" refX="9" refY="3.5" orient="auto"><polygon points="0,0 10,3.5 0,7" fill="#34d399"/></marker>
    <marker id="arr-gate" markerWidth="10" markerHeight="7" refX="9" refY="3.5" orient="auto"><polygon points="0,0 10,3.5 0,7" fill="#fbbf24"/></marker>
    <marker id="arr-tool" markerWidth="10" markerHeight="7" refX="9" refY="3.5" orient="auto"><polygon points="0,0 10,3.5 0,7" fill="#22d3ee"/></marker>
    <marker id="arr-memory" markerWidth="10" markerHeight="7" refX="9" refY="3.5" orient="auto"><polygon points="0,0 10,3.5 0,7" fill="#f472b6"/></marker>
    <marker id="arr-error" markerWidth="10" markerHeight="7" refX="9" refY="3.5" orient="auto"><polygon points="0,0 10,3.5 0,7" fill="#f87171"/></marker>
  </defs>
  <rect width="1100" height="460" fill="#020617"/>
  <rect width="1100" height="460" fill="url(#grid)"/>
  <text x="550" y="36" text-anchor="middle" font-size="18" font-weight="700" fill="#f1f5f9">어느 패턴을 쓸까 — 결정 질문</text>
  <text x="550" y="58" text-anchor="middle" font-size="12" fill="#94a3b8">위에서 아래로 질문을 따라가세요. 단순한 것부터 검토.</text>
  <rect x="370" y="90" width="360" height="42" rx="8" fill="rgba(251,191,36,0.15)" stroke="#fbbf24" stroke-width="1.2"/>
  <text x="550.0" y="115.0" text-anchor="middle" font-size="12" font-weight="700" fill="#fde68a">단일 LLM + RAG 로 풀리나?</text>
  <rect x="760" y="90" width="200" height="42" rx="8" fill="rgba(52,211,153,0.2)" stroke="#34d399" stroke-width="1.2"/>
  <text x="860.0" y="115.0" text-anchor="middle" font-size="12" font-weight="700" fill="#a7f3d0">⓪ Baseline 사용</text>
  <path d="M 732,111.0 L 758,111.0" stroke="#34d399" stroke-width="1.5" fill="none" marker-end="url(#arr-output)"/>
  <rect x="726.5" y="84.0" width="37" height="18" rx="4" fill="#0f172a" stroke="#334155" stroke-width="0.8"/>
  <text x="745.0" y="97.0" text-anchor="middle" font-size="11" font-family="JetBrains Mono, monospace" fill="#94a3b8">YES</text>
  <path d="M 550.0,134 L 550.0,132" stroke="#64748b" stroke-width="1.8" fill="none" marker-end="url(#arr)"/>
  <rect x="535.0" y="106.0" width="30" height="18" rx="4" fill="#0f172a" stroke="#334155" stroke-width="0.8"/>
  <text x="550.0" y="119.0" text-anchor="middle" font-size="11" font-family="JetBrains Mono, monospace" fill="#94a3b8">NO</text>
  <rect x="370" y="134" width="360" height="42" rx="8" fill="rgba(251,191,36,0.15)" stroke="#fbbf24" stroke-width="1.2"/>
  <text x="550.0" y="159.0" text-anchor="middle" font-size="12" font-weight="700" fill="#fde68a">입력 유형별 분기만 필요?</text>
  <rect x="760" y="134" width="200" height="42" rx="8" fill="rgba(251,191,36,0.15)" stroke="#fbbf24" stroke-width="1.2"/>
  <text x="860.0" y="159.0" text-anchor="middle" font-size="12" font-weight="700" fill="#fde68a">② Routing</text>
  <path d="M 732,155.0 L 758,155.0" stroke="#34d399" stroke-width="1.5" fill="none" marker-end="url(#arr-output)"/>
  <rect x="726.5" y="128.0" width="37" height="18" rx="4" fill="#0f172a" stroke="#334155" stroke-width="0.8"/>
  <text x="745.0" y="141.0" text-anchor="middle" font-size="11" font-family="JetBrains Mono, monospace" fill="#94a3b8">YES</text>
  <path d="M 550.0,178 L 550.0,176" stroke="#64748b" stroke-width="1.8" fill="none" marker-end="url(#arr)"/>
  <rect x="535.0" y="150.0" width="30" height="18" rx="4" fill="#0f172a" stroke="#334155" stroke-width="0.8"/>
  <text x="550.0" y="163.0" text-anchor="middle" font-size="11" font-family="JetBrains Mono, monospace" fill="#94a3b8">NO</text>
  <rect x="370" y="178" width="360" height="42" rx="8" fill="rgba(251,191,36,0.15)" stroke="#fbbf24" stroke-width="1.2"/>
  <text x="550.0" y="203.0" text-anchor="middle" font-size="12" font-weight="700" fill="#fde68a">단계별 변환 파이프?</text>
  <rect x="760" y="178" width="200" height="42" rx="8" fill="rgba(96,165,250,0.15)" stroke="#60a5fa" stroke-width="1.2"/>
  <text x="860.0" y="203.0" text-anchor="middle" font-size="12" font-weight="700" fill="#bfdbfe">① Prompt Chaining</text>
  <path d="M 732,199.0 L 758,199.0" stroke="#34d399" stroke-width="1.5" fill="none" marker-end="url(#arr-output)"/>
  <rect x="726.5" y="172.0" width="37" height="18" rx="4" fill="#0f172a" stroke="#334155" stroke-width="0.8"/>
  <text x="745.0" y="185.0" text-anchor="middle" font-size="11" font-family="JetBrains Mono, monospace" fill="#94a3b8">YES</text>
  <path d="M 550.0,222 L 550.0,220" stroke="#64748b" stroke-width="1.8" fill="none" marker-end="url(#arr)"/>
  <rect x="535.0" y="194.0" width="30" height="18" rx="4" fill="#0f172a" stroke="#334155" stroke-width="0.8"/>
  <text x="550.0" y="207.0" text-anchor="middle" font-size="11" font-family="JetBrains Mono, monospace" fill="#94a3b8">NO</text>
  <rect x="370" y="222" width="360" height="42" rx="8" fill="rgba(251,191,36,0.15)" stroke="#fbbf24" stroke-width="1.2"/>
  <text x="550.0" y="247.0" text-anchor="middle" font-size="12" font-weight="700" fill="#fde68a">독립 N 호출 후 합침?</text>
  <rect x="760" y="222" width="200" height="42" rx="8" fill="rgba(52,211,153,0.15)" stroke="#34d399" stroke-width="1.2"/>
  <text x="860.0" y="247.0" text-anchor="middle" font-size="12" font-weight="700" fill="#a7f3d0">③ Parallelization</text>
  <path d="M 732,243.0 L 758,243.0" stroke="#34d399" stroke-width="1.5" fill="none" marker-end="url(#arr-output)"/>
  <rect x="726.5" y="216.0" width="37" height="18" rx="4" fill="#0f172a" stroke="#334155" stroke-width="0.8"/>
  <text x="745.0" y="229.0" text-anchor="middle" font-size="11" font-family="JetBrains Mono, monospace" fill="#94a3b8">YES</text>
  <path d="M 550.0,266 L 550.0,264" stroke="#64748b" stroke-width="1.8" fill="none" marker-end="url(#arr)"/>
  <rect x="535.0" y="238.0" width="30" height="18" rx="4" fill="#0f172a" stroke="#334155" stroke-width="0.8"/>
  <text x="550.0" y="251.0" text-anchor="middle" font-size="11" font-family="JetBrains Mono, monospace" fill="#94a3b8">NO</text>
  <rect x="370" y="266" width="360" height="42" rx="8" fill="rgba(251,191,36,0.15)" stroke="#fbbf24" stroke-width="1.2"/>
  <text x="550.0" y="291.0" text-anchor="middle" font-size="12" font-weight="700" fill="#fde68a">생성 → 평가 → 재생성?</text>
  <rect x="760" y="266" width="200" height="42" rx="8" fill="rgba(244,114,182,0.15)" stroke="#f472b6" stroke-width="1.2"/>
  <text x="860.0" y="291.0" text-anchor="middle" font-size="12" font-weight="700" fill="#fbcfe8">⑤ Evaluator-Optimizer</text>
  <path d="M 732,287.0 L 758,287.0" stroke="#34d399" stroke-width="1.5" fill="none" marker-end="url(#arr-output)"/>
  <rect x="726.5" y="260.0" width="37" height="18" rx="4" fill="#0f172a" stroke="#334155" stroke-width="0.8"/>
  <text x="745.0" y="273.0" text-anchor="middle" font-size="11" font-family="JetBrains Mono, monospace" fill="#94a3b8">YES</text>
  <path d="M 550.0,310 L 550.0,308" stroke="#64748b" stroke-width="1.8" fill="none" marker-end="url(#arr)"/>
  <rect x="535.0" y="282.0" width="30" height="18" rx="4" fill="#0f172a" stroke="#334155" stroke-width="0.8"/>
  <text x="550.0" y="295.0" text-anchor="middle" font-size="11" font-family="JetBrains Mono, monospace" fill="#94a3b8">NO</text>
  <rect x="370" y="310" width="360" height="42" rx="8" fill="rgba(251,191,36,0.15)" stroke="#fbbf24" stroke-width="1.2"/>
  <text x="550.0" y="335.0" text-anchor="middle" font-size="12" font-weight="700" fill="#fde68a">플래너가 서브태스크 쪼갬?</text>
  <rect x="760" y="310" width="200" height="42" rx="8" fill="rgba(167,139,250,0.15)" stroke="#a78bfa" stroke-width="1.2"/>
  <text x="860.0" y="335.0" text-anchor="middle" font-size="12" font-weight="700" fill="#ddd6fe">④ Orchestrator-Workers</text>
  <path d="M 732,331.0 L 758,331.0" stroke="#34d399" stroke-width="1.5" fill="none" marker-end="url(#arr-output)"/>
  <rect x="726.5" y="304.0" width="37" height="18" rx="4" fill="#0f172a" stroke="#334155" stroke-width="0.8"/>
  <text x="745.0" y="317.0" text-anchor="middle" font-size="11" font-family="JetBrains Mono, monospace" fill="#94a3b8">YES</text>
  <path d="M 550.0,354 L 550.0,352" stroke="#64748b" stroke-width="1.8" fill="none" marker-end="url(#arr)"/>
  <rect x="535.0" y="326.0" width="30" height="18" rx="4" fill="#0f172a" stroke="#334155" stroke-width="0.8"/>
  <text x="550.0" y="339.0" text-anchor="middle" font-size="11" font-family="JetBrains Mono, monospace" fill="#94a3b8">NO</text>
  <rect x="370" y="354" width="360" height="42" rx="8" fill="rgba(251,191,36,0.15)" stroke="#fbbf24" stroke-width="1.2"/>
  <text x="550.0" y="379.0" text-anchor="middle" font-size="12" font-weight="700" fill="#fde68a">LLM 이 루프 내 툴 선택?</text>
  <rect x="760" y="354" width="200" height="42" rx="8" fill="rgba(251,146,60,0.15)" stroke="#fb923c" stroke-width="1.2"/>
  <text x="860.0" y="379.0" text-anchor="middle" font-size="12" font-weight="700" fill="#fed7aa">⑥ Single Agent</text>
  <path d="M 732,375.0 L 758,375.0" stroke="#34d399" stroke-width="1.5" fill="none" marker-end="url(#arr-output)"/>
  <rect x="726.5" y="348.0" width="37" height="18" rx="4" fill="#0f172a" stroke="#334155" stroke-width="0.8"/>
  <text x="745.0" y="361.0" text-anchor="middle" font-size="11" font-family="JetBrains Mono, monospace" fill="#94a3b8">YES</text>
  <rect x="450.0" y="398" width="200" height="42" rx="8" fill="rgba(251,146,60,0.15)" stroke="#fb923c" stroke-width="1.2"/>
  <text x="550.0" y="423.0" text-anchor="middle" font-size="12" font-weight="700" fill="#fed7aa">⑦ Multi-Agent</text>
  <text x="40" y="120" font-size="11" font-weight="700" fill="#f1f5f9">원칙</text>
  <text x="40" y="140" font-size="11" fill="#cbd5e1">• 위에서 아래로</text>
  <text x="40" y="158" font-size="11" fill="#cbd5e1">• 가장 단순한 답 먼저</text>
  <text x="40" y="176" font-size="11" fill="#cbd5e1">• ⓪ 에서 멈추는 게</text>
  <text x="40" y="194" font-size="11" fill="#cbd5e1">• 80% 의 경우</text>
  <text x="40" y="212" font-size="11" fill="#cbd5e1">• 정답</text>
</svg>