<svg xmlns="http://www.w3.org/2000/svg" viewBox="0 0 1160 440" font-family="Pretendard, -apple-system, BlinkMacSystemFont, sans-serif">
  <defs>
    <pattern id="grid" width="40" height="40" patternUnits="userSpaceOnUse">
      <path d="M 40 0 L 0 0 0 40" fill="none" stroke="#1e293b" stroke-width="0.5"/>
    </pattern>
    <marker id="arr" markerWidth="10" markerHeight="7" refX="9" refY="3.5" orient="auto"><polygon points="0,0 10,3.5 0,7" fill="#64748b"/></marker>
    <marker id="arr-input" markerWidth="10" markerHeight="7" refX="9" refY="3.5" orient="auto"><polygon points="0,0 10,3.5 0,7" fill="#60a5fa"/></marker>
    <marker id="arr-llm" markerWidth="10" markerHeight="7" refX="9" refY="3.5" orient="auto"><polygon points="0,0 10,3.5 0,7" fill="#fb923c"/></marker>
    <marker id="arr-model" markerWidth="10" markerHeight="7" refX="9" refY="3.5" orient="auto"><polygon points="0,0 10,3.5 0,7" fill="#a78bfa"/></marker>
    <marker id="arr-token" markerWidth="10" markerHeight="7" refX="9" refY="3.5" orient="auto"><polygon points="0,0 10,3.5 0,7" fill="#34d399"/></marker>
    <marker id="arr-output" markerWidth="10" markerHeight="7" refX="9" refY="3.5" orient="auto"><polygon points="0,0 10,3.5 0,7" fill="#34d399"/></marker>
    <marker id="arr-gate" markerWidth="10" markerHeight="7" refX="9" refY="3.5" orient="auto"><polygon points="0,0 10,3.5 0,7" fill="#fbbf24"/></marker>
    <marker id="arr-tool" markerWidth="10" markerHeight="7" refX="9" refY="3.5" orient="auto"><polygon points="0,0 10,3.5 0,7" fill="#22d3ee"/></marker>
    <marker id="arr-memory" markerWidth="10" markerHeight="7" refX="9" refY="3.5" orient="auto"><polygon points="0,0 10,3.5 0,7" fill="#f472b6"/></marker>
    <marker id="arr-error" markerWidth="10" markerHeight="7" refX="9" refY="3.5" orient="auto"><polygon points="0,0 10,3.5 0,7" fill="#f87171"/></marker>
  </defs>
  <rect width="1160" height="440" fill="#020617"/>
  <rect width="1160" height="440" fill="url(#grid)"/>
  <text x="580" y="36" text-anchor="middle" font-size="18" font-weight="700" fill="#f1f5f9">Interrupt · Checkpoint · Resume — 인간 게이트 패턴</text>
  <text x="580" y="58" text-anchor="middle" font-size="12" fill="#94a3b8">Agent 를 일시 중지, 상태 저장, 외부 이벤트로 재개. LangGraph 의 킬러 기능.</text>
  <rect x="50" y="150" width="140" height="95" rx="10" fill="#0f172a"/>
  <rect x="50" y="150" width="140" height="95" rx="10" fill="rgba(96,165,250,0.15)" stroke="#60a5fa" stroke-width="1.5"/>
  <text x="120.0" y="174" text-anchor="middle" font-size="12" font-weight="700" fill="#bfdbfe">user 요청</text>
  <text x="120.0" y="230" text-anchor="middle" font-size="10" font-family="JetBrains Mono, monospace" fill="#60a5fa">"환불해줘"</text>
  <rect x="230" y="150" width="140" height="95" rx="10" fill="#0f172a"/>
  <rect x="230" y="150" width="140" height="95" rx="10" fill="rgba(167,139,250,0.15)" stroke="#a78bfa" stroke-width="1.5"/>
  <circle cx="300.0" cy="168" r="13" fill="#a78bfa"/>
  <text x="300.0" y="173" text-anchor="middle" font-size="12" font-weight="700" fill="#ffffff" font-family="JetBrains Mono, monospace">1</text>
  <text x="300.0" y="196" text-anchor="middle" font-size="12" font-weight="700" fill="#ddd6fe">LLM</text>
  <text x="300.0" y="223" text-anchor="middle" font-size="10" font-family="JetBrains Mono, monospace" fill="#a78bfa">의도 분류</text>
  <text x="300.0" y="237" text-anchor="middle" font-size="10" font-family="JetBrains Mono, monospace" fill="#a78bfa">→ refund</text>
  <rect x="420" y="150" width="140" height="95" rx="10" fill="#0f172a"/>
  <rect x="420" y="150" width="140" height="95" rx="10" fill="rgba(251,191,36,0.15)" stroke="#fbbf24" stroke-width="1.5"/>
  <circle cx="490.0" cy="168" r="13" fill="#fbbf24"/>
  <text x="490.0" y="173" text-anchor="middle" font-size="12" font-weight="700" fill="#ffffff" font-family="JetBrains Mono, monospace">2</text>
  <text x="490.0" y="196" text-anchor="middle" font-size="12" font-weight="700" fill="#fde68a">refund_check</text>
  <text x="490.0" y="210" text-anchor="middle" font-size="12" font-weight="700" fill="#fde68a">node</text>
  <text x="490.0" y="223" text-anchor="middle" font-size="10" font-family="JetBrains Mono, monospace" fill="#fbbf24">risky →</text>
  <text x="490.0" y="237" text-anchor="middle" font-size="10" font-family="JetBrains Mono, monospace" fill="#fbbf24">interrupt()</text>
  <rect x="620" y="150" width="140" height="95" rx="10" fill="#0f172a"/>
  <rect x="620" y="150" width="140" height="95" rx="10" fill="rgba(244,114,182,0.15)" stroke="#f472b6" stroke-width="1.5"/>
  <circle cx="690.0" cy="168" r="13" fill="#f472b6"/>
  <text x="690.0" y="173" text-anchor="middle" font-size="12" font-weight="700" fill="#ffffff" font-family="JetBrains Mono, monospace">3</text>
  <text x="690.0" y="196" text-anchor="middle" font-size="12" font-weight="700" fill="#fbcfe8">Checkpoint</text>
  <text x="690.0" y="223" text-anchor="middle" font-size="10" font-family="JetBrains Mono, monospace" fill="#f472b6">state 저장</text>
  <text x="690.0" y="237" text-anchor="middle" font-size="10" font-family="JetBrains Mono, monospace" fill="#f472b6">thread_id=abc</text>
  <rect x="810" y="150" width="140" height="95" rx="10" fill="#0f172a"/>
  <rect x="810" y="150" width="140" height="95" rx="10" fill="rgba(244,114,182,0.15)" stroke="#f472b6" stroke-width="1.5"/>
  <text x="880.0" y="174" text-anchor="middle" font-size="12" font-weight="700" fill="#fbcfe8">Human</text>
  <text x="880.0" y="188" text-anchor="middle" font-size="12" font-weight="700" fill="#fbcfe8">승인</text>
  <text x="880.0" y="223" text-anchor="middle" font-size="10" font-family="JetBrains Mono, monospace" fill="#f472b6">Slack · 대시보드</text>
  <text x="880.0" y="237" text-anchor="middle" font-size="10" font-family="JetBrains Mono, monospace" fill="#f472b6">승인 버튼</text>
  <rect x="990" y="150" width="140" height="95" rx="10" fill="#0f172a"/>
  <rect x="990" y="150" width="140" height="95" rx="10" fill="rgba(52,211,153,0.2)" stroke="#34d399" stroke-width="1.5"/>
  <circle cx="1060.0" cy="168" r="13" fill="#34d399"/>
  <text x="1060.0" y="173" text-anchor="middle" font-size="12" font-weight="700" fill="#ffffff" font-family="JetBrains Mono, monospace">4</text>
  <text x="1060.0" y="196" text-anchor="middle" font-size="12" font-weight="700" fill="#a7f3d0">Resume</text>
  <text x="1060.0" y="223" text-anchor="middle" font-size="10" font-family="JetBrains Mono, monospace" fill="#34d399">invoke(thread=</text>
  <text x="1060.0" y="237" text-anchor="middle" font-size="10" font-family="JetBrains Mono, monospace" fill="#34d399"> abc) 재개</text>
  <path d="M 192,197.5 L 228,197.5" stroke="#64748b" stroke-width="1.8" fill="none" marker-end="url(#arr)"/>
  <path d="M 372,197.5 L 418,197.5" stroke="#64748b" stroke-width="1.8" fill="none" marker-end="url(#arr)"/>
  <path d="M 562,197.5 L 618,197.5" stroke="#f87171" stroke-width="1.8" fill="none" marker-end="url(#arr-error)"/>
  <rect x="564.5" y="170.5" width="51" height="18" rx="4" fill="#0f172a" stroke="#334155" stroke-width="0.8"/>
  <text x="590.0" y="183.5" text-anchor="middle" font-size="11" font-family="JetBrains Mono, monospace" fill="#94a3b8">pause</text>
  <path d="M 762,197.5 L 808,197.5" stroke="#64748b" stroke-width="1.8" fill="none" marker-end="url(#arr)"/>
  <path d="M 952,197.5 L 988,197.5" stroke="#64748b" stroke-width="1.8" fill="none" marker-end="url(#arr)"/>
  <ellipse cx="690.0" cy="285" rx="25" ry="8" fill="#f472b6"/>
  <rect x="665.0" y="277" width="50" height="20" fill="#f472b6"/>
  <ellipse cx="690.0" cy="297" rx="25" ry="8" fill="#f472b6"/>
  <text x="690.0" y="325" text-anchor="middle" font-size="10" font-family="JetBrains Mono, monospace" fill="#f472b6">SqliteSaver</text>
  <text x="690.0" y="339" text-anchor="middle" font-size="10" font-family="JetBrains Mono, monospace" fill="#f472b6">PostgresSaver</text>
  <line x1="690.0" y1="250" x2="690.0" y2="275" stroke="#f472b6" stroke-width="1.5" stroke-dasharray="3,2"/>
  <line x1="40" y1="345" x2="1120" y2="345" stroke="#94a3b8" stroke-width="1.5" marker-end="url(#arr)"/>
  <text x="40" y="360" font-size="10" fill="#cbd5e1" font-family="JetBrains Mono, monospace">t₀</text>
  <text x="1120" y="360" text-anchor="end" font-size="10" fill="#cbd5e1" font-family="JetBrains Mono, monospace">시간</text>
</svg>