<svg xmlns="http://www.w3.org/2000/svg" viewBox="0 0 1080 480" font-family="Pretendard, -apple-system, BlinkMacSystemFont, sans-serif">
  <defs>
    <pattern id="grid" width="40" height="40" patternUnits="userSpaceOnUse">
      <path d="M 40 0 L 0 0 0 40" fill="none" stroke="#f1f5f9" stroke-width="0.5"/>
    </pattern>
    <marker id="arr" markerWidth="10" markerHeight="7" refX="9" refY="3.5" orient="auto"><polygon points="0,0 10,3.5 0,7" fill="#6b7280"/></marker>
    <marker id="arr-input" markerWidth="10" markerHeight="7" refX="9" refY="3.5" orient="auto"><polygon points="0,0 10,3.5 0,7" fill="#2563eb"/></marker>
    <marker id="arr-llm" markerWidth="10" markerHeight="7" refX="9" refY="3.5" orient="auto"><polygon points="0,0 10,3.5 0,7" fill="#ea580c"/></marker>
    <marker id="arr-model" markerWidth="10" markerHeight="7" refX="9" refY="3.5" orient="auto"><polygon points="0,0 10,3.5 0,7" fill="#7c3aed"/></marker>
    <marker id="arr-token" markerWidth="10" markerHeight="7" refX="9" refY="3.5" orient="auto"><polygon points="0,0 10,3.5 0,7" fill="#059669"/></marker>
    <marker id="arr-output" markerWidth="10" markerHeight="7" refX="9" refY="3.5" orient="auto"><polygon points="0,0 10,3.5 0,7" fill="#059669"/></marker>
    <marker id="arr-gate" markerWidth="10" markerHeight="7" refX="9" refY="3.5" orient="auto"><polygon points="0,0 10,3.5 0,7" fill="#ca8a04"/></marker>
    <marker id="arr-tool" markerWidth="10" markerHeight="7" refX="9" refY="3.5" orient="auto"><polygon points="0,0 10,3.5 0,7" fill="#0891b2"/></marker>
    <marker id="arr-memory" markerWidth="10" markerHeight="7" refX="9" refY="3.5" orient="auto"><polygon points="0,0 10,3.5 0,7" fill="#db2777"/></marker>
    <marker id="arr-error" markerWidth="10" markerHeight="7" refX="9" refY="3.5" orient="auto"><polygon points="0,0 10,3.5 0,7" fill="#dc2626"/></marker>
  </defs>
  <rect width="1080" height="480" fill="#ffffff"/>
  <rect width="1080" height="480" fill="url(#grid)"/>
  <text x="540" y="36" text-anchor="middle" font-size="18" font-weight="700" fill="#0f172a">LangGraph 메모리 — Thread 와 Store 2계층</text>
  <text x="540" y="58" text-anchor="middle" font-size="12" fill="#64748b">Thread = 한 대화 내부. Store = 여러 대화를 가로지르는 영구 기억.</text>
  <rect x="40" y="90" width="490" height="340" rx="12" fill="rgba(124,58,237,0.04)" stroke="#7c3aed" stroke-width="1" stroke-dasharray="5,3"/>
  <text x="52" y="108" font-size="10" font-weight="700" fill="#7c3aed" font-family="JetBrains Mono, monospace">THREAD · 세션 내 (working memory)</text>
  <rect x="70" y="140" width="430" height="60" rx="8" fill="#f3e8ff" stroke="#7c3aed" stroke-width="1"/>
  <text x="90" y="164" font-size="12" font-weight="700" fill="#4c1d95" font-family="JetBrains Mono, monospace">turn 1</text>
  <text x="90" y="184" font-size="11" fill="#6d28d9">state · messages · tool calls</text>
  <rect x="70" y="220" width="430" height="60" rx="8" fill="#f3e8ff" stroke="#7c3aed" stroke-width="1"/>
  <text x="90" y="244" font-size="12" font-weight="700" fill="#4c1d95" font-family="JetBrains Mono, monospace">turn 2</text>
  <text x="90" y="264" font-size="11" fill="#6d28d9">state · messages · tool calls</text>
  <rect x="70" y="300" width="430" height="60" rx="8" fill="#f3e8ff" stroke="#7c3aed" stroke-width="1"/>
  <text x="90" y="324" font-size="12" font-weight="700" fill="#4c1d95" font-family="JetBrains Mono, monospace">turn 3</text>
  <text x="90" y="344" font-size="11" fill="#6d28d9">state · messages · tool calls</text>
  <path d="M 285.0,200 L 285.0,220" stroke="#6b7280" stroke-width="1.8" fill="none" marker-end="url(#arr)"/>
  <path d="M 285.0,280 L 285.0,300" stroke="#6b7280" stroke-width="1.8" fill="none" marker-end="url(#arr)"/>
  <text x="285.0" y="408" text-anchor="middle" font-size="11" font-family="JetBrains Mono, monospace" fill="#6d28d9">thread_id="user42:session-2026-04-19"</text>
  <text x="285.0" y="424" text-anchor="middle" font-size="10" fill="#334155">세션 끝나면 store 로 압축 · 이관</text>
  <rect x="550" y="90" width="490" height="340" rx="12" fill="rgba(219,39,119,0.04)" stroke="#db2777" stroke-width="1" stroke-dasharray="5,3"/>
  <text x="562" y="108" font-size="10" font-weight="700" fill="#db2777" font-family="JetBrains Mono, monospace">STORE · 세션 간 (long-term)</text>
  <rect x="580" y="140" width="430" height="62" rx="8" fill="#fce7f3" stroke="#db2777" stroke-width="1"/>
  <text x="600" y="162" font-size="12" font-weight="700" fill="#500724" font-family="JetBrains Mono, monospace">user_profile</text>
  <rect x="930" y="150" width="72" height="16" rx="8" fill="#db2777"/>
  <text x="966" y="162" text-anchor="middle" font-size="9" font-weight="700" fill="#ffffff" font-family="JetBrains Mono, monospace">semantic</text>
  <text x="600" y="182" font-size="11" fill="#be185d" font-family="JetBrains Mono, monospace">{"lang": "ko", "tier": "premium"}</text>
  <rect x="580" y="218" width="430" height="62" rx="8" fill="#fce7f3" stroke="#db2777" stroke-width="1"/>
  <text x="600" y="240" font-size="12" font-weight="700" fill="#500724" font-family="JetBrains Mono, monospace">past_orders</text>
  <rect x="930" y="228" width="72" height="16" rx="8" fill="#db2777"/>
  <text x="966" y="240" text-anchor="middle" font-size="9" font-weight="700" fill="#ffffff" font-family="JetBrains Mono, monospace">episodic</text>
  <text x="600" y="260" font-size="11" fill="#be185d" font-family="JetBrains Mono, monospace">O-1024 (환불), O-0991 (배송 지연)</text>
  <rect x="580" y="296" width="430" height="62" rx="8" fill="#fce7f3" stroke="#db2777" stroke-width="1"/>
  <text x="600" y="318" font-size="12" font-weight="700" fill="#500724" font-family="JetBrains Mono, monospace">preferences</text>
  <rect x="930" y="306" width="72" height="16" rx="8" fill="#db2777"/>
  <text x="966" y="318" text-anchor="middle" font-size="9" font-weight="700" fill="#ffffff" font-family="JetBrains Mono, monospace">semantic</text>
  <text x="600" y="338" font-size="11" fill="#be185d" font-family="JetBrains Mono, monospace">{"tone": "formal", "reply_length": "short"}</text>
  <text x="795.0" y="408" text-anchor="middle" font-size="11" font-family="JetBrains Mono, monospace" fill="#be185d">namespace=("user", "42")</text>
  <text x="795.0" y="424" text-anchor="middle" font-size="10" fill="#334155">새 세션에서도 같은 user 면 동일 store 공유</text>
  <path d="M 535,260.0 L 545,260.0" stroke="#059669" stroke-width="1.5" fill="none" marker-end="url(#arr-token)" stroke-dasharray="5,3"/>
  <rect x="497.0" y="233.0" width="86" height="18" rx="4" fill="#ffffff" stroke="#e5e7eb" stroke-width="0.8"/>
  <text x="540.0" y="246.0" text-anchor="middle" font-size="11" font-family="JetBrains Mono, monospace" fill="#475569">세션 종료 시 추출</text>
  <rect x="40" y="460" width="1000" height="50" rx="6" fill="#f8fafc" stroke="#e2e8f0" stroke-width="1"/>
  <text x="540.0" y="480" text-anchor="middle" font-size="12" fill="#334155">Thread = short-term (세션 working) · Store = long-term (user 프로필·과거 이벤트)</text>
  <text x="540.0" y="498" text-anchor="middle" font-size="11" fill="#64748b">"사용자 선호 추출 → store 저장 → 다음 세션 시작 시 로드" 가 기본 패턴</text>
</svg>