<svg xmlns="http://www.w3.org/2000/svg" viewBox="0 0 1080 480" font-family="Pretendard, -apple-system, BlinkMacSystemFont, sans-serif">
  <defs>
    <pattern id="grid" width="40" height="40" patternUnits="userSpaceOnUse">
      <path d="M 40 0 L 0 0 0 40" fill="none" stroke="#1e293b" stroke-width="0.5"/>
    </pattern>
    <marker id="arr" markerWidth="10" markerHeight="7" refX="9" refY="3.5" orient="auto"><polygon points="0,0 10,3.5 0,7" fill="#64748b"/></marker>
    <marker id="arr-input" markerWidth="10" markerHeight="7" refX="9" refY="3.5" orient="auto"><polygon points="0,0 10,3.5 0,7" fill="#60a5fa"/></marker>
    <marker id="arr-llm" markerWidth="10" markerHeight="7" refX="9" refY="3.5" orient="auto"><polygon points="0,0 10,3.5 0,7" fill="#fb923c"/></marker>
    <marker id="arr-model" markerWidth="10" markerHeight="7" refX="9" refY="3.5" orient="auto"><polygon points="0,0 10,3.5 0,7" fill="#a78bfa"/></marker>
    <marker id="arr-token" markerWidth="10" markerHeight="7" refX="9" refY="3.5" orient="auto"><polygon points="0,0 10,3.5 0,7" fill="#34d399"/></marker>
    <marker id="arr-output" markerWidth="10" markerHeight="7" refX="9" refY="3.5" orient="auto"><polygon points="0,0 10,3.5 0,7" fill="#34d399"/></marker>
    <marker id="arr-gate" markerWidth="10" markerHeight="7" refX="9" refY="3.5" orient="auto"><polygon points="0,0 10,3.5 0,7" fill="#fbbf24"/></marker>
    <marker id="arr-tool" markerWidth="10" markerHeight="7" refX="9" refY="3.5" orient="auto"><polygon points="0,0 10,3.5 0,7" fill="#22d3ee"/></marker>
    <marker id="arr-memory" markerWidth="10" markerHeight="7" refX="9" refY="3.5" orient="auto"><polygon points="0,0 10,3.5 0,7" fill="#f472b6"/></marker>
    <marker id="arr-error" markerWidth="10" markerHeight="7" refX="9" refY="3.5" orient="auto"><polygon points="0,0 10,3.5 0,7" fill="#f87171"/></marker>
  </defs>
  <rect width="1080" height="480" fill="#020617"/>
  <rect width="1080" height="480" fill="url(#grid)"/>
  <text x="540" y="36" text-anchor="middle" font-size="18" font-weight="700" fill="#f1f5f9">LangGraph 메모리 — Thread 와 Store 2계층</text>
  <text x="540" y="58" text-anchor="middle" font-size="12" fill="#94a3b8">Thread = 한 대화 내부. Store = 여러 대화를 가로지르는 영구 기억.</text>
  <rect x="40" y="90" width="490" height="340" rx="12" fill="rgba(167,139,250,0.05)" stroke="#a78bfa" stroke-width="1" stroke-dasharray="5,3"/>
  <text x="52" y="108" font-size="10" font-weight="700" fill="#a78bfa" font-family="JetBrains Mono, monospace">THREAD · 세션 내 (working memory)</text>
  <rect x="70" y="140" width="430" height="60" rx="8" fill="rgba(167,139,250,0.15)" stroke="#a78bfa" stroke-width="1"/>
  <text x="90" y="164" font-size="12" font-weight="700" fill="#ddd6fe" font-family="JetBrains Mono, monospace">turn 1</text>
  <text x="90" y="184" font-size="11" fill="#a78bfa">state · messages · tool calls</text>
  <rect x="70" y="220" width="430" height="60" rx="8" fill="rgba(167,139,250,0.15)" stroke="#a78bfa" stroke-width="1"/>
  <text x="90" y="244" font-size="12" font-weight="700" fill="#ddd6fe" font-family="JetBrains Mono, monospace">turn 2</text>
  <text x="90" y="264" font-size="11" fill="#a78bfa">state · messages · tool calls</text>
  <rect x="70" y="300" width="430" height="60" rx="8" fill="rgba(167,139,250,0.15)" stroke="#a78bfa" stroke-width="1"/>
  <text x="90" y="324" font-size="12" font-weight="700" fill="#ddd6fe" font-family="JetBrains Mono, monospace">turn 3</text>
  <text x="90" y="344" font-size="11" fill="#a78bfa">state · messages · tool calls</text>
  <path d="M 285.0,200 L 285.0,220" stroke="#64748b" stroke-width="1.8" fill="none" marker-end="url(#arr)"/>
  <path d="M 285.0,280 L 285.0,300" stroke="#64748b" stroke-width="1.8" fill="none" marker-end="url(#arr)"/>
  <text x="285.0" y="408" text-anchor="middle" font-size="11" font-family="JetBrains Mono, monospace" fill="#a78bfa">thread_id="user42:session-2026-04-19"</text>
  <text x="285.0" y="424" text-anchor="middle" font-size="10" fill="#cbd5e1">세션 끝나면 store 로 압축 · 이관</text>
  <rect x="550" y="90" width="490" height="340" rx="12" fill="rgba(244,114,182,0.05)" stroke="#f472b6" stroke-width="1" stroke-dasharray="5,3"/>
  <text x="562" y="108" font-size="10" font-weight="700" fill="#f472b6" font-family="JetBrains Mono, monospace">STORE · 세션 간 (long-term)</text>
  <rect x="580" y="140" width="430" height="62" rx="8" fill="rgba(244,114,182,0.15)" stroke="#f472b6" stroke-width="1"/>
  <text x="600" y="162" font-size="12" font-weight="700" fill="#fbcfe8" font-family="JetBrains Mono, monospace">user_profile</text>
  <rect x="930" y="150" width="72" height="16" rx="8" fill="#f472b6"/>
  <text x="966" y="162" text-anchor="middle" font-size="9" font-weight="700" fill="#ffffff" font-family="JetBrains Mono, monospace">semantic</text>
  <text x="600" y="182" font-size="11" fill="#f472b6" font-family="JetBrains Mono, monospace">{"lang": "ko", "tier": "premium"}</text>
  <rect x="580" y="218" width="430" height="62" rx="8" fill="rgba(244,114,182,0.15)" stroke="#f472b6" stroke-width="1"/>
  <text x="600" y="240" font-size="12" font-weight="700" fill="#fbcfe8" font-family="JetBrains Mono, monospace">past_orders</text>
  <rect x="930" y="228" width="72" height="16" rx="8" fill="#f472b6"/>
  <text x="966" y="240" text-anchor="middle" font-size="9" font-weight="700" fill="#ffffff" font-family="JetBrains Mono, monospace">episodic</text>
  <text x="600" y="260" font-size="11" fill="#f472b6" font-family="JetBrains Mono, monospace">O-1024 (환불), O-0991 (배송 지연)</text>
  <rect x="580" y="296" width="430" height="62" rx="8" fill="rgba(244,114,182,0.15)" stroke="#f472b6" stroke-width="1"/>
  <text x="600" y="318" font-size="12" font-weight="700" fill="#fbcfe8" font-family="JetBrains Mono, monospace">preferences</text>
  <rect x="930" y="306" width="72" height="16" rx="8" fill="#f472b6"/>
  <text x="966" y="318" text-anchor="middle" font-size="9" font-weight="700" fill="#ffffff" font-family="JetBrains Mono, monospace">semantic</text>
  <text x="600" y="338" font-size="11" fill="#f472b6" font-family="JetBrains Mono, monospace">{"tone": "formal", "reply_length": "short"}</text>
  <text x="795.0" y="408" text-anchor="middle" font-size="11" font-family="JetBrains Mono, monospace" fill="#f472b6">namespace=("user", "42")</text>
  <text x="795.0" y="424" text-anchor="middle" font-size="10" fill="#cbd5e1">새 세션에서도 같은 user 면 동일 store 공유</text>
  <path d="M 535,260.0 L 545,260.0" stroke="#34d399" stroke-width="1.5" fill="none" marker-end="url(#arr-token)" stroke-dasharray="5,3"/>
  <rect x="497.0" y="233.0" width="86" height="18" rx="4" fill="#0f172a" stroke="#334155" stroke-width="0.8"/>
  <text x="540.0" y="246.0" text-anchor="middle" font-size="11" font-family="JetBrains Mono, monospace" fill="#94a3b8">세션 종료 시 추출</text>
  <rect x="40" y="460" width="1000" height="50" rx="6" fill="#0f172a" stroke="#334155" stroke-width="1"/>
  <text x="540.0" y="480" text-anchor="middle" font-size="12" fill="#cbd5e1">Thread = short-term (세션 working) · Store = long-term (user 프로필·과거 이벤트)</text>
  <text x="540.0" y="498" text-anchor="middle" font-size="11" fill="#94a3b8">"사용자 선호 추출 → store 저장 → 다음 세션 시작 시 로드" 가 기본 패턴</text>
</svg>