<svg xmlns="http://www.w3.org/2000/svg" viewBox="0 0 1160 500" font-family="Pretendard, -apple-system, BlinkMacSystemFont, sans-serif">
  <defs>
    <pattern id="grid" width="40" height="40" patternUnits="userSpaceOnUse">
      <path d="M 40 0 L 0 0 0 40" fill="none" stroke="#1e293b" stroke-width="0.5"/>
    </pattern>
    <marker id="arr" markerWidth="10" markerHeight="7" refX="9" refY="3.5" orient="auto"><polygon points="0,0 10,3.5 0,7" fill="#64748b"/></marker>
    <marker id="arr-input" markerWidth="10" markerHeight="7" refX="9" refY="3.5" orient="auto"><polygon points="0,0 10,3.5 0,7" fill="#60a5fa"/></marker>
    <marker id="arr-llm" markerWidth="10" markerHeight="7" refX="9" refY="3.5" orient="auto"><polygon points="0,0 10,3.5 0,7" fill="#fb923c"/></marker>
    <marker id="arr-model" markerWidth="10" markerHeight="7" refX="9" refY="3.5" orient="auto"><polygon points="0,0 10,3.5 0,7" fill="#a78bfa"/></marker>
    <marker id="arr-token" markerWidth="10" markerHeight="7" refX="9" refY="3.5" orient="auto"><polygon points="0,0 10,3.5 0,7" fill="#34d399"/></marker>
    <marker id="arr-output" markerWidth="10" markerHeight="7" refX="9" refY="3.5" orient="auto"><polygon points="0,0 10,3.5 0,7" fill="#34d399"/></marker>
    <marker id="arr-gate" markerWidth="10" markerHeight="7" refX="9" refY="3.5" orient="auto"><polygon points="0,0 10,3.5 0,7" fill="#fbbf24"/></marker>
    <marker id="arr-tool" markerWidth="10" markerHeight="7" refX="9" refY="3.5" orient="auto"><polygon points="0,0 10,3.5 0,7" fill="#22d3ee"/></marker>
    <marker id="arr-memory" markerWidth="10" markerHeight="7" refX="9" refY="3.5" orient="auto"><polygon points="0,0 10,3.5 0,7" fill="#f472b6"/></marker>
    <marker id="arr-error" markerWidth="10" markerHeight="7" refX="9" refY="3.5" orient="auto"><polygon points="0,0 10,3.5 0,7" fill="#f87171"/></marker>
  </defs>
  <rect width="1160" height="500" fill="#020617"/>
  <rect width="1160" height="500" fill="url(#grid)"/>
  <text x="580" y="36" text-anchor="middle" font-size="18" font-weight="700" fill="#f1f5f9">Multi-Agent 2패턴 — Manager vs Decentralized</text>
  <text x="580" y="58" text-anchor="middle" font-size="12" fill="#94a3b8">중앙이 지시하냐(Manager) / 동료끼리 넘기냐(Decentralized). 트레이드오프 다름.</text>
  <rect x="60" y="90" width="500" height="360" rx="12" fill="rgba(167,139,250,0.05)" stroke="#a78bfa" stroke-width="1" stroke-dasharray="4,3"/>
  <text x="72" y="108" font-size="10" font-weight="700" fill="#a78bfa" font-family="JetBrains Mono, monospace">MANAGER · 중앙 지시</text>
  <rect x="600" y="90" width="500" height="360" rx="12" fill="rgba(251,146,60,0.05)" stroke="#fb923c" stroke-width="1" stroke-dasharray="4,3"/>
  <text x="612" y="108" font-size="10" font-weight="700" fill="#fb923c" font-family="JetBrains Mono, monospace">DECENTRALIZED · 피어 핸드오프</text>
  <rect x="260" y="150" width="100" height="50" rx="10" fill="#0f172a"/>
  <rect x="260" y="150" width="100" height="50" rx="10" fill="rgba(167,139,250,0.15)" stroke="#a78bfa" stroke-width="1.5"/>
  <text x="310.0" y="171.0" text-anchor="middle" font-size="14" font-weight="700" fill="#ddd6fe">Manager</text>
  <text x="310.0" y="187.0" text-anchor="middle" font-size="11" font-family="JetBrains Mono, monospace" fill="#a78bfa">계획·합치기</text>
  <rect x="140" y="280" width="100" height="50" rx="10" fill="#0f172a"/>
  <rect x="140" y="280" width="100" height="50" rx="10" fill="rgba(34,211,238,0.15)" stroke="#22d3ee" stroke-width="1.5"/>
  <text x="190.0" y="301.0" text-anchor="middle" font-size="14" font-weight="700" fill="#a5f3fc">Researcher</text>
  <text x="190.0" y="317.0" text-anchor="middle" font-size="11" font-family="JetBrains Mono, monospace" fill="#22d3ee">worker</text>
  <rect x="260" y="280" width="100" height="50" rx="10" fill="#0f172a"/>
  <rect x="260" y="280" width="100" height="50" rx="10" fill="rgba(96,165,250,0.15)" stroke="#60a5fa" stroke-width="1.5"/>
  <text x="310.0" y="301.0" text-anchor="middle" font-size="14" font-weight="700" fill="#bfdbfe">Writer</text>
  <text x="310.0" y="317.0" text-anchor="middle" font-size="11" font-family="JetBrains Mono, monospace" fill="#60a5fa">worker</text>
  <rect x="380" y="280" width="100" height="50" rx="10" fill="#0f172a"/>
  <rect x="380" y="280" width="100" height="50" rx="10" fill="rgba(251,191,36,0.15)" stroke="#fbbf24" stroke-width="1.5"/>
  <text x="430.0" y="301.0" text-anchor="middle" font-size="14" font-weight="700" fill="#fde68a">Critic</text>
  <text x="430.0" y="317.0" text-anchor="middle" font-size="11" font-family="JetBrains Mono, monospace" fill="#fbbf24">worker</text>
  <path d="M 310.0,202 L 190.0,278" stroke="#64748b" stroke-width="1.8" fill="none" marker-end="url(#arr)"/>
  <path d="M 190.0,332 L 310.0,260" stroke="#34d399" stroke-width="1.5" fill="none" marker-end="url(#arr-token)" stroke-dasharray="5,3"/>
  <path d="M 310.0,202 L 310.0,278" stroke="#64748b" stroke-width="1.8" fill="none" marker-end="url(#arr)"/>
  <path d="M 310.0,332 L 310.0,260" stroke="#34d399" stroke-width="1.5" fill="none" marker-end="url(#arr-token)" stroke-dasharray="5,3"/>
  <path d="M 310.0,202 L 430.0,278" stroke="#64748b" stroke-width="1.8" fill="none" marker-end="url(#arr)"/>
  <path d="M 430.0,332 L 310.0,260" stroke="#34d399" stroke-width="1.5" fill="none" marker-end="url(#arr-token)" stroke-dasharray="5,3"/>
  <rect x="260" y="420" width="100" height="50" rx="10" fill="#0f172a"/>
  <rect x="260" y="420" width="100" height="50" rx="10" fill="rgba(52,211,153,0.2)" stroke="#34d399" stroke-width="1.5"/>
  <text x="310.0" y="441.0" text-anchor="middle" font-size="14" font-weight="700" fill="#a7f3d0">응답</text>
  <text x="310.0" y="457.0" text-anchor="middle" font-size="11" font-family="JetBrains Mono, monospace" fill="#34d399">Manager 통합</text>
  <path d="M 310.0,275 L 310.0,418" stroke="#64748b" stroke-width="1.8" fill="none" marker-end="url(#arr)"/>
  <text x="80" y="370" font-size="11" fill="#a78bfa">✓ 디버깅 쉬움 (중앙 로그)</text>
  <text x="80" y="388" font-size="11" fill="#a78bfa">✓ 실패 격리 용이</text>
  <text x="80" y="406" font-size="11" fill="#a78bfa">✗ Manager 병목 (모든 토큰 통과)</text>
  <text x="80" y="424" font-size="11" fill="#a78bfa">✗ 창발적 협업 제한</text>
  <rect x="660" y="220" width="100" height="50" rx="10" fill="#0f172a"/>
  <rect x="660" y="220" width="100" height="50" rx="10" fill="rgba(34,211,238,0.15)" stroke="#22d3ee" stroke-width="1.5"/>
  <text x="710.0" y="241.0" text-anchor="middle" font-size="14" font-weight="700" fill="#a5f3fc">Researcher</text>
  <text x="710.0" y="257.0" text-anchor="middle" font-size="11" font-family="JetBrains Mono, monospace" fill="#22d3ee">peer</text>
  <rect x="790" y="220" width="100" height="50" rx="10" fill="#0f172a"/>
  <rect x="790" y="220" width="100" height="50" rx="10" fill="rgba(96,165,250,0.15)" stroke="#60a5fa" stroke-width="1.5"/>
  <text x="840.0" y="241.0" text-anchor="middle" font-size="14" font-weight="700" fill="#bfdbfe">Writer</text>
  <text x="840.0" y="257.0" text-anchor="middle" font-size="11" font-family="JetBrains Mono, monospace" fill="#60a5fa">peer</text>
  <rect x="920" y="220" width="100" height="50" rx="10" fill="#0f172a"/>
  <rect x="920" y="220" width="100" height="50" rx="10" fill="rgba(251,191,36,0.15)" stroke="#fbbf24" stroke-width="1.5"/>
  <text x="970.0" y="241.0" text-anchor="middle" font-size="14" font-weight="700" fill="#fde68a">Critic</text>
  <text x="970.0" y="257.0" text-anchor="middle" font-size="11" font-family="JetBrains Mono, monospace" fill="#fbbf24">peer</text>
  <path d="M 762,245.0 L 790,245.0" stroke="#64748b" stroke-width="1.8" fill="none" marker-end="url(#arr)"/>
  <rect x="743.5" y="218.0" width="65" height="18" rx="4" fill="#0f172a" stroke="#334155" stroke-width="0.8"/>
  <text x="776.0" y="231.0" text-anchor="middle" font-size="11" font-family="JetBrains Mono, monospace" fill="#94a3b8">handoff</text>
  <path d="M 892,245.0 L 920,245.0" stroke="#64748b" stroke-width="1.8" fill="none" marker-end="url(#arr)"/>
  <rect x="873.5" y="218.0" width="65" height="18" rx="4" fill="#0f172a" stroke="#334155" stroke-width="0.8"/>
  <text x="906.0" y="231.0" text-anchor="middle" font-size="11" font-family="JetBrains Mono, monospace" fill="#94a3b8">handoff</text>
  <path d="M 970.0 272 C 970.0 330, 840.0 330, 840.0 272" stroke="#34d399" stroke-width="1.5" fill="none" marker-end="url(#arr-token)" stroke-dasharray="5,3"/>
  <rect x="876.0" y="333" width="58" height="18" rx="4" fill="#0f172a" stroke="#334155" stroke-width="0.8"/>
  <text x="905.0" y="346" text-anchor="middle" font-size="11" font-family="JetBrains Mono, monospace" fill="#94a3b8">재작성 요청</text>
  <rect x="630" y="400" width="100" height="50" rx="10" fill="#0f172a"/>
  <rect x="630" y="400" width="100" height="50" rx="10" fill="rgba(96,165,250,0.15)" stroke="#60a5fa" stroke-width="1.5"/>
  <text x="680.0" y="421.0" text-anchor="middle" font-size="14" font-weight="700" fill="#bfdbfe">User</text>
  <text x="680.0" y="437.0" text-anchor="middle" font-size="11" font-family="JetBrains Mono, monospace" fill="#60a5fa">요청</text>
  <path d="M 732,425.0 L 690.0,278" stroke="#64748b" stroke-width="1.8" fill="none" marker-end="url(#arr)"/>
  <rect x="970" y="400" width="100" height="50" rx="10" fill="#0f172a"/>
  <rect x="970" y="400" width="100" height="50" rx="10" fill="rgba(52,211,153,0.2)" stroke="#34d399" stroke-width="1.5"/>
  <text x="1020.0" y="421.0" text-anchor="middle" font-size="14" font-weight="700" fill="#a7f3d0">응답</text>
  <text x="1020.0" y="437.0" text-anchor="middle" font-size="11" font-family="JetBrains Mono, monospace" fill="#34d399">Critic 승인 후</text>
  <path d="M 990.0,278 L 1010.0,420.0" stroke="#64748b" stroke-width="1.8" fill="none" marker-end="url(#arr)"/>
  <text x="620" y="370" font-size="11" fill="#fb923c">✓ 각 agent 독립 · 병목 없음</text>
  <text x="620" y="388" font-size="11" fill="#fb923c">✓ 창발적 협업 · 유연</text>
  <text x="620" y="406" font-size="11" fill="#fb923c">✗ 무한 토스 루프 위험</text>
  <text x="620" y="424" font-size="11" fill="#fb923c">✗ 누가 끝낼지 불명확</text>
  <rect x="40" y="460" width="1080" height="32" rx="6" fill="#0f172a" stroke="#334155" stroke-width="1"/>
  <text x="580.0" y="481" text-anchor="middle" font-size="12" fill="#cbd5e1">의심되면 Manager. Decentralized 는 문제에 대한 확신이 있을 때만.</text>
</svg>