<svg xmlns="http://www.w3.org/2000/svg" viewBox="0 0 1240 620" font-family="Pretendard, -apple-system, BlinkMacSystemFont, sans-serif">
  <defs>
    <pattern id="grid" width="40" height="40" patternUnits="userSpaceOnUse">
      <path d="M 40 0 L 0 0 0 40" fill="none" stroke="#1e293b" stroke-width="0.5"/>
    </pattern>
    <marker id="arr" markerWidth="10" markerHeight="7" refX="9" refY="3.5" orient="auto"><polygon points="0,0 10,3.5 0,7" fill="#64748b"/></marker>
    <marker id="arr-input" markerWidth="10" markerHeight="7" refX="9" refY="3.5" orient="auto"><polygon points="0,0 10,3.5 0,7" fill="#60a5fa"/></marker>
    <marker id="arr-llm" markerWidth="10" markerHeight="7" refX="9" refY="3.5" orient="auto"><polygon points="0,0 10,3.5 0,7" fill="#fb923c"/></marker>
    <marker id="arr-model" markerWidth="10" markerHeight="7" refX="9" refY="3.5" orient="auto"><polygon points="0,0 10,3.5 0,7" fill="#a78bfa"/></marker>
    <marker id="arr-token" markerWidth="10" markerHeight="7" refX="9" refY="3.5" orient="auto"><polygon points="0,0 10,3.5 0,7" fill="#34d399"/></marker>
    <marker id="arr-output" markerWidth="10" markerHeight="7" refX="9" refY="3.5" orient="auto"><polygon points="0,0 10,3.5 0,7" fill="#34d399"/></marker>
    <marker id="arr-gate" markerWidth="10" markerHeight="7" refX="9" refY="3.5" orient="auto"><polygon points="0,0 10,3.5 0,7" fill="#fbbf24"/></marker>
    <marker id="arr-tool" markerWidth="10" markerHeight="7" refX="9" refY="3.5" orient="auto"><polygon points="0,0 10,3.5 0,7" fill="#22d3ee"/></marker>
    <marker id="arr-memory" markerWidth="10" markerHeight="7" refX="9" refY="3.5" orient="auto"><polygon points="0,0 10,3.5 0,7" fill="#f472b6"/></marker>
    <marker id="arr-error" markerWidth="10" markerHeight="7" refX="9" refY="3.5" orient="auto"><polygon points="0,0 10,3.5 0,7" fill="#f87171"/></marker>
  </defs>
  <rect width="1240" height="620" fill="#020617"/>
  <rect width="1240" height="620" fill="url(#grid)"/>
  <text x="620" y="36" text-anchor="middle" font-size="18" font-weight="700" fill="#f1f5f9">가드레일 7종 — 입력 4 + 출력 3 의 계층 방어</text>
  <text x="620" y="58" text-anchor="middle" font-size="12" fill="#94a3b8">하나로는 부족하다. 입력·툴 호출·출력 세 위치에 특화된 필터를 배치해 한 곳이 뚫려도 다음이 잡는다.</text>
  <rect x="220" y="100" width="200" height="56" rx="8" fill="rgba(251,191,36,0.15)" stroke="#fbbf24" stroke-width="1.5"/>
  <text x="234" y="124" font-size="13" font-weight="700" fill="#fde68a">① Relevance</text>
  <text x="234" y="144" font-size="11" font-family="JetBrains Mono, monospace" fill="#fbbf24">topic classifier</text>
  <rect x="220" y="170" width="200" height="56" rx="8" fill="rgba(248,113,113,0.15)" stroke="#f87171" stroke-width="1.5"/>
  <text x="234" y="194" font-size="13" font-weight="700" fill="#fecaca">② Safety</text>
  <text x="234" y="214" font-size="11" font-family="JetBrains Mono, monospace" fill="#f87171">jailbreak · injection</text>
  <rect x="220" y="240" width="200" height="56" rx="8" fill="rgba(244,114,182,0.15)" stroke="#f472b6" stroke-width="1.5"/>
  <text x="234" y="264" font-size="13" font-weight="700" fill="#fbcfe8">③ Moderation</text>
  <text x="234" y="284" font-size="11" font-family="JetBrains Mono, monospace" fill="#f472b6">hate · violence</text>
  <rect x="220" y="310" width="200" height="56" rx="8" fill="rgba(52,211,153,0.15)" stroke="#34d399" stroke-width="1.5"/>
  <text x="234" y="334" font-size="13" font-weight="700" fill="#a7f3d0">④ Rules</text>
  <text x="234" y="354" font-size="11" font-family="JetBrains Mono, monospace" fill="#34d399">regex · blocklist</text>
  <rect x="60" y="280" width="130" height="60" rx="10" fill="#0f172a"/>
  <rect x="60" y="280" width="130" height="60" rx="10" fill="rgba(96,165,250,0.15)" stroke="#60a5fa" stroke-width="1.5"/>
  <text x="125.0" y="306.0" text-anchor="middle" font-size="14" font-weight="700" fill="#bfdbfe">User</text>
  <text x="125.0" y="322.0" text-anchor="middle" font-size="11" font-family="JetBrains Mono, monospace" fill="#60a5fa">input</text>
  <rect x="540" y="260" width="160" height="100" rx="14" fill="rgba(251,146,60,0.15)" stroke="#fb923c" stroke-width="2"/>
  <text x="620.0" y="292" text-anchor="middle" font-size="16" font-weight="700" fill="#fed7aa">Agent</text>
  <text x="620.0" y="316" text-anchor="middle" font-size="11" font-family="JetBrains Mono, monospace" fill="#fb923c">LLM + Tools</text>
  <text x="620.0" y="338" text-anchor="middle" font-size="10" fill="#fb923c">루프 · 툴 선택</text>
  <rect x="545" y="180" width="150" height="60" rx="8" fill="rgba(34,211,238,0.15)" stroke="#22d3ee" stroke-width="1.5"/>
  <text x="620.0" y="204" text-anchor="middle" font-size="13" font-weight="700" fill="#a5f3fc">⑤ Tool Safeguard</text>
  <text x="620.0" y="224" text-anchor="middle" font-size="10" font-family="JetBrains Mono, monospace" fill="#22d3ee">low/med/high · 승인</text>
  <path d="M 620.0,242 L 620.0,258" stroke="#fbbf24" stroke-width="1.5" fill="none" marker-end="url(#arr-gate)" stroke-dasharray="3,3"/>
  <rect x="598.0" y="223.0" width="44" height="18" rx="4" fill="#0f172a" stroke="#334155" stroke-width="0.8"/>
  <text x="620.0" y="236.0" text-anchor="middle" font-size="11" font-family="JetBrains Mono, monospace" fill="#94a3b8">gate</text>
  <rect x="730" y="150" width="200" height="56" rx="8" fill="rgba(251,191,36,0.15)" stroke="#fbbf24" stroke-width="1.5"/>
  <text x="744" y="174" font-size="13" font-weight="700" fill="#fde68a">⑥ PII Filter</text>
  <text x="744" y="194" font-size="11" font-family="JetBrains Mono, monospace" fill="#fbbf24">mask · redact</text>
  <rect x="730" y="220" width="200" height="56" rx="8" fill="rgba(248,113,113,0.15)" stroke="#f87171" stroke-width="1.5"/>
  <text x="744" y="244" font-size="13" font-weight="700" fill="#fecaca">⑦ Output Validate</text>
  <text x="744" y="264" font-size="11" font-family="JetBrains Mono, monospace" fill="#f87171">브랜드 · 정책</text>
  <rect x="730" y="290" width="200" height="56" rx="8" fill="rgba(52,211,153,0.2)" stroke="#34d399" stroke-width="1.5"/>
  <text x="744" y="314" font-size="13" font-weight="700" fill="#a7f3d0">✓ Final Response</text>
  <text x="744" y="334" font-size="11" font-family="JetBrains Mono, monospace" fill="#34d399">user-safe</text>
  <rect x="1050" y="280" width="130" height="60" rx="10" fill="#0f172a"/>
  <rect x="1050" y="280" width="130" height="60" rx="10" fill="rgba(52,211,153,0.2)" stroke="#34d399" stroke-width="1.5"/>
  <text x="1115.0" y="306.0" text-anchor="middle" font-size="14" font-weight="700" fill="#a7f3d0">Response</text>
  <text x="1115.0" y="322.0" text-anchor="middle" font-size="11" font-family="JetBrains Mono, monospace" fill="#34d399">to user</text>
  <path d="M 192,310.0 L 218,310.0" stroke="#64748b" stroke-width="1.8" fill="none" marker-end="url(#arr)"/>
  <path d="M 422,310.0 L 538,310.0" stroke="#64748b" stroke-width="1.8" fill="none" marker-end="url(#arr)"/>
  <rect x="451.0" y="283.0" width="58" height="18" rx="4" fill="#0f172a" stroke="#334155" stroke-width="0.8"/>
  <text x="480.0" y="296.0" text-anchor="middle" font-size="11" font-family="JetBrains Mono, monospace" fill="#94a3b8">passed</text>
  <path d="M 702,310.0 L 728,310.0" stroke="#64748b" stroke-width="1.8" fill="none" marker-end="url(#arr)"/>
  <path d="M 932,310.0 L 1048,310.0" stroke="#34d399" stroke-width="1.5" fill="none" marker-end="url(#arr-output)"/>
  <text x="320.0" y="86" text-anchor="middle" font-size="11" font-weight="700" fill="#cbd5e1" font-family="JetBrains Mono, monospace">INPUT GUARDRAILS</text>
  <text x="830.0" y="136" text-anchor="middle" font-size="11" font-weight="700" fill="#cbd5e1" font-family="JetBrains Mono, monospace">OUTPUT GUARDRAILS</text>
  <rect x="40" y="585" width="1160" height="22" rx="4" fill="#0f172a" stroke="#334155" stroke-width="0.8"/>
  <text x="620.0" y="601" text-anchor="middle" font-size="11" fill="#cbd5e1">위반 시 즉시 차단(reject) · 마스킹(transform) · 사람 승인(escalate) 셋 중 하나로 응답한다.</text>
</svg>