<svg xmlns="http://www.w3.org/2000/svg" viewBox="0 0 1180 600" font-family="Pretendard, -apple-system, BlinkMacSystemFont, sans-serif">
  <defs>
    <pattern id="grid" width="40" height="40" patternUnits="userSpaceOnUse">
      <path d="M 40 0 L 0 0 0 40" fill="none" stroke="#f1f5f9" stroke-width="0.5"/>
    </pattern>
    <marker id="arr" markerWidth="10" markerHeight="7" refX="9" refY="3.5" orient="auto"><polygon points="0,0 10,3.5 0,7" fill="#6b7280"/></marker>
    <marker id="arr-input" markerWidth="10" markerHeight="7" refX="9" refY="3.5" orient="auto"><polygon points="0,0 10,3.5 0,7" fill="#2563eb"/></marker>
    <marker id="arr-llm" markerWidth="10" markerHeight="7" refX="9" refY="3.5" orient="auto"><polygon points="0,0 10,3.5 0,7" fill="#ea580c"/></marker>
    <marker id="arr-model" markerWidth="10" markerHeight="7" refX="9" refY="3.5" orient="auto"><polygon points="0,0 10,3.5 0,7" fill="#7c3aed"/></marker>
    <marker id="arr-token" markerWidth="10" markerHeight="7" refX="9" refY="3.5" orient="auto"><polygon points="0,0 10,3.5 0,7" fill="#059669"/></marker>
    <marker id="arr-output" markerWidth="10" markerHeight="7" refX="9" refY="3.5" orient="auto"><polygon points="0,0 10,3.5 0,7" fill="#059669"/></marker>
    <marker id="arr-gate" markerWidth="10" markerHeight="7" refX="9" refY="3.5" orient="auto"><polygon points="0,0 10,3.5 0,7" fill="#ca8a04"/></marker>
    <marker id="arr-tool" markerWidth="10" markerHeight="7" refX="9" refY="3.5" orient="auto"><polygon points="0,0 10,3.5 0,7" fill="#0891b2"/></marker>
    <marker id="arr-memory" markerWidth="10" markerHeight="7" refX="9" refY="3.5" orient="auto"><polygon points="0,0 10,3.5 0,7" fill="#db2777"/></marker>
    <marker id="arr-error" markerWidth="10" markerHeight="7" refX="9" refY="3.5" orient="auto"><polygon points="0,0 10,3.5 0,7" fill="#dc2626"/></marker>
  </defs>
  <rect width="1180" height="600" fill="#ffffff"/>
  <rect width="1180" height="600" fill="url(#grid)"/>
  <text x="590" y="36" text-anchor="middle" font-size="18" font-weight="700" fill="#0f172a">Transformer 블록 — 단순화 해부도</text>
  <text x="590" y="58" text-anchor="middle" font-size="12" fill="#64748b">입력 토큰이 임베딩 → N개 블록(self-attention + FFN) → 다음 토큰 분포로 변환된다.</text>
  <rect x="60" y="110" width="160" height="56" rx="10" fill="#ffffff"/>
  <rect x="60" y="110" width="160" height="56" rx="10" fill="#e3f2fd" stroke="#2563eb" stroke-width="1.5"/>
  <text x="140.0" y="134.0" text-anchor="middle" font-size="14" font-weight="700" fill="#0d47a1">Tokens</text>
  <text x="140.0" y="150.0" text-anchor="middle" font-size="11" font-family="JetBrains Mono, monospace" fill="#1e40af">"안녕 세계" → [101, 5023, ...]</text>
  <rect x="60" y="200" width="160" height="56" rx="10" fill="#ffffff"/>
  <rect x="60" y="200" width="160" height="56" rx="10" fill="#dcfce7" stroke="#059669" stroke-width="1.5"/>
  <text x="140.0" y="224.0" text-anchor="middle" font-size="14" font-weight="700" fill="#064e3b">Token Embedding</text>
  <text x="140.0" y="240.0" text-anchor="middle" font-size="11" font-family="JetBrains Mono, monospace" fill="#047857">dim = d_model</text>
  <rect x="60" y="290" width="160" height="56" rx="10" fill="#ffffff"/>
  <rect x="60" y="290" width="160" height="56" rx="10" fill="#dcfce7" stroke="#059669" stroke-width="1.5"/>
  <text x="140.0" y="314.0" text-anchor="middle" font-size="14" font-weight="700" fill="#064e3b">+ Position (RoPE)</text>
  <text x="140.0" y="330.0" text-anchor="middle" font-size="11" font-family="JetBrains Mono, monospace" fill="#047857">순서 정보 주입</text>
  <path d="M 140.0,168 L 140.0,198" stroke="#6b7280" stroke-width="1.8" fill="none" marker-end="url(#arr)"/>
  <path d="M 140.0,258 L 140.0,288" stroke="#6b7280" stroke-width="1.8" fill="none" marker-end="url(#arr)"/>
  <rect x="320" y="90" width="540" height="380" rx="12" fill="rgba(124,58,237,0.04)" stroke="#7c3aed" stroke-width="1" stroke-dasharray="8,4"/>
  <text x="332" y="108" font-size="10" font-weight="700" fill="#7c3aed" font-family="JetBrains Mono, monospace">TRANSFORMER BLOCK × N (e.g. N=32)</text>
  <rect x="420" y="140" width="220" height="60" rx="10" fill="#ffffff"/>
  <rect x="420" y="140" width="220" height="60" rx="10" fill="#fef9c3" stroke="#ca8a04" stroke-width="1.5"/>
  <text x="530.0" y="166.0" text-anchor="middle" font-size="14" font-weight="700" fill="#713f12">LayerNorm</text>
  <text x="530.0" y="182.0" text-anchor="middle" font-size="11" font-family="JetBrains Mono, monospace" fill="#a16207">안정화</text>
  <rect x="420" y="222" width="220" height="60" rx="10" fill="#ffffff"/>
  <rect x="420" y="222" width="220" height="60" rx="10" fill="#fef3e0" stroke="#ea580c" stroke-width="1.5"/>
  <text x="530.0" y="248.0" text-anchor="middle" font-size="14" font-weight="700" fill="#9a3412">Multi-Head Self-Attention</text>
  <text x="530.0" y="264.0" text-anchor="middle" font-size="11" font-family="JetBrains Mono, monospace" fill="#c2410c">토큰끼리 정보 교환</text>
  <rect x="420" y="304" width="220" height="60" rx="10" fill="#ffffff"/>
  <rect x="420" y="304" width="220" height="60" rx="10" fill="#fef9c3" stroke="#ca8a04" stroke-width="1.5"/>
  <text x="530.0" y="330.0" text-anchor="middle" font-size="14" font-weight="700" fill="#713f12">LayerNorm</text>
  <text x="530.0" y="346.0" text-anchor="middle" font-size="11" font-family="JetBrains Mono, monospace" fill="#a16207">안정화</text>
  <rect x="420" y="386" width="220" height="60" rx="10" fill="#ffffff"/>
  <rect x="420" y="386" width="220" height="60" rx="10" fill="#f3e8ff" stroke="#7c3aed" stroke-width="1.5"/>
  <text x="530.0" y="412.0" text-anchor="middle" font-size="14" font-weight="700" fill="#4c1d95">Feed-Forward (FFN/MoE)</text>
  <text x="530.0" y="428.0" text-anchor="middle" font-size="11" font-family="JetBrains Mono, monospace" fill="#6d28d9">비선형 변환</text>
  <path d="M 530.0,202 L 530.0,220" stroke="#6b7280" stroke-width="1.8" fill="none" marker-end="url(#arr)"/>
  <path d="M 530.0,284 L 530.0,302" stroke="#6b7280" stroke-width="1.8" fill="none" marker-end="url(#arr)"/>
  <path d="M 530.0,366 L 530.0,384" stroke="#6b7280" stroke-width="1.8" fill="none" marker-end="url(#arr)"/>
  <path d="M 640 170.0 L 670 170.0 L 670 296 L 636 296" stroke="#059669" stroke-width="1.5" fill="none" marker-end="url(#arr-token)" stroke-dasharray="5,3"/>
  <rect x="684.0" y="202.0" width="72" height="18" rx="4" fill="#ffffff" stroke="#e5e7eb" stroke-width="0.8"/>
  <text x="720" y="215.0" text-anchor="middle" font-size="11" font-family="JetBrains Mono, monospace" fill="#475569">residual</text>
  <path d="M 640 334.0 L 670 334.0 L 670 460 L 636 460" stroke="#059669" stroke-width="1.5" fill="none" marker-end="url(#arr-token)" stroke-dasharray="5,3"/>
  <rect x="684.0" y="366.0" width="72" height="18" rx="4" fill="#ffffff" stroke="#e5e7eb" stroke-width="0.8"/>
  <text x="720" y="379.0" text-anchor="middle" font-size="11" font-family="JetBrains Mono, monospace" fill="#475569">residual</text>
  <rect x="920" y="200" width="160" height="56" rx="10" fill="#ffffff"/>
  <rect x="920" y="200" width="160" height="56" rx="10" fill="#fef9c3" stroke="#ca8a04" stroke-width="1.5"/>
  <text x="1000.0" y="224.0" text-anchor="middle" font-size="14" font-weight="700" fill="#713f12">LM Head (linear)</text>
  <text x="1000.0" y="240.0" text-anchor="middle" font-size="11" font-family="JetBrains Mono, monospace" fill="#a16207">hidden → vocab</text>
  <rect x="920" y="290" width="160" height="56" rx="10" fill="#ffffff"/>
  <rect x="920" y="290" width="160" height="56" rx="10" fill="#d1fae5" stroke="#059669" stroke-width="1.5"/>
  <text x="1000.0" y="314.0" text-anchor="middle" font-size="14" font-weight="700" fill="#064e3b">Softmax</text>
  <text x="1000.0" y="330.0" text-anchor="middle" font-size="11" font-family="JetBrains Mono, monospace" fill="#047857">다음 토큰 확률 분포</text>
  <rect x="920" y="380" width="160" height="56" rx="10" fill="#ffffff"/>
  <rect x="920" y="380" width="160" height="56" rx="10" fill="#d1fae5" stroke="#059669" stroke-width="1.5"/>
  <text x="1000.0" y="404.0" text-anchor="middle" font-size="14" font-weight="700" fill="#064e3b">Sample / argmax</text>
  <text x="1000.0" y="420.0" text-anchor="middle" font-size="11" font-family="JetBrains Mono, monospace" fill="#047857">다음 토큰 결정</text>
  <path d="M 1000.0,258 L 1000.0,288" stroke="#6b7280" stroke-width="1.8" fill="none" marker-end="url(#arr)"/>
  <path d="M 1000.0,348 L 1000.0,378" stroke="#6b7280" stroke-width="1.8" fill="none" marker-end="url(#arr)"/>
  <path d="M 222,318.0 L 324,280.0" stroke="#6b7280" stroke-width="1.8" fill="none" marker-end="url(#arr)"/>
  <rect x="244.0" y="272.0" width="58" height="18" rx="4" fill="#ffffff" stroke="#e5e7eb" stroke-width="0.8"/>
  <text x="273.0" y="285.0" text-anchor="middle" font-size="11" font-family="JetBrains Mono, monospace" fill="#475569">hidden</text>
  <path d="M 862,280.0 L 918,228.0" stroke="#6b7280" stroke-width="1.8" fill="none" marker-end="url(#arr)"/>
  <rect x="861.0" y="227.0" width="58" height="18" rx="4" fill="#ffffff" stroke="#e5e7eb" stroke-width="0.8"/>
  <text x="890.0" y="240.0" text-anchor="middle" font-size="11" font-family="JetBrains Mono, monospace" fill="#475569">hidden</text>
  <rect x="40" y="540" width="1100" height="44" rx="6" fill="#f8fafc" stroke="#e2e8f0" stroke-width="0.8"/>
  <text x="590.0" y="562" text-anchor="middle" font-size="12" fill="#334155">d_model · n_heads · n_layers · vocab_size 가 모델 크기를 결정. Llama-3-8B ≈ d=4096 · h=32 · L=32 · V=128k.</text>
  <text x="590.0" y="580" text-anchor="middle" font-size="11" fill="#334155">MoE 는 FFN 자리에 여러 expert 중 일부만 활성. attention 은 그대로.</text>
</svg>