<svg xmlns="http://www.w3.org/2000/svg" viewBox="0 0 1040 320" font-family="Pretendard, -apple-system, BlinkMacSystemFont, sans-serif">
  <defs>
    <pattern id="grid" width="40" height="40" patternUnits="userSpaceOnUse">
      <path d="M 40 0 L 0 0 0 40" fill="none" stroke="#f1f5f9" stroke-width="0.5"/>
    </pattern>
    <marker id="arr" markerWidth="10" markerHeight="7" refX="9" refY="3.5" orient="auto"><polygon points="0,0 10,3.5 0,7" fill="#6b7280"/></marker>
    <marker id="arr-input" markerWidth="10" markerHeight="7" refX="9" refY="3.5" orient="auto"><polygon points="0,0 10,3.5 0,7" fill="#2563eb"/></marker>
    <marker id="arr-llm" markerWidth="10" markerHeight="7" refX="9" refY="3.5" orient="auto"><polygon points="0,0 10,3.5 0,7" fill="#ea580c"/></marker>
    <marker id="arr-model" markerWidth="10" markerHeight="7" refX="9" refY="3.5" orient="auto"><polygon points="0,0 10,3.5 0,7" fill="#7c3aed"/></marker>
    <marker id="arr-token" markerWidth="10" markerHeight="7" refX="9" refY="3.5" orient="auto"><polygon points="0,0 10,3.5 0,7" fill="#059669"/></marker>
    <marker id="arr-output" markerWidth="10" markerHeight="7" refX="9" refY="3.5" orient="auto"><polygon points="0,0 10,3.5 0,7" fill="#059669"/></marker>
    <marker id="arr-gate" markerWidth="10" markerHeight="7" refX="9" refY="3.5" orient="auto"><polygon points="0,0 10,3.5 0,7" fill="#ca8a04"/></marker>
    <marker id="arr-tool" markerWidth="10" markerHeight="7" refX="9" refY="3.5" orient="auto"><polygon points="0,0 10,3.5 0,7" fill="#0891b2"/></marker>
    <marker id="arr-memory" markerWidth="10" markerHeight="7" refX="9" refY="3.5" orient="auto"><polygon points="0,0 10,3.5 0,7" fill="#db2777"/></marker>
    <marker id="arr-error" markerWidth="10" markerHeight="7" refX="9" refY="3.5" orient="auto"><polygon points="0,0 10,3.5 0,7" fill="#dc2626"/></marker>
  </defs>
  <rect width="1040" height="320" fill="#ffffff"/>
  <rect width="1040" height="320" fill="url(#grid)"/>
  <text x="520" y="36" text-anchor="middle" font-size="18" font-weight="700" fill="#0f172a">API 요청 한 번의 흐름</text>
  <text x="520" y="58" text-anchor="middle" font-size="12" fill="#64748b">client.messages.create() 한 번 = 이 6단계</text>
  <path d="M 192,155 L 208,155" stroke="#6b7280" stroke-width="1.8" fill="none" marker-end="url(#arr)"/>
  <path d="M 352,155 L 368,155" stroke="#6b7280" stroke-width="1.8" fill="none" marker-end="url(#arr)"/>
  <path d="M 512,155 L 528,155" stroke="#6b7280" stroke-width="1.8" fill="none" marker-end="url(#arr)"/>
  <path d="M 672,155 L 688,155" stroke="#6b7280" stroke-width="1.8" fill="none" marker-end="url(#arr)"/>
  <path d="M 832,155 L 848,155" stroke="#6b7280" stroke-width="1.8" fill="none" marker-end="url(#arr)"/>
  <rect x="50" y="110" width="140" height="115" rx="10" fill="#ffffff"/>
  <rect x="50" y="110" width="140" height="115" rx="10" fill="#e3f2fd" stroke="#2563eb" stroke-width="1.5"/>
  <text x="120.0" y="163.5" text-anchor="middle" font-size="14" font-weight="700" fill="#0d47a1">내 코드</text>
  <text x="120.0" y="179.5" text-anchor="middle" font-size="11" font-family="JetBrains Mono, monospace" fill="#1e40af">your app</text>
  <text x="120.0" y="195.5" text-anchor="middle" font-size="10" fill="#1e40af">Python/SDK</text>
  <rect x="210" y="110" width="140" height="115" rx="10" fill="#ffffff"/>
  <rect x="210" y="110" width="140" height="115" rx="10" fill="#cffafe" stroke="#0891b2" stroke-width="1.5"/>
  <text x="280.0" y="163.5" text-anchor="middle" font-size="14" font-weight="700" fill="#083344">네트워크</text>
  <text x="280.0" y="179.5" text-anchor="middle" font-size="11" font-family="JetBrains Mono, monospace" fill="#0e7490">HTTPS POST</text>
  <text x="280.0" y="195.5" text-anchor="middle" font-size="10" fill="#0e7490">TLS 암호화</text>
  <rect x="370" y="110" width="140" height="115" rx="10" fill="#ffffff"/>
  <rect x="370" y="110" width="140" height="115" rx="10" fill="#f3e8ff" stroke="#7c3aed" stroke-width="1.5"/>
  <text x="440.0" y="163.5" text-anchor="middle" font-size="14" font-weight="700" fill="#4c1d95">API 서버</text>
  <text x="440.0" y="179.5" text-anchor="middle" font-size="11" font-family="JetBrains Mono, monospace" fill="#6d28d9">Anthropic</text>
  <text x="440.0" y="195.5" text-anchor="middle" font-size="10" fill="#6d28d9">라우팅·인증</text>
  <rect x="530" y="110" width="140" height="115" rx="10" fill="#ffffff"/>
  <rect x="530" y="110" width="140" height="115" rx="10" fill="#fef3e0" stroke="#ea580c" stroke-width="1.5"/>
  <text x="600.0" y="163.5" text-anchor="middle" font-size="14" font-weight="700" fill="#9a3412">Claude 모델</text>
  <text x="600.0" y="179.5" text-anchor="middle" font-size="11" font-family="JetBrains Mono, monospace" fill="#c2410c">inference</text>
  <text x="600.0" y="195.5" text-anchor="middle" font-size="10" fill="#c2410c">토큰 생성</text>
  <rect x="690" y="110" width="140" height="115" rx="10" fill="#ffffff"/>
  <rect x="690" y="110" width="140" height="115" rx="10" fill="#cffafe" stroke="#0891b2" stroke-width="1.5"/>
  <text x="760.0" y="163.5" text-anchor="middle" font-size="14" font-weight="700" fill="#083344">네트워크</text>
  <text x="760.0" y="179.5" text-anchor="middle" font-size="11" font-family="JetBrains Mono, monospace" fill="#0e7490">HTTPS 응답</text>
  <text x="760.0" y="195.5" text-anchor="middle" font-size="10" fill="#0e7490">JSON</text>
  <rect x="850" y="110" width="140" height="115" rx="10" fill="#ffffff"/>
  <rect x="850" y="110" width="140" height="115" rx="10" fill="#d1fae5" stroke="#059669" stroke-width="1.5"/>
  <text x="920.0" y="163.5" text-anchor="middle" font-size="14" font-weight="700" fill="#064e3b">내 코드</text>
  <text x="920.0" y="179.5" text-anchor="middle" font-size="11" font-family="JetBrains Mono, monospace" fill="#047857">parse</text>
  <text x="920.0" y="195.5" text-anchor="middle" font-size="10" fill="#047857">response.content</text>
  <rect x="60" y="240" width="920" height="50" rx="8" fill="#f8fafc" stroke="#e2e8f0" stroke-width="1"/>
  <text x="72" y="260" font-size="10" font-weight="700" fill="#334155" font-family="JetBrains Mono, monospace">ROLES</text>
  <rect x="170" y="267" width="14" height="14" rx="3" fill="#2563eb"/>
  <text x="192" y="278" font-size="11" fill="#334155">내 코드</text>
  <rect x="332" y="267" width="14" height="14" rx="3" fill="#0891b2"/>
  <text x="354" y="278" font-size="11" fill="#334155">네트워크</text>
  <rect x="494" y="267" width="14" height="14" rx="3" fill="#7c3aed"/>
  <text x="516" y="278" font-size="11" fill="#334155">API 서버</text>
  <rect x="656" y="267" width="14" height="14" rx="3" fill="#ea580c"/>
  <text x="678" y="278" font-size="11" fill="#334155">Claude</text>
  <rect x="818" y="267" width="14" height="14" rx="3" fill="#059669"/>
  <text x="840" y="278" font-size="11" fill="#334155">결과</text>
</svg>