<svg xmlns="http://www.w3.org/2000/svg" viewBox="0 0 1040 320" font-family="Pretendard, -apple-system, BlinkMacSystemFont, sans-serif">
  <defs>
    <pattern id="grid" width="40" height="40" patternUnits="userSpaceOnUse">
      <path d="M 40 0 L 0 0 0 40" fill="none" stroke="#1e293b" stroke-width="0.5"/>
    </pattern>
    <marker id="arr" markerWidth="10" markerHeight="7" refX="9" refY="3.5" orient="auto"><polygon points="0,0 10,3.5 0,7" fill="#64748b"/></marker>
    <marker id="arr-input" markerWidth="10" markerHeight="7" refX="9" refY="3.5" orient="auto"><polygon points="0,0 10,3.5 0,7" fill="#60a5fa"/></marker>
    <marker id="arr-llm" markerWidth="10" markerHeight="7" refX="9" refY="3.5" orient="auto"><polygon points="0,0 10,3.5 0,7" fill="#fb923c"/></marker>
    <marker id="arr-model" markerWidth="10" markerHeight="7" refX="9" refY="3.5" orient="auto"><polygon points="0,0 10,3.5 0,7" fill="#a78bfa"/></marker>
    <marker id="arr-token" markerWidth="10" markerHeight="7" refX="9" refY="3.5" orient="auto"><polygon points="0,0 10,3.5 0,7" fill="#34d399"/></marker>
    <marker id="arr-output" markerWidth="10" markerHeight="7" refX="9" refY="3.5" orient="auto"><polygon points="0,0 10,3.5 0,7" fill="#34d399"/></marker>
    <marker id="arr-gate" markerWidth="10" markerHeight="7" refX="9" refY="3.5" orient="auto"><polygon points="0,0 10,3.5 0,7" fill="#fbbf24"/></marker>
    <marker id="arr-tool" markerWidth="10" markerHeight="7" refX="9" refY="3.5" orient="auto"><polygon points="0,0 10,3.5 0,7" fill="#22d3ee"/></marker>
    <marker id="arr-memory" markerWidth="10" markerHeight="7" refX="9" refY="3.5" orient="auto"><polygon points="0,0 10,3.5 0,7" fill="#f472b6"/></marker>
    <marker id="arr-error" markerWidth="10" markerHeight="7" refX="9" refY="3.5" orient="auto"><polygon points="0,0 10,3.5 0,7" fill="#f87171"/></marker>
  </defs>
  <rect width="1040" height="320" fill="#020617"/>
  <rect width="1040" height="320" fill="url(#grid)"/>
  <text x="520" y="36" text-anchor="middle" font-size="18" font-weight="700" fill="#f1f5f9">API 요청 한 번의 흐름</text>
  <text x="520" y="58" text-anchor="middle" font-size="12" fill="#94a3b8">client.messages.create() 한 번 = 이 6단계</text>
  <path d="M 192,155 L 208,155" stroke="#64748b" stroke-width="1.8" fill="none" marker-end="url(#arr)"/>
  <path d="M 352,155 L 368,155" stroke="#64748b" stroke-width="1.8" fill="none" marker-end="url(#arr)"/>
  <path d="M 512,155 L 528,155" stroke="#64748b" stroke-width="1.8" fill="none" marker-end="url(#arr)"/>
  <path d="M 672,155 L 688,155" stroke="#64748b" stroke-width="1.8" fill="none" marker-end="url(#arr)"/>
  <path d="M 832,155 L 848,155" stroke="#64748b" stroke-width="1.8" fill="none" marker-end="url(#arr)"/>
  <rect x="50" y="110" width="140" height="115" rx="10" fill="#0f172a"/>
  <rect x="50" y="110" width="140" height="115" rx="10" fill="rgba(96,165,250,0.15)" stroke="#60a5fa" stroke-width="1.5"/>
  <text x="120.0" y="163.5" text-anchor="middle" font-size="14" font-weight="700" fill="#bfdbfe">내 코드</text>
  <text x="120.0" y="179.5" text-anchor="middle" font-size="11" font-family="JetBrains Mono, monospace" fill="#60a5fa">your app</text>
  <text x="120.0" y="195.5" text-anchor="middle" font-size="10" fill="#60a5fa">Python/SDK</text>
  <rect x="210" y="110" width="140" height="115" rx="10" fill="#0f172a"/>
  <rect x="210" y="110" width="140" height="115" rx="10" fill="rgba(34,211,238,0.15)" stroke="#22d3ee" stroke-width="1.5"/>
  <text x="280.0" y="163.5" text-anchor="middle" font-size="14" font-weight="700" fill="#a5f3fc">네트워크</text>
  <text x="280.0" y="179.5" text-anchor="middle" font-size="11" font-family="JetBrains Mono, monospace" fill="#22d3ee">HTTPS POST</text>
  <text x="280.0" y="195.5" text-anchor="middle" font-size="10" fill="#22d3ee">TLS 암호화</text>
  <rect x="370" y="110" width="140" height="115" rx="10" fill="#0f172a"/>
  <rect x="370" y="110" width="140" height="115" rx="10" fill="rgba(167,139,250,0.15)" stroke="#a78bfa" stroke-width="1.5"/>
  <text x="440.0" y="163.5" text-anchor="middle" font-size="14" font-weight="700" fill="#ddd6fe">API 서버</text>
  <text x="440.0" y="179.5" text-anchor="middle" font-size="11" font-family="JetBrains Mono, monospace" fill="#a78bfa">Anthropic</text>
  <text x="440.0" y="195.5" text-anchor="middle" font-size="10" fill="#a78bfa">라우팅·인증</text>
  <rect x="530" y="110" width="140" height="115" rx="10" fill="#0f172a"/>
  <rect x="530" y="110" width="140" height="115" rx="10" fill="rgba(251,146,60,0.15)" stroke="#fb923c" stroke-width="1.5"/>
  <text x="600.0" y="163.5" text-anchor="middle" font-size="14" font-weight="700" fill="#fed7aa">Claude 모델</text>
  <text x="600.0" y="179.5" text-anchor="middle" font-size="11" font-family="JetBrains Mono, monospace" fill="#fb923c">inference</text>
  <text x="600.0" y="195.5" text-anchor="middle" font-size="10" fill="#fb923c">토큰 생성</text>
  <rect x="690" y="110" width="140" height="115" rx="10" fill="#0f172a"/>
  <rect x="690" y="110" width="140" height="115" rx="10" fill="rgba(34,211,238,0.15)" stroke="#22d3ee" stroke-width="1.5"/>
  <text x="760.0" y="163.5" text-anchor="middle" font-size="14" font-weight="700" fill="#a5f3fc">네트워크</text>
  <text x="760.0" y="179.5" text-anchor="middle" font-size="11" font-family="JetBrains Mono, monospace" fill="#22d3ee">HTTPS 응답</text>
  <text x="760.0" y="195.5" text-anchor="middle" font-size="10" fill="#22d3ee">JSON</text>
  <rect x="850" y="110" width="140" height="115" rx="10" fill="#0f172a"/>
  <rect x="850" y="110" width="140" height="115" rx="10" fill="rgba(52,211,153,0.2)" stroke="#34d399" stroke-width="1.5"/>
  <text x="920.0" y="163.5" text-anchor="middle" font-size="14" font-weight="700" fill="#a7f3d0">내 코드</text>
  <text x="920.0" y="179.5" text-anchor="middle" font-size="11" font-family="JetBrains Mono, monospace" fill="#34d399">parse</text>
  <text x="920.0" y="195.5" text-anchor="middle" font-size="10" fill="#34d399">response.content</text>
  <rect x="60" y="240" width="920" height="50" rx="8" fill="#0f172a" stroke="#334155" stroke-width="1"/>
  <text x="72" y="260" font-size="10" font-weight="700" fill="#cbd5e1" font-family="JetBrains Mono, monospace">ROLES</text>
  <rect x="170" y="267" width="14" height="14" rx="3" fill="#60a5fa"/>
  <text x="192" y="278" font-size="11" fill="#cbd5e1">내 코드</text>
  <rect x="332" y="267" width="14" height="14" rx="3" fill="#22d3ee"/>
  <text x="354" y="278" font-size="11" fill="#cbd5e1">네트워크</text>
  <rect x="494" y="267" width="14" height="14" rx="3" fill="#a78bfa"/>
  <text x="516" y="278" font-size="11" fill="#cbd5e1">API 서버</text>
  <rect x="656" y="267" width="14" height="14" rx="3" fill="#fb923c"/>
  <text x="678" y="278" font-size="11" fill="#cbd5e1">Claude</text>
  <rect x="818" y="267" width="14" height="14" rx="3" fill="#34d399"/>
  <text x="840" y="278" font-size="11" fill="#cbd5e1">결과</text>
</svg>