<svg xmlns="http://www.w3.org/2000/svg" viewBox="0 0 1040 340" font-family="Pretendard, -apple-system, BlinkMacSystemFont, sans-serif">
  <defs>
    <pattern id="grid" width="40" height="40" patternUnits="userSpaceOnUse">
      <path d="M 40 0 L 0 0 0 40" fill="none" stroke="#1e293b" stroke-width="0.5"/>
    </pattern>
    <marker id="arr" markerWidth="10" markerHeight="7" refX="9" refY="3.5" orient="auto"><polygon points="0,0 10,3.5 0,7" fill="#64748b"/></marker>
    <marker id="arr-input" markerWidth="10" markerHeight="7" refX="9" refY="3.5" orient="auto"><polygon points="0,0 10,3.5 0,7" fill="#60a5fa"/></marker>
    <marker id="arr-llm" markerWidth="10" markerHeight="7" refX="9" refY="3.5" orient="auto"><polygon points="0,0 10,3.5 0,7" fill="#fb923c"/></marker>
    <marker id="arr-model" markerWidth="10" markerHeight="7" refX="9" refY="3.5" orient="auto"><polygon points="0,0 10,3.5 0,7" fill="#a78bfa"/></marker>
    <marker id="arr-token" markerWidth="10" markerHeight="7" refX="9" refY="3.5" orient="auto"><polygon points="0,0 10,3.5 0,7" fill="#34d399"/></marker>
    <marker id="arr-output" markerWidth="10" markerHeight="7" refX="9" refY="3.5" orient="auto"><polygon points="0,0 10,3.5 0,7" fill="#34d399"/></marker>
    <marker id="arr-gate" markerWidth="10" markerHeight="7" refX="9" refY="3.5" orient="auto"><polygon points="0,0 10,3.5 0,7" fill="#fbbf24"/></marker>
    <marker id="arr-tool" markerWidth="10" markerHeight="7" refX="9" refY="3.5" orient="auto"><polygon points="0,0 10,3.5 0,7" fill="#22d3ee"/></marker>
    <marker id="arr-memory" markerWidth="10" markerHeight="7" refX="9" refY="3.5" orient="auto"><polygon points="0,0 10,3.5 0,7" fill="#f472b6"/></marker>
    <marker id="arr-error" markerWidth="10" markerHeight="7" refX="9" refY="3.5" orient="auto"><polygon points="0,0 10,3.5 0,7" fill="#f87171"/></marker>
  </defs>
  <rect width="1040" height="340" fill="#020617"/>
  <rect width="1040" height="340" fill="url(#grid)"/>
  <text x="520" y="36" text-anchor="middle" font-size="18" font-weight="700" fill="#f1f5f9">직답 vs Chain-of-Thought</text>
  <text x="520" y="58" text-anchor="middle" font-size="12" fill="#94a3b8">같은 모델·같은 질문, 프롬프트 한 줄 차이</text>
  <path d="M 180,195 L 280,145" stroke="#64748b" stroke-width="1.8" fill="none" marker-end="url(#arr)"/>
  <rect x="215.0" y="143.0" width="30" height="18" rx="4" fill="#0f172a" stroke="#334155" stroke-width="0.8"/>
  <text x="230.0" y="156.0" text-anchor="middle" font-size="11" font-family="JetBrains Mono, monospace" fill="#94a3b8">직답</text>
  <path d="M 420,145 L 560,145" stroke="#64748b" stroke-width="1.8" fill="none" marker-end="url(#arr)"/>
  <path d="M 180,215 L 280,265" stroke="#64748b" stroke-width="1.8" fill="none" marker-end="url(#arr)"/>
  <rect x="211.5" y="213.0" width="37" height="18" rx="4" fill="#0f172a" stroke="#334155" stroke-width="0.8"/>
  <text x="230.0" y="226.0" text-anchor="middle" font-size="11" font-family="JetBrains Mono, monospace" fill="#94a3b8">단계별</text>
  <path d="M 420,265 L 560,265" stroke="#64748b" stroke-width="1.8" fill="none" marker-end="url(#arr)"/>
  <path d="M 700,265 L 820,265" stroke="#64748b" stroke-width="1.8" fill="none" marker-end="url(#arr)"/>
  <rect x="40" y="160" width="140" height="90" rx="10" fill="#0f172a"/>
  <rect x="40" y="160" width="140" height="90" rx="10" fill="rgba(96,165,250,0.15)" stroke="#60a5fa" stroke-width="1.5"/>
  <text x="110.0" y="201.0" text-anchor="middle" font-size="14" font-weight="700" fill="#bfdbfe">질문</text>
  <text x="110.0" y="217.0" text-anchor="middle" font-size="11" font-family="JetBrains Mono, monospace" fill="#60a5fa">user</text>
  <rect x="280" y="100" width="140" height="90" rx="10" fill="#0f172a"/>
  <rect x="280" y="100" width="140" height="90" rx="10" fill="rgba(167,139,250,0.15)" stroke="#a78bfa" stroke-width="1.5"/>
  <text x="350.0" y="141.0" text-anchor="middle" font-size="14" font-weight="700" fill="#ddd6fe">LLM</text>
  <text x="350.0" y="157.0" text-anchor="middle" font-size="11" font-family="JetBrains Mono, monospace" fill="#a78bfa">direct</text>
  <rect x="560" y="100" width="140" height="90" rx="10" fill="#0f172a"/>
  <rect x="560" y="100" width="140" height="90" rx="10" fill="rgba(248,113,113,0.15)" stroke="#f87171" stroke-width="1.5"/>
  <text x="630.0" y="141.0" text-anchor="middle" font-size="14" font-weight="700" fill="#fecaca">답</text>
  <text x="630.0" y="157.0" text-anchor="middle" font-size="11" font-family="JetBrains Mono, monospace" fill="#f87171">오답 위험</text>
  <rect x="280" y="220" width="140" height="90" rx="10" fill="#0f172a"/>
  <rect x="280" y="220" width="140" height="90" rx="10" fill="rgba(167,139,250,0.15)" stroke="#a78bfa" stroke-width="1.5"/>
  <text x="350.0" y="261.0" text-anchor="middle" font-size="14" font-weight="700" fill="#ddd6fe">LLM</text>
  <text x="350.0" y="277.0" text-anchor="middle" font-size="11" font-family="JetBrains Mono, monospace" fill="#a78bfa">+ step-by-step</text>
  <rect x="560" y="220" width="140" height="90" rx="10" fill="#0f172a"/>
  <rect x="560" y="220" width="140" height="90" rx="10" fill="rgba(52,211,153,0.15)" stroke="#34d399" stroke-width="1.5"/>
  <text x="630.0" y="261.0" text-anchor="middle" font-size="14" font-weight="700" fill="#a7f3d0">추론 단계</text>
  <text x="630.0" y="277.0" text-anchor="middle" font-size="11" font-family="JetBrains Mono, monospace" fill="#34d399">reasoning</text>
  <rect x="820" y="220" width="140" height="90" rx="10" fill="#0f172a"/>
  <rect x="820" y="220" width="140" height="90" rx="10" fill="rgba(52,211,153,0.2)" stroke="#34d399" stroke-width="1.5"/>
  <text x="890.0" y="261.0" text-anchor="middle" font-size="14" font-weight="700" fill="#a7f3d0">답</text>
  <text x="890.0" y="277.0" text-anchor="middle" font-size="11" font-family="JetBrains Mono, monospace" fill="#34d399">더 정확</text>
</svg>