<svg xmlns="http://www.w3.org/2000/svg" viewBox="0 0 1040 340" font-family="Pretendard, -apple-system, BlinkMacSystemFont, sans-serif">
  <defs>
    <pattern id="grid" width="40" height="40" patternUnits="userSpaceOnUse">
      <path d="M 40 0 L 0 0 0 40" fill="none" stroke="#f1f5f9" stroke-width="0.5"/>
    </pattern>
    <marker id="arr" markerWidth="10" markerHeight="7" refX="9" refY="3.5" orient="auto"><polygon points="0,0 10,3.5 0,7" fill="#6b7280"/></marker>
    <marker id="arr-input" markerWidth="10" markerHeight="7" refX="9" refY="3.5" orient="auto"><polygon points="0,0 10,3.5 0,7" fill="#2563eb"/></marker>
    <marker id="arr-llm" markerWidth="10" markerHeight="7" refX="9" refY="3.5" orient="auto"><polygon points="0,0 10,3.5 0,7" fill="#ea580c"/></marker>
    <marker id="arr-model" markerWidth="10" markerHeight="7" refX="9" refY="3.5" orient="auto"><polygon points="0,0 10,3.5 0,7" fill="#7c3aed"/></marker>
    <marker id="arr-token" markerWidth="10" markerHeight="7" refX="9" refY="3.5" orient="auto"><polygon points="0,0 10,3.5 0,7" fill="#059669"/></marker>
    <marker id="arr-output" markerWidth="10" markerHeight="7" refX="9" refY="3.5" orient="auto"><polygon points="0,0 10,3.5 0,7" fill="#059669"/></marker>
    <marker id="arr-gate" markerWidth="10" markerHeight="7" refX="9" refY="3.5" orient="auto"><polygon points="0,0 10,3.5 0,7" fill="#ca8a04"/></marker>
    <marker id="arr-tool" markerWidth="10" markerHeight="7" refX="9" refY="3.5" orient="auto"><polygon points="0,0 10,3.5 0,7" fill="#0891b2"/></marker>
    <marker id="arr-memory" markerWidth="10" markerHeight="7" refX="9" refY="3.5" orient="auto"><polygon points="0,0 10,3.5 0,7" fill="#db2777"/></marker>
    <marker id="arr-error" markerWidth="10" markerHeight="7" refX="9" refY="3.5" orient="auto"><polygon points="0,0 10,3.5 0,7" fill="#dc2626"/></marker>
  </defs>
  <rect width="1040" height="340" fill="#ffffff"/>
  <rect width="1040" height="340" fill="url(#grid)"/>
  <text x="520" y="36" text-anchor="middle" font-size="18" font-weight="700" fill="#0f172a">직답 vs Chain-of-Thought</text>
  <text x="520" y="58" text-anchor="middle" font-size="12" fill="#64748b">같은 모델·같은 질문, 프롬프트 한 줄 차이</text>
  <path d="M 180,195 L 280,145" stroke="#6b7280" stroke-width="1.8" fill="none" marker-end="url(#arr)"/>
  <rect x="215.0" y="143.0" width="30" height="18" rx="4" fill="#ffffff" stroke="#e5e7eb" stroke-width="0.8"/>
  <text x="230.0" y="156.0" text-anchor="middle" font-size="11" font-family="JetBrains Mono, monospace" fill="#475569">직답</text>
  <path d="M 420,145 L 560,145" stroke="#6b7280" stroke-width="1.8" fill="none" marker-end="url(#arr)"/>
  <path d="M 180,215 L 280,265" stroke="#6b7280" stroke-width="1.8" fill="none" marker-end="url(#arr)"/>
  <rect x="211.5" y="213.0" width="37" height="18" rx="4" fill="#ffffff" stroke="#e5e7eb" stroke-width="0.8"/>
  <text x="230.0" y="226.0" text-anchor="middle" font-size="11" font-family="JetBrains Mono, monospace" fill="#475569">단계별</text>
  <path d="M 420,265 L 560,265" stroke="#6b7280" stroke-width="1.8" fill="none" marker-end="url(#arr)"/>
  <path d="M 700,265 L 820,265" stroke="#6b7280" stroke-width="1.8" fill="none" marker-end="url(#arr)"/>
  <rect x="40" y="160" width="140" height="90" rx="10" fill="#ffffff"/>
  <rect x="40" y="160" width="140" height="90" rx="10" fill="#e3f2fd" stroke="#2563eb" stroke-width="1.5"/>
  <text x="110.0" y="201.0" text-anchor="middle" font-size="14" font-weight="700" fill="#0d47a1">질문</text>
  <text x="110.0" y="217.0" text-anchor="middle" font-size="11" font-family="JetBrains Mono, monospace" fill="#1e40af">user</text>
  <rect x="280" y="100" width="140" height="90" rx="10" fill="#ffffff"/>
  <rect x="280" y="100" width="140" height="90" rx="10" fill="#f3e8ff" stroke="#7c3aed" stroke-width="1.5"/>
  <text x="350.0" y="141.0" text-anchor="middle" font-size="14" font-weight="700" fill="#4c1d95">LLM</text>
  <text x="350.0" y="157.0" text-anchor="middle" font-size="11" font-family="JetBrains Mono, monospace" fill="#6d28d9">direct</text>
  <rect x="560" y="100" width="140" height="90" rx="10" fill="#ffffff"/>
  <rect x="560" y="100" width="140" height="90" rx="10" fill="#fee2e2" stroke="#dc2626" stroke-width="1.5"/>
  <text x="630.0" y="141.0" text-anchor="middle" font-size="14" font-weight="700" fill="#7f1d1d">답</text>
  <text x="630.0" y="157.0" text-anchor="middle" font-size="11" font-family="JetBrains Mono, monospace" fill="#b91c1c">오답 위험</text>
  <rect x="280" y="220" width="140" height="90" rx="10" fill="#ffffff"/>
  <rect x="280" y="220" width="140" height="90" rx="10" fill="#f3e8ff" stroke="#7c3aed" stroke-width="1.5"/>
  <text x="350.0" y="261.0" text-anchor="middle" font-size="14" font-weight="700" fill="#4c1d95">LLM</text>
  <text x="350.0" y="277.0" text-anchor="middle" font-size="11" font-family="JetBrains Mono, monospace" fill="#6d28d9">+ step-by-step</text>
  <rect x="560" y="220" width="140" height="90" rx="10" fill="#ffffff"/>
  <rect x="560" y="220" width="140" height="90" rx="10" fill="#dcfce7" stroke="#059669" stroke-width="1.5"/>
  <text x="630.0" y="261.0" text-anchor="middle" font-size="14" font-weight="700" fill="#064e3b">추론 단계</text>
  <text x="630.0" y="277.0" text-anchor="middle" font-size="11" font-family="JetBrains Mono, monospace" fill="#047857">reasoning</text>
  <rect x="820" y="220" width="140" height="90" rx="10" fill="#ffffff"/>
  <rect x="820" y="220" width="140" height="90" rx="10" fill="#d1fae5" stroke="#059669" stroke-width="1.5"/>
  <text x="890.0" y="261.0" text-anchor="middle" font-size="14" font-weight="700" fill="#064e3b">답</text>
  <text x="890.0" y="277.0" text-anchor="middle" font-size="11" font-family="JetBrains Mono, monospace" fill="#047857">더 정확</text>
</svg>