<svg xmlns="http://www.w3.org/2000/svg" viewBox="0 0 1040 280" font-family="Pretendard, -apple-system, BlinkMacSystemFont, sans-serif">
  <defs>
    <pattern id="grid" width="40" height="40" patternUnits="userSpaceOnUse">
      <path d="M 40 0 L 0 0 0 40" fill="none" stroke="#f1f5f9" stroke-width="0.5"/>
    </pattern>
    <marker id="arr" markerWidth="10" markerHeight="7" refX="9" refY="3.5" orient="auto"><polygon points="0,0 10,3.5 0,7" fill="#6b7280"/></marker>
    <marker id="arr-input" markerWidth="10" markerHeight="7" refX="9" refY="3.5" orient="auto"><polygon points="0,0 10,3.5 0,7" fill="#2563eb"/></marker>
    <marker id="arr-llm" markerWidth="10" markerHeight="7" refX="9" refY="3.5" orient="auto"><polygon points="0,0 10,3.5 0,7" fill="#ea580c"/></marker>
    <marker id="arr-model" markerWidth="10" markerHeight="7" refX="9" refY="3.5" orient="auto"><polygon points="0,0 10,3.5 0,7" fill="#7c3aed"/></marker>
    <marker id="arr-token" markerWidth="10" markerHeight="7" refX="9" refY="3.5" orient="auto"><polygon points="0,0 10,3.5 0,7" fill="#059669"/></marker>
    <marker id="arr-output" markerWidth="10" markerHeight="7" refX="9" refY="3.5" orient="auto"><polygon points="0,0 10,3.5 0,7" fill="#059669"/></marker>
    <marker id="arr-gate" markerWidth="10" markerHeight="7" refX="9" refY="3.5" orient="auto"><polygon points="0,0 10,3.5 0,7" fill="#ca8a04"/></marker>
    <marker id="arr-tool" markerWidth="10" markerHeight="7" refX="9" refY="3.5" orient="auto"><polygon points="0,0 10,3.5 0,7" fill="#0891b2"/></marker>
    <marker id="arr-memory" markerWidth="10" markerHeight="7" refX="9" refY="3.5" orient="auto"><polygon points="0,0 10,3.5 0,7" fill="#db2777"/></marker>
    <marker id="arr-error" markerWidth="10" markerHeight="7" refX="9" refY="3.5" orient="auto"><polygon points="0,0 10,3.5 0,7" fill="#dc2626"/></marker>
  </defs>
  <rect width="1040" height="280" fill="#ffffff"/>
  <rect width="1040" height="280" fill="url(#grid)"/>
  <text x="520" y="36" text-anchor="middle" font-size="18" font-weight="700" fill="#0f172a">프롬프트의 해부</text>
  <text x="520" y="58" text-anchor="middle" font-size="12" fill="#64748b">messages 배열의 구성 요소와 흐름</text>
  <path d="M 234,157 L 254,157" stroke="#6b7280" stroke-width="1.8" fill="none" marker-end="url(#arr)"/>
  <path d="M 418,157 L 438,157" stroke="#6b7280" stroke-width="1.8" fill="none" marker-end="url(#arr)"/>
  <path d="M 602,157 L 622,157" stroke="#6b7280" stroke-width="1.8" fill="none" marker-end="url(#arr)"/>
  <path d="M 786,157 L 806,157" stroke="#6b7280" stroke-width="1.8" fill="none" marker-end="url(#arr)"/>
  <rect x="72" y="100" width="160" height="115" rx="10" fill="#ffffff"/>
  <rect x="72" y="100" width="160" height="115" rx="10" fill="#e3f2fd" stroke="#2563eb" stroke-width="1.5"/>
  <text x="152.0" y="153.5" text-anchor="middle" font-size="14" font-weight="700" fill="#0d47a1">시스템 지침</text>
  <text x="152.0" y="169.5" text-anchor="middle" font-size="11" font-family="JetBrains Mono, monospace" fill="#1e40af">system</text>
  <text x="152.0" y="185.5" text-anchor="middle" font-size="10" fill="#1e40af">역할·규칙·출력형식</text>
  <rect x="256" y="100" width="160" height="115" rx="10" fill="#ffffff"/>
  <rect x="256" y="100" width="160" height="115" rx="10" fill="#fce7f3" stroke="#db2777" stroke-width="1.5"/>
  <text x="336.0" y="153.5" text-anchor="middle" font-size="14" font-weight="700" fill="#500724">Few-shot 예시</text>
  <text x="336.0" y="169.5" text-anchor="middle" font-size="11" font-family="JetBrains Mono, monospace" fill="#be185d">optional</text>
  <text x="336.0" y="185.5" text-anchor="middle" font-size="10" fill="#be185d">Q-A 짝 1~3개</text>
  <rect x="440" y="100" width="160" height="115" rx="10" fill="#ffffff"/>
  <rect x="440" y="100" width="160" height="115" rx="10" fill="#e3f2fd" stroke="#2563eb" stroke-width="1.5"/>
  <text x="520.0" y="153.5" text-anchor="middle" font-size="14" font-weight="700" fill="#0d47a1">현재 질문</text>
  <text x="520.0" y="169.5" text-anchor="middle" font-size="11" font-family="JetBrains Mono, monospace" fill="#1e40af">user</text>
  <text x="520.0" y="185.5" text-anchor="middle" font-size="10" fill="#1e40af">실제 요청</text>
  <rect x="624" y="100" width="160" height="115" rx="10" fill="#ffffff"/>
  <rect x="624" y="100" width="160" height="115" rx="10" fill="#f3e8ff" stroke="#7c3aed" stroke-width="1.5"/>
  <text x="704.0" y="153.5" text-anchor="middle" font-size="14" font-weight="700" fill="#4c1d95">LLM</text>
  <text x="704.0" y="169.5" text-anchor="middle" font-size="11" font-family="JetBrains Mono, monospace" fill="#6d28d9">inference</text>
  <text x="704.0" y="185.5" text-anchor="middle" font-size="10" fill="#6d28d9">토큰 생성</text>
  <rect x="808" y="100" width="160" height="115" rx="10" fill="#ffffff"/>
  <rect x="808" y="100" width="160" height="115" rx="10" fill="#d1fae5" stroke="#059669" stroke-width="1.5"/>
  <text x="888.0" y="153.5" text-anchor="middle" font-size="14" font-weight="700" fill="#064e3b">응답</text>
  <text x="888.0" y="169.5" text-anchor="middle" font-size="11" font-family="JetBrains Mono, monospace" fill="#047857">assistant</text>
  <text x="888.0" y="185.5" text-anchor="middle" font-size="10" fill="#047857">원하는 형식</text>
</svg>