<svg xmlns="http://www.w3.org/2000/svg" viewBox="0 0 1040 460" font-family="Pretendard, -apple-system, BlinkMacSystemFont, sans-serif">
  <defs>
    <pattern id="grid" width="40" height="40" patternUnits="userSpaceOnUse">
      <path d="M 40 0 L 0 0 0 40" fill="none" stroke="#f1f5f9" stroke-width="0.5"/>
    </pattern>
    <marker id="arr" markerWidth="10" markerHeight="7" refX="9" refY="3.5" orient="auto"><polygon points="0,0 10,3.5 0,7" fill="#6b7280"/></marker>
    <marker id="arr-input" markerWidth="10" markerHeight="7" refX="9" refY="3.5" orient="auto"><polygon points="0,0 10,3.5 0,7" fill="#2563eb"/></marker>
    <marker id="arr-llm" markerWidth="10" markerHeight="7" refX="9" refY="3.5" orient="auto"><polygon points="0,0 10,3.5 0,7" fill="#ea580c"/></marker>
    <marker id="arr-model" markerWidth="10" markerHeight="7" refX="9" refY="3.5" orient="auto"><polygon points="0,0 10,3.5 0,7" fill="#7c3aed"/></marker>
    <marker id="arr-token" markerWidth="10" markerHeight="7" refX="9" refY="3.5" orient="auto"><polygon points="0,0 10,3.5 0,7" fill="#059669"/></marker>
    <marker id="arr-output" markerWidth="10" markerHeight="7" refX="9" refY="3.5" orient="auto"><polygon points="0,0 10,3.5 0,7" fill="#059669"/></marker>
    <marker id="arr-gate" markerWidth="10" markerHeight="7" refX="9" refY="3.5" orient="auto"><polygon points="0,0 10,3.5 0,7" fill="#ca8a04"/></marker>
    <marker id="arr-tool" markerWidth="10" markerHeight="7" refX="9" refY="3.5" orient="auto"><polygon points="0,0 10,3.5 0,7" fill="#0891b2"/></marker>
    <marker id="arr-memory" markerWidth="10" markerHeight="7" refX="9" refY="3.5" orient="auto"><polygon points="0,0 10,3.5 0,7" fill="#db2777"/></marker>
    <marker id="arr-error" markerWidth="10" markerHeight="7" refX="9" refY="3.5" orient="auto"><polygon points="0,0 10,3.5 0,7" fill="#dc2626"/></marker>
  </defs>
  <rect width="1040" height="460" fill="#ffffff"/>
  <rect width="1040" height="460" fill="url(#grid)"/>
  <text x="520" y="36" text-anchor="middle" font-size="18" font-weight="700" fill="#0f172a">구조화 출력 파이프라인</text>
  <text x="520" y="58" text-anchor="middle" font-size="12" fill="#64748b">JSON을 부탁하고 → 검증 → 통과 or 재시도 or fallback</text>
  <path d="M 180,235 L 220,235" stroke="#6b7280" stroke-width="1.8" fill="none" marker-end="url(#arr)"/>
  <path d="M 360,235 L 420,235" stroke="#6b7280" stroke-width="1.8" fill="none" marker-end="url(#arr)"/>
  <path d="M 560,235 L 620,235" stroke="#6b7280" stroke-width="1.8" fill="none" marker-end="url(#arr)"/>
  <path d="M 640,280 L 360,385" stroke="#059669" stroke-width="1.5" fill="none" marker-end="url(#arr-output)"/>
  <rect x="474.5" y="305.5" width="51" height="18" rx="4" fill="#ffffff" stroke="#e5e7eb" stroke-width="0.8"/>
  <text x="500.0" y="318.5" text-anchor="middle" font-size="11" font-family="JetBrains Mono, monospace" fill="#475569">valid</text>
  <path d="M 690,280 L 550,340" stroke="#ca8a04" stroke-width="1.5" fill="none" marker-end="url(#arr-gate)" stroke-dasharray="3,3"/>
  <rect x="577.0" y="283.0" width="86" height="18" rx="4" fill="#ffffff" stroke="#e5e7eb" stroke-width="0.8"/>
  <text x="620.0" y="296.0" text-anchor="middle" font-size="11" font-family="JetBrains Mono, monospace" fill="#475569">parse fail</text>
  <path d="M 740,280 L 740,385" stroke="#dc2626" stroke-width="1.8" fill="none" marker-end="url(#arr-error)"/>
  <rect x="714.5" y="305.5" width="51" height="18" rx="4" fill="#ffffff" stroke="#e5e7eb" stroke-width="0.8"/>
  <text x="740.0" y="318.5" text-anchor="middle" font-size="11" font-family="JetBrains Mono, monospace" fill="#475569">N회 실패</text>
  <path d="M 550,340 L 550,130 L 290,130 L 290,190" stroke="#059669" stroke-width="1.5" fill="none" marker-end="url(#arr-token)" stroke-dasharray="5,3"/>
  <rect x="380.5" y="109" width="79" height="18" rx="4" fill="#ffffff" stroke="#e5e7eb" stroke-width="0.8"/>
  <text x="420" y="122" text-anchor="middle" font-size="11" font-family="JetBrains Mono, monospace" fill="#475569">에러 포함 재질의</text>
  <rect x="40" y="190" width="140" height="90" rx="10" fill="#ffffff"/>
  <rect x="40" y="190" width="140" height="90" rx="10" fill="#e3f2fd" stroke="#2563eb" stroke-width="1.5"/>
  <text x="110.0" y="231.0" text-anchor="middle" font-size="14" font-weight="700" fill="#0d47a1">요청</text>
  <text x="110.0" y="247.0" text-anchor="middle" font-size="11" font-family="JetBrains Mono, monospace" fill="#1e40af">user input</text>
  <rect x="220" y="190" width="140" height="90" rx="10" fill="#ffffff"/>
  <rect x="220" y="190" width="140" height="90" rx="10" fill="#f3e8ff" stroke="#7c3aed" stroke-width="1.5"/>
  <text x="290.0" y="231.0" text-anchor="middle" font-size="14" font-weight="700" fill="#4c1d95">LLM</text>
  <text x="290.0" y="247.0" text-anchor="middle" font-size="11" font-family="JetBrains Mono, monospace" fill="#6d28d9">JSON 생성</text>
  <rect x="420" y="190" width="140" height="90" rx="10" fill="#ffffff"/>
  <rect x="420" y="190" width="140" height="90" rx="10" fill="#cffafe" stroke="#0891b2" stroke-width="1.5"/>
  <text x="490.0" y="231.0" text-anchor="middle" font-size="14" font-weight="700" fill="#083344">파싱</text>
  <text x="490.0" y="247.0" text-anchor="middle" font-size="11" font-family="JetBrains Mono, monospace" fill="#0e7490">json.loads</text>
  <rect x="620" y="190" width="140" height="90" rx="10" fill="#ffffff"/>
  <rect x="620" y="190" width="140" height="90" rx="10" fill="#fef9c3" stroke="#ca8a04" stroke-width="1.5"/>
  <text x="690.0" y="231.0" text-anchor="middle" font-size="14" font-weight="700" fill="#713f12">검증</text>
  <text x="690.0" y="247.0" text-anchor="middle" font-size="11" font-family="JetBrains Mono, monospace" fill="#a16207">Pydantic</text>
  <rect x="220" y="340" width="140" height="90" rx="10" fill="#ffffff"/>
  <rect x="220" y="340" width="140" height="90" rx="10" fill="#d1fae5" stroke="#059669" stroke-width="1.5"/>
  <text x="290.0" y="381.0" text-anchor="middle" font-size="14" font-weight="700" fill="#064e3b">통과</text>
  <text x="290.0" y="397.0" text-anchor="middle" font-size="11" font-family="JetBrains Mono, monospace" fill="#047857">dict → 사용</text>
  <rect x="480" y="340" width="140" height="90" rx="10" fill="#ffffff"/>
  <rect x="480" y="340" width="140" height="90" rx="10" fill="#fce7f3" stroke="#db2777" stroke-width="1.5"/>
  <text x="550.0" y="381.0" text-anchor="middle" font-size="14" font-weight="700" fill="#500724">재시도</text>
  <text x="550.0" y="397.0" text-anchor="middle" font-size="11" font-family="JetBrains Mono, monospace" fill="#be185d">with error ctx</text>
  <rect x="740" y="340" width="140" height="90" rx="10" fill="#ffffff"/>
  <rect x="740" y="340" width="140" height="90" rx="10" fill="#fee2e2" stroke="#dc2626" stroke-width="1.5"/>
  <text x="810.0" y="381.0" text-anchor="middle" font-size="14" font-weight="700" fill="#7f1d1d">Fallback</text>
  <text x="810.0" y="397.0" text-anchor="middle" font-size="11" font-family="JetBrains Mono, monospace" fill="#b91c1c">규칙/기본값</text>
</svg>