<svg xmlns="http://www.w3.org/2000/svg" viewBox="0 0 1040 460" font-family="Pretendard, -apple-system, BlinkMacSystemFont, sans-serif">
  <defs>
    <pattern id="grid" width="40" height="40" patternUnits="userSpaceOnUse">
      <path d="M 40 0 L 0 0 0 40" fill="none" stroke="#1e293b" stroke-width="0.5"/>
    </pattern>
    <marker id="arr" markerWidth="10" markerHeight="7" refX="9" refY="3.5" orient="auto"><polygon points="0,0 10,3.5 0,7" fill="#64748b"/></marker>
    <marker id="arr-input" markerWidth="10" markerHeight="7" refX="9" refY="3.5" orient="auto"><polygon points="0,0 10,3.5 0,7" fill="#60a5fa"/></marker>
    <marker id="arr-llm" markerWidth="10" markerHeight="7" refX="9" refY="3.5" orient="auto"><polygon points="0,0 10,3.5 0,7" fill="#fb923c"/></marker>
    <marker id="arr-model" markerWidth="10" markerHeight="7" refX="9" refY="3.5" orient="auto"><polygon points="0,0 10,3.5 0,7" fill="#a78bfa"/></marker>
    <marker id="arr-token" markerWidth="10" markerHeight="7" refX="9" refY="3.5" orient="auto"><polygon points="0,0 10,3.5 0,7" fill="#34d399"/></marker>
    <marker id="arr-output" markerWidth="10" markerHeight="7" refX="9" refY="3.5" orient="auto"><polygon points="0,0 10,3.5 0,7" fill="#34d399"/></marker>
    <marker id="arr-gate" markerWidth="10" markerHeight="7" refX="9" refY="3.5" orient="auto"><polygon points="0,0 10,3.5 0,7" fill="#fbbf24"/></marker>
    <marker id="arr-tool" markerWidth="10" markerHeight="7" refX="9" refY="3.5" orient="auto"><polygon points="0,0 10,3.5 0,7" fill="#22d3ee"/></marker>
    <marker id="arr-memory" markerWidth="10" markerHeight="7" refX="9" refY="3.5" orient="auto"><polygon points="0,0 10,3.5 0,7" fill="#f472b6"/></marker>
    <marker id="arr-error" markerWidth="10" markerHeight="7" refX="9" refY="3.5" orient="auto"><polygon points="0,0 10,3.5 0,7" fill="#f87171"/></marker>
  </defs>
  <rect width="1040" height="460" fill="#020617"/>
  <rect width="1040" height="460" fill="url(#grid)"/>
  <text x="520" y="36" text-anchor="middle" font-size="18" font-weight="700" fill="#f1f5f9">구조화 출력 파이프라인</text>
  <text x="520" y="58" text-anchor="middle" font-size="12" fill="#94a3b8">JSON을 부탁하고 → 검증 → 통과 or 재시도 or fallback</text>
  <path d="M 180,235 L 220,235" stroke="#64748b" stroke-width="1.8" fill="none" marker-end="url(#arr)"/>
  <path d="M 360,235 L 420,235" stroke="#64748b" stroke-width="1.8" fill="none" marker-end="url(#arr)"/>
  <path d="M 560,235 L 620,235" stroke="#64748b" stroke-width="1.8" fill="none" marker-end="url(#arr)"/>
  <path d="M 640,280 L 360,385" stroke="#34d399" stroke-width="1.5" fill="none" marker-end="url(#arr-output)"/>
  <rect x="474.5" y="305.5" width="51" height="18" rx="4" fill="#0f172a" stroke="#334155" stroke-width="0.8"/>
  <text x="500.0" y="318.5" text-anchor="middle" font-size="11" font-family="JetBrains Mono, monospace" fill="#94a3b8">valid</text>
  <path d="M 690,280 L 550,340" stroke="#fbbf24" stroke-width="1.5" fill="none" marker-end="url(#arr-gate)" stroke-dasharray="3,3"/>
  <rect x="577.0" y="283.0" width="86" height="18" rx="4" fill="#0f172a" stroke="#334155" stroke-width="0.8"/>
  <text x="620.0" y="296.0" text-anchor="middle" font-size="11" font-family="JetBrains Mono, monospace" fill="#94a3b8">parse fail</text>
  <path d="M 740,280 L 740,385" stroke="#f87171" stroke-width="1.8" fill="none" marker-end="url(#arr-error)"/>
  <rect x="714.5" y="305.5" width="51" height="18" rx="4" fill="#0f172a" stroke="#334155" stroke-width="0.8"/>
  <text x="740.0" y="318.5" text-anchor="middle" font-size="11" font-family="JetBrains Mono, monospace" fill="#94a3b8">N회 실패</text>
  <path d="M 550,340 L 550,130 L 290,130 L 290,190" stroke="#34d399" stroke-width="1.5" fill="none" marker-end="url(#arr-token)" stroke-dasharray="5,3"/>
  <rect x="380.5" y="109" width="79" height="18" rx="4" fill="#0f172a" stroke="#334155" stroke-width="0.8"/>
  <text x="420" y="122" text-anchor="middle" font-size="11" font-family="JetBrains Mono, monospace" fill="#94a3b8">에러 포함 재질의</text>
  <rect x="40" y="190" width="140" height="90" rx="10" fill="#0f172a"/>
  <rect x="40" y="190" width="140" height="90" rx="10" fill="rgba(96,165,250,0.15)" stroke="#60a5fa" stroke-width="1.5"/>
  <text x="110.0" y="231.0" text-anchor="middle" font-size="14" font-weight="700" fill="#bfdbfe">요청</text>
  <text x="110.0" y="247.0" text-anchor="middle" font-size="11" font-family="JetBrains Mono, monospace" fill="#60a5fa">user input</text>
  <rect x="220" y="190" width="140" height="90" rx="10" fill="#0f172a"/>
  <rect x="220" y="190" width="140" height="90" rx="10" fill="rgba(167,139,250,0.15)" stroke="#a78bfa" stroke-width="1.5"/>
  <text x="290.0" y="231.0" text-anchor="middle" font-size="14" font-weight="700" fill="#ddd6fe">LLM</text>
  <text x="290.0" y="247.0" text-anchor="middle" font-size="11" font-family="JetBrains Mono, monospace" fill="#a78bfa">JSON 생성</text>
  <rect x="420" y="190" width="140" height="90" rx="10" fill="#0f172a"/>
  <rect x="420" y="190" width="140" height="90" rx="10" fill="rgba(34,211,238,0.15)" stroke="#22d3ee" stroke-width="1.5"/>
  <text x="490.0" y="231.0" text-anchor="middle" font-size="14" font-weight="700" fill="#a5f3fc">파싱</text>
  <text x="490.0" y="247.0" text-anchor="middle" font-size="11" font-family="JetBrains Mono, monospace" fill="#22d3ee">json.loads</text>
  <rect x="620" y="190" width="140" height="90" rx="10" fill="#0f172a"/>
  <rect x="620" y="190" width="140" height="90" rx="10" fill="rgba(251,191,36,0.15)" stroke="#fbbf24" stroke-width="1.5"/>
  <text x="690.0" y="231.0" text-anchor="middle" font-size="14" font-weight="700" fill="#fde68a">검증</text>
  <text x="690.0" y="247.0" text-anchor="middle" font-size="11" font-family="JetBrains Mono, monospace" fill="#fbbf24">Pydantic</text>
  <rect x="220" y="340" width="140" height="90" rx="10" fill="#0f172a"/>
  <rect x="220" y="340" width="140" height="90" rx="10" fill="rgba(52,211,153,0.2)" stroke="#34d399" stroke-width="1.5"/>
  <text x="290.0" y="381.0" text-anchor="middle" font-size="14" font-weight="700" fill="#a7f3d0">통과</text>
  <text x="290.0" y="397.0" text-anchor="middle" font-size="11" font-family="JetBrains Mono, monospace" fill="#34d399">dict → 사용</text>
  <rect x="480" y="340" width="140" height="90" rx="10" fill="#0f172a"/>
  <rect x="480" y="340" width="140" height="90" rx="10" fill="rgba(244,114,182,0.15)" stroke="#f472b6" stroke-width="1.5"/>
  <text x="550.0" y="381.0" text-anchor="middle" font-size="14" font-weight="700" fill="#fbcfe8">재시도</text>
  <text x="550.0" y="397.0" text-anchor="middle" font-size="11" font-family="JetBrains Mono, monospace" fill="#f472b6">with error ctx</text>
  <rect x="740" y="340" width="140" height="90" rx="10" fill="#0f172a"/>
  <rect x="740" y="340" width="140" height="90" rx="10" fill="rgba(248,113,113,0.15)" stroke="#f87171" stroke-width="1.5"/>
  <text x="810.0" y="381.0" text-anchor="middle" font-size="14" font-weight="700" fill="#fecaca">Fallback</text>
  <text x="810.0" y="397.0" text-anchor="middle" font-size="11" font-family="JetBrains Mono, monospace" fill="#f87171">규칙/기본값</text>
</svg>