<svg xmlns="http://www.w3.org/2000/svg" viewBox="0 0 1040 400" font-family="Pretendard, -apple-system, BlinkMacSystemFont, sans-serif">
  <defs>
    <pattern id="grid" width="40" height="40" patternUnits="userSpaceOnUse">
      <path d="M 40 0 L 0 0 0 40" fill="none" stroke="#f1f5f9" stroke-width="0.5"/>
    </pattern>
    <marker id="arr" markerWidth="10" markerHeight="7" refX="9" refY="3.5" orient="auto"><polygon points="0,0 10,3.5 0,7" fill="#6b7280"/></marker>
    <marker id="arr-input" markerWidth="10" markerHeight="7" refX="9" refY="3.5" orient="auto"><polygon points="0,0 10,3.5 0,7" fill="#2563eb"/></marker>
    <marker id="arr-llm" markerWidth="10" markerHeight="7" refX="9" refY="3.5" orient="auto"><polygon points="0,0 10,3.5 0,7" fill="#ea580c"/></marker>
    <marker id="arr-model" markerWidth="10" markerHeight="7" refX="9" refY="3.5" orient="auto"><polygon points="0,0 10,3.5 0,7" fill="#7c3aed"/></marker>
    <marker id="arr-token" markerWidth="10" markerHeight="7" refX="9" refY="3.5" orient="auto"><polygon points="0,0 10,3.5 0,7" fill="#059669"/></marker>
    <marker id="arr-output" markerWidth="10" markerHeight="7" refX="9" refY="3.5" orient="auto"><polygon points="0,0 10,3.5 0,7" fill="#059669"/></marker>
    <marker id="arr-gate" markerWidth="10" markerHeight="7" refX="9" refY="3.5" orient="auto"><polygon points="0,0 10,3.5 0,7" fill="#ca8a04"/></marker>
    <marker id="arr-tool" markerWidth="10" markerHeight="7" refX="9" refY="3.5" orient="auto"><polygon points="0,0 10,3.5 0,7" fill="#0891b2"/></marker>
    <marker id="arr-memory" markerWidth="10" markerHeight="7" refX="9" refY="3.5" orient="auto"><polygon points="0,0 10,3.5 0,7" fill="#db2777"/></marker>
    <marker id="arr-error" markerWidth="10" markerHeight="7" refX="9" refY="3.5" orient="auto"><polygon points="0,0 10,3.5 0,7" fill="#dc2626"/></marker>
  </defs>
  <rect width="1040" height="400" fill="#ffffff"/>
  <rect width="1040" height="400" fill="url(#grid)"/>
  <text x="520" y="36" text-anchor="middle" font-size="18" font-weight="700" fill="#0f172a">Blocking vs Streaming</text>
  <text x="520" y="58" text-anchor="middle" font-size="12" fill="#64748b">같은 5초 응답을 사용자는 어떻게 경험하는가</text>
  <text x="40" y="136" font-size="13" font-weight="700" fill="#0f172a">한 번에</text>
  <text x="40" y="152" font-size="10" fill="#64748b" font-family="JetBrains Mono, monospace">blocking</text>
  <rect x="100" y="110" width="80" height="60" rx="10" fill="#ffffff"/>
  <rect x="100" y="110" width="80" height="60" rx="10" fill="#e3f2fd" stroke="#2563eb" stroke-width="1.5"/>
  <text x="140.0" y="136.0" text-anchor="middle" font-size="14" font-weight="700" fill="#0d47a1">요청</text>
  <text x="140.0" y="152.0" text-anchor="middle" font-size="11" font-family="JetBrains Mono, monospace" fill="#1e40af">POST</text>
  <rect x="180" y="125" width="710.0" height="30" rx="6" fill="#fee2e2" stroke="#dc2626" stroke-width="1" stroke-dasharray="4,3"/>
  <text x="535.0" y="144" text-anchor="middle" font-size="12" font-weight="600" fill="#7f1d1d">대기 · 사용자는 빈 화면</text>
  <rect x="895.0" y="110" width="120" height="60" rx="10" fill="#ffffff"/>
  <rect x="895.0" y="110" width="120" height="60" rx="10" fill="#d1fae5" stroke="#059669" stroke-width="1.5"/>
  <text x="955.0" y="136.0" text-anchor="middle" font-size="14" font-weight="700" fill="#064e3b">전체 응답</text>
  <text x="955.0" y="152.0" text-anchor="middle" font-size="11" font-family="JetBrains Mono, monospace" fill="#047857">at 5.0s</text>
  <text x="40" y="246" font-size="13" font-weight="700" fill="#0f172a">스트리밍</text>
  <text x="40" y="262" font-size="10" fill="#64748b" font-family="JetBrains Mono, monospace">streaming</text>
  <rect x="100" y="220" width="80" height="60" rx="10" fill="#ffffff"/>
  <rect x="100" y="220" width="80" height="60" rx="10" fill="#e3f2fd" stroke="#2563eb" stroke-width="1.5"/>
  <text x="140.0" y="246.0" text-anchor="middle" font-size="14" font-weight="700" fill="#0d47a1">요청</text>
  <text x="140.0" y="262.0" text-anchor="middle" font-size="11" font-family="JetBrains Mono, monospace" fill="#1e40af">POST</text>
  <rect x="180" y="240" width="43.19999999999999" height="20" rx="4" fill="#fef9c3" stroke="#ca8a04" stroke-width="1"/>
  <text x="201.0" y="254" text-anchor="middle" font-size="10" fill="#713f12" font-family="JetBrains Mono, monospace">TTFT 0.3s</text>
  <rect x="248.39999999999998" y="232" width="24" height="36" rx="4" fill="#dcfce7" stroke="#059669" stroke-width="1"/>
  <text x="260.4" y="256" text-anchor="middle" font-size="9" fill="#064e3b" font-family="JetBrains Mono, monospace">t</text>
  <rect x="306.0" y="232" width="24" height="36" rx="4" fill="#dcfce7" stroke="#059669" stroke-width="1"/>
  <text x="318.0" y="256" text-anchor="middle" font-size="9" fill="#064e3b" font-family="JetBrains Mono, monospace">t</text>
  <rect x="378.0" y="232" width="24" height="36" rx="4" fill="#dcfce7" stroke="#059669" stroke-width="1"/>
  <text x="390.0" y="256" text-anchor="middle" font-size="9" fill="#064e3b" font-family="JetBrains Mono, monospace">t</text>
  <rect x="478.80000000000007" y="232" width="24" height="36" rx="4" fill="#dcfce7" stroke="#059669" stroke-width="1"/>
  <text x="490.80000000000007" y="256" text-anchor="middle" font-size="9" fill="#064e3b" font-family="JetBrains Mono, monospace">t</text>
  <rect x="594.0" y="232" width="24" height="36" rx="4" fill="#dcfce7" stroke="#059669" stroke-width="1"/>
  <text x="606.0" y="256" text-anchor="middle" font-size="9" fill="#064e3b" font-family="JetBrains Mono, monospace">t</text>
  <rect x="709.2" y="232" width="24" height="36" rx="4" fill="#dcfce7" stroke="#059669" stroke-width="1"/>
  <text x="721.2" y="256" text-anchor="middle" font-size="9" fill="#064e3b" font-family="JetBrains Mono, monospace">t</text>
  <rect x="810.0" y="232" width="24" height="36" rx="4" fill="#dcfce7" stroke="#059669" stroke-width="1"/>
  <text x="822.0" y="256" text-anchor="middle" font-size="9" fill="#064e3b" font-family="JetBrains Mono, monospace">t</text>
  <rect x="882.0" y="232" width="24" height="36" rx="4" fill="#dcfce7" stroke="#059669" stroke-width="1"/>
  <text x="894.0" y="256" text-anchor="middle" font-size="9" fill="#064e3b" font-family="JetBrains Mono, monospace">t</text>
  <text x="554" y="210" text-anchor="middle" font-size="11" fill="#64748b">사용자는 토큰이 들어오는 대로 화면에서 봄</text>
  <line x1="180" y1="330" x2="900" y2="330" stroke="#6b7280" stroke-width="1.5"/>
  <line x1="180.0" y1="330" x2="180.0" y2="336" stroke="#6b7280" stroke-width="1"/>
  <text x="180.0" y="352" text-anchor="middle" font-size="11" fill="#64748b" font-family="JetBrains Mono, monospace">0s</text>
  <line x1="324.0" y1="330" x2="324.0" y2="336" stroke="#6b7280" stroke-width="1"/>
  <text x="324.0" y="352" text-anchor="middle" font-size="11" fill="#64748b" font-family="JetBrains Mono, monospace">1s</text>
  <line x1="468.0" y1="330" x2="468.0" y2="336" stroke="#6b7280" stroke-width="1"/>
  <text x="468.0" y="352" text-anchor="middle" font-size="11" fill="#64748b" font-family="JetBrains Mono, monospace">2s</text>
  <line x1="612.0" y1="330" x2="612.0" y2="336" stroke="#6b7280" stroke-width="1"/>
  <text x="612.0" y="352" text-anchor="middle" font-size="11" fill="#64748b" font-family="JetBrains Mono, monospace">3s</text>
  <line x1="756.0" y1="330" x2="756.0" y2="336" stroke="#6b7280" stroke-width="1"/>
  <text x="756.0" y="352" text-anchor="middle" font-size="11" fill="#64748b" font-family="JetBrains Mono, monospace">4s</text>
  <line x1="900.0" y1="330" x2="900.0" y2="336" stroke="#6b7280" stroke-width="1"/>
  <text x="900.0" y="352" text-anchor="middle" font-size="11" fill="#64748b" font-family="JetBrains Mono, monospace">5s</text>
  <text x="170" y="352" text-anchor="end" font-size="11" fill="#64748b">시간 →</text>
</svg>