<svg xmlns="http://www.w3.org/2000/svg" viewBox="0 0 800 200" font-family="Pretendard, -apple-system, BlinkMacSystemFont, sans-serif">
  <defs>
    <pattern id="grid" width="40" height="40" patternUnits="userSpaceOnUse">
      <path d="M 40 0 L 0 0 0 40" fill="none" stroke="#f1f5f9" stroke-width="0.5"/>
    </pattern>
    <marker id="arr" markerWidth="10" markerHeight="7" refX="9" refY="3.5" orient="auto"><polygon points="0,0 10,3.5 0,7" fill="#6b7280"/></marker>
    <marker id="arr-input" markerWidth="10" markerHeight="7" refX="9" refY="3.5" orient="auto"><polygon points="0,0 10,3.5 0,7" fill="#2563eb"/></marker>
    <marker id="arr-llm" markerWidth="10" markerHeight="7" refX="9" refY="3.5" orient="auto"><polygon points="0,0 10,3.5 0,7" fill="#ea580c"/></marker>
    <marker id="arr-model" markerWidth="10" markerHeight="7" refX="9" refY="3.5" orient="auto"><polygon points="0,0 10,3.5 0,7" fill="#7c3aed"/></marker>
    <marker id="arr-token" markerWidth="10" markerHeight="7" refX="9" refY="3.5" orient="auto"><polygon points="0,0 10,3.5 0,7" fill="#059669"/></marker>
    <marker id="arr-output" markerWidth="10" markerHeight="7" refX="9" refY="3.5" orient="auto"><polygon points="0,0 10,3.5 0,7" fill="#059669"/></marker>
    <marker id="arr-gate" markerWidth="10" markerHeight="7" refX="9" refY="3.5" orient="auto"><polygon points="0,0 10,3.5 0,7" fill="#ca8a04"/></marker>
    <marker id="arr-tool" markerWidth="10" markerHeight="7" refX="9" refY="3.5" orient="auto"><polygon points="0,0 10,3.5 0,7" fill="#0891b2"/></marker>
    <marker id="arr-memory" markerWidth="10" markerHeight="7" refX="9" refY="3.5" orient="auto"><polygon points="0,0 10,3.5 0,7" fill="#db2777"/></marker>
    <marker id="arr-error" markerWidth="10" markerHeight="7" refX="9" refY="3.5" orient="auto"><polygon points="0,0 10,3.5 0,7" fill="#dc2626"/></marker>
  </defs>
  <rect width="800" height="200" fill="#ffffff"/>
  <rect width="800" height="200" fill="url(#grid)"/>
  <text x="400" y="36" text-anchor="middle" font-size="18" font-weight="700" fill="#0f172a">흔한 오해</text>
  <text x="400" y="58" text-anchor="middle" font-size="12" fill="#64748b">"Assistant = 프롬프트 하나"</text>
  <path d="M 304,130 L 328,130" stroke="#6b7280" stroke-width="1.8" fill="none" marker-end="url(#arr)"/>
  <path d="M 472,130 L 496,130" stroke="#6b7280" stroke-width="1.8" fill="none" marker-end="url(#arr)"/>
  <rect x="162" y="90" width="140" height="80" rx="10" fill="#ffffff"/>
  <rect x="162" y="90" width="140" height="80" rx="10" fill="#e3f2fd" stroke="#2563eb" stroke-width="1.5"/>
  <text x="232.0" y="126.0" text-anchor="middle" font-size="14" font-weight="700" fill="#0d47a1">사용자</text>
  <text x="232.0" y="142.0" text-anchor="middle" font-size="11" font-family="JetBrains Mono, monospace" fill="#1e40af">message</text>
  <rect x="330" y="90" width="140" height="80" rx="10" fill="#ffffff"/>
  <rect x="330" y="90" width="140" height="80" rx="10" fill="#f3e8ff" stroke="#7c3aed" stroke-width="1.5"/>
  <text x="400.0" y="126.0" text-anchor="middle" font-size="14" font-weight="700" fill="#4c1d95">LLM</text>
  <text x="400.0" y="142.0" text-anchor="middle" font-size="11" font-family="JetBrains Mono, monospace" fill="#6d28d9">one call</text>
  <rect x="498" y="90" width="140" height="80" rx="10" fill="#ffffff"/>
  <rect x="498" y="90" width="140" height="80" rx="10" fill="#d1fae5" stroke="#059669" stroke-width="1.5"/>
  <text x="568.0" y="126.0" text-anchor="middle" font-size="14" font-weight="700" fill="#064e3b">응답</text>
  <text x="568.0" y="142.0" text-anchor="middle" font-size="11" font-family="JetBrains Mono, monospace" fill="#047857">done</text>
</svg>