<svg xmlns="http://www.w3.org/2000/svg" viewBox="0 0 960 260" font-family="Pretendard, -apple-system, BlinkMacSystemFont, sans-serif">
  <defs>
    <pattern id="grid" width="40" height="40" patternUnits="userSpaceOnUse">
      <path d="M 40 0 L 0 0 0 40" fill="none" stroke="#1e293b" stroke-width="0.5"/>
    </pattern>
    <marker id="arr" markerWidth="10" markerHeight="7" refX="9" refY="3.5" orient="auto"><polygon points="0,0 10,3.5 0,7" fill="#64748b"/></marker>
    <marker id="arr-input" markerWidth="10" markerHeight="7" refX="9" refY="3.5" orient="auto"><polygon points="0,0 10,3.5 0,7" fill="#60a5fa"/></marker>
    <marker id="arr-llm" markerWidth="10" markerHeight="7" refX="9" refY="3.5" orient="auto"><polygon points="0,0 10,3.5 0,7" fill="#fb923c"/></marker>
    <marker id="arr-model" markerWidth="10" markerHeight="7" refX="9" refY="3.5" orient="auto"><polygon points="0,0 10,3.5 0,7" fill="#a78bfa"/></marker>
    <marker id="arr-token" markerWidth="10" markerHeight="7" refX="9" refY="3.5" orient="auto"><polygon points="0,0 10,3.5 0,7" fill="#34d399"/></marker>
    <marker id="arr-output" markerWidth="10" markerHeight="7" refX="9" refY="3.5" orient="auto"><polygon points="0,0 10,3.5 0,7" fill="#34d399"/></marker>
    <marker id="arr-gate" markerWidth="10" markerHeight="7" refX="9" refY="3.5" orient="auto"><polygon points="0,0 10,3.5 0,7" fill="#fbbf24"/></marker>
    <marker id="arr-tool" markerWidth="10" markerHeight="7" refX="9" refY="3.5" orient="auto"><polygon points="0,0 10,3.5 0,7" fill="#22d3ee"/></marker>
    <marker id="arr-memory" markerWidth="10" markerHeight="7" refX="9" refY="3.5" orient="auto"><polygon points="0,0 10,3.5 0,7" fill="#f472b6"/></marker>
    <marker id="arr-error" markerWidth="10" markerHeight="7" refX="9" refY="3.5" orient="auto"><polygon points="0,0 10,3.5 0,7" fill="#f87171"/></marker>
  </defs>
  <rect width="960" height="260" fill="#020617"/>
  <rect width="960" height="260" fill="url(#grid)"/>
  <text x="480" y="36" text-anchor="middle" font-size="17" font-weight="700" fill="#f1f5f9">컨텍스트 윈도우 = 한 번에 보이는 종이</text>
  <text x="480" y="58" text-anchor="middle" font-size="12" fill="#94a3b8">예: 200,000 토큰</text>
  <path d="M 228,150 L 246,150" stroke="#64748b" stroke-width="1.8" fill="none" marker-end="url(#arr)"/>
  <path d="M 390,150 L 408,150" stroke="#64748b" stroke-width="1.8" fill="none" marker-end="url(#arr)"/>
  <path d="M 552,150 L 570,150" stroke="#64748b" stroke-width="1.8" fill="none" marker-end="url(#arr)"/>
  <path d="M 714,150 L 732,150" stroke="#64748b" stroke-width="1.8" fill="none" marker-end="url(#arr)"/>
  <rect x="86" y="110" width="140" height="105" rx="10" fill="#0f172a"/>
  <rect x="86" y="110" width="140" height="105" rx="10" fill="rgba(248,113,113,0.15)" stroke="#f87171" stroke-width="1.5"/>
  <text x="156.0" y="158.5" text-anchor="middle" font-size="14" font-weight="700" fill="#fecaca">예전 대화</text>
  <text x="156.0" y="174.5" text-anchor="middle" font-size="11" font-family="JetBrains Mono, monospace" fill="#f87171">truncated</text>
  <text x="156.0" y="190.5" text-anchor="middle" font-size="10" fill="#f87171">잘려나감</text>
  <rect x="248" y="110" width="140" height="105" rx="10" fill="#0f172a"/>
  <rect x="248" y="110" width="140" height="105" rx="10" fill="rgba(96,165,250,0.15)" stroke="#60a5fa" stroke-width="1.5"/>
  <text x="318.0" y="158.5" text-anchor="middle" font-size="14" font-weight="700" fill="#bfdbfe">시스템 프롬프트</text>
  <text x="318.0" y="174.5" text-anchor="middle" font-size="11" font-family="JetBrains Mono, monospace" fill="#60a5fa">system</text>
  <rect x="410" y="110" width="140" height="105" rx="10" fill="#0f172a"/>
  <rect x="410" y="110" width="140" height="105" rx="10" fill="rgba(96,165,250,0.15)" stroke="#60a5fa" stroke-width="1.5"/>
  <text x="480.0" y="158.5" text-anchor="middle" font-size="14" font-weight="700" fill="#bfdbfe">최근 대화</text>
  <text x="480.0" y="174.5" text-anchor="middle" font-size="11" font-family="JetBrains Mono, monospace" fill="#60a5fa">history</text>
  <rect x="572" y="110" width="140" height="105" rx="10" fill="#0f172a"/>
  <rect x="572" y="110" width="140" height="105" rx="10" fill="rgba(96,165,250,0.15)" stroke="#60a5fa" stroke-width="1.5"/>
  <text x="642.0" y="158.5" text-anchor="middle" font-size="14" font-weight="700" fill="#bfdbfe">현재 질문</text>
  <text x="642.0" y="174.5" text-anchor="middle" font-size="11" font-family="JetBrains Mono, monospace" fill="#60a5fa">user</text>
  <rect x="734" y="110" width="140" height="105" rx="10" fill="#0f172a"/>
  <rect x="734" y="110" width="140" height="105" rx="10" fill="rgba(52,211,153,0.2)" stroke="#34d399" stroke-width="1.5"/>
  <text x="804.0" y="158.5" text-anchor="middle" font-size="14" font-weight="700" fill="#a7f3d0">응답 자리</text>
  <text x="804.0" y="174.5" text-anchor="middle" font-size="11" font-family="JetBrains Mono, monospace" fill="#34d399">assistant</text>
</svg>