<svg xmlns="http://www.w3.org/2000/svg" viewBox="0 0 1200 200" font-family="Pretendard, -apple-system, BlinkMacSystemFont, sans-serif">
  <defs>
    <pattern id="grid" width="40" height="40" patternUnits="userSpaceOnUse">
      <path d="M 40 0 L 0 0 0 40" fill="none" stroke="#1e293b" stroke-width="0.5"/>
    </pattern>
    <marker id="arr" markerWidth="10" markerHeight="7" refX="9" refY="3.5" orient="auto"><polygon points="0,0 10,3.5 0,7" fill="#64748b"/></marker>
    <marker id="arr-input" markerWidth="10" markerHeight="7" refX="9" refY="3.5" orient="auto"><polygon points="0,0 10,3.5 0,7" fill="#60a5fa"/></marker>
    <marker id="arr-llm" markerWidth="10" markerHeight="7" refX="9" refY="3.5" orient="auto"><polygon points="0,0 10,3.5 0,7" fill="#fb923c"/></marker>
    <marker id="arr-model" markerWidth="10" markerHeight="7" refX="9" refY="3.5" orient="auto"><polygon points="0,0 10,3.5 0,7" fill="#a78bfa"/></marker>
    <marker id="arr-token" markerWidth="10" markerHeight="7" refX="9" refY="3.5" orient="auto"><polygon points="0,0 10,3.5 0,7" fill="#34d399"/></marker>
    <marker id="arr-output" markerWidth="10" markerHeight="7" refX="9" refY="3.5" orient="auto"><polygon points="0,0 10,3.5 0,7" fill="#34d399"/></marker>
    <marker id="arr-gate" markerWidth="10" markerHeight="7" refX="9" refY="3.5" orient="auto"><polygon points="0,0 10,3.5 0,7" fill="#fbbf24"/></marker>
    <marker id="arr-tool" markerWidth="10" markerHeight="7" refX="9" refY="3.5" orient="auto"><polygon points="0,0 10,3.5 0,7" fill="#22d3ee"/></marker>
    <marker id="arr-memory" markerWidth="10" markerHeight="7" refX="9" refY="3.5" orient="auto"><polygon points="0,0 10,3.5 0,7" fill="#f472b6"/></marker>
    <marker id="arr-error" markerWidth="10" markerHeight="7" refX="9" refY="3.5" orient="auto"><polygon points="0,0 10,3.5 0,7" fill="#f87171"/></marker>
  </defs>
  <rect width="1200" height="200" fill="#020617"/>
  <rect width="1200" height="200" fill="url(#grid)"/>
  <text x="600" y="30" text-anchor="middle" font-size="17" font-weight="700" fill="#f1f5f9">LLM 한 번의 호출, 전체 흐름</text>
  <path d="M 192,115 L 208,115" stroke="#64748b" stroke-width="1.8" fill="none" marker-end="url(#arr)"/>
  <path d="M 352,115 L 368,115" stroke="#64748b" stroke-width="1.8" fill="none" marker-end="url(#arr)"/>
  <path d="M 512,115 L 528,115" stroke="#64748b" stroke-width="1.8" fill="none" marker-end="url(#arr)"/>
  <path d="M 672,115 L 688,115" stroke="#64748b" stroke-width="1.8" fill="none" marker-end="url(#arr)"/>
  <path d="M 832,115 L 848,115" stroke="#64748b" stroke-width="1.8" fill="none" marker-end="url(#arr)"/>
  <path d="M 992,115 L 1008,115" stroke="#64748b" stroke-width="1.8" fill="none" marker-end="url(#arr)"/>
  <rect x="50" y="75" width="140" height="80" rx="10" fill="#0f172a"/>
  <rect x="50" y="75" width="140" height="80" rx="10" fill="rgba(96,165,250,0.15)" stroke="#60a5fa" stroke-width="1.5"/>
  <text x="120.0" y="111.0" text-anchor="middle" font-size="14" font-weight="700" fill="#bfdbfe">텍스트</text>
  <text x="120.0" y="127.0" text-anchor="middle" font-size="11" font-family="JetBrains Mono, monospace" fill="#60a5fa">raw input</text>
  <rect x="210" y="75" width="140" height="80" rx="10" fill="#0f172a"/>
  <rect x="210" y="75" width="140" height="80" rx="10" fill="rgba(96,165,250,0.15)" stroke="#60a5fa" stroke-width="1.5"/>
  <text x="280.0" y="111.0" text-anchor="middle" font-size="14" font-weight="700" fill="#bfdbfe">토큰화</text>
  <text x="280.0" y="127.0" text-anchor="middle" font-size="11" font-family="JetBrains Mono, monospace" fill="#60a5fa">tokenize</text>
  <rect x="370" y="75" width="140" height="80" rx="10" fill="#0f172a"/>
  <rect x="370" y="75" width="140" height="80" rx="10" fill="rgba(251,191,36,0.15)" stroke="#fbbf24" stroke-width="1.5"/>
  <text x="440.0" y="111.0" text-anchor="middle" font-size="14" font-weight="700" fill="#fde68a">컨텍스트 체크</text>
  <text x="440.0" y="127.0" text-anchor="middle" font-size="11" font-family="JetBrains Mono, monospace" fill="#fbbf24">window fit?</text>
  <rect x="530" y="75" width="140" height="80" rx="10" fill="#0f172a"/>
  <rect x="530" y="75" width="140" height="80" rx="10" fill="rgba(167,139,250,0.15)" stroke="#a78bfa" stroke-width="1.5"/>
  <text x="600.0" y="111.0" text-anchor="middle" font-size="14" font-weight="700" fill="#ddd6fe">LLM</text>
  <text x="600.0" y="127.0" text-anchor="middle" font-size="11" font-family="JetBrains Mono, monospace" fill="#a78bfa">probability</text>
  <rect x="690" y="75" width="140" height="80" rx="10" fill="#0f172a"/>
  <rect x="690" y="75" width="140" height="80" rx="10" fill="rgba(167,139,250,0.15)" stroke="#a78bfa" stroke-width="1.5"/>
  <text x="760.0" y="111.0" text-anchor="middle" font-size="14" font-weight="700" fill="#ddd6fe">샘플링</text>
  <text x="760.0" y="127.0" text-anchor="middle" font-size="11" font-family="JetBrains Mono, monospace" fill="#a78bfa">temperature</text>
  <rect x="850" y="75" width="140" height="80" rx="10" fill="#0f172a"/>
  <rect x="850" y="75" width="140" height="80" rx="10" fill="rgba(52,211,153,0.15)" stroke="#34d399" stroke-width="1.5"/>
  <text x="920.0" y="111.0" text-anchor="middle" font-size="14" font-weight="700" fill="#a7f3d0">다음 토큰</text>
  <text x="920.0" y="127.0" text-anchor="middle" font-size="11" font-family="JetBrains Mono, monospace" fill="#34d399">append / loop</text>
  <rect x="1010" y="75" width="140" height="80" rx="10" fill="#0f172a"/>
  <rect x="1010" y="75" width="140" height="80" rx="10" fill="rgba(52,211,153,0.2)" stroke="#34d399" stroke-width="1.5"/>
  <text x="1080.0" y="111.0" text-anchor="middle" font-size="14" font-weight="700" fill="#a7f3d0">최종 응답</text>
  <text x="1080.0" y="127.0" text-anchor="middle" font-size="11" font-family="JetBrains Mono, monospace" fill="#34d399">assistant</text>
</svg>