<svg xmlns="http://www.w3.org/2000/svg" viewBox="0 0 900 240" font-family="Pretendard, -apple-system, BlinkMacSystemFont, sans-serif">
  <defs>
    <pattern id="grid" width="40" height="40" patternUnits="userSpaceOnUse">
      <path d="M 40 0 L 0 0 0 40" fill="none" stroke="#1e293b" stroke-width="0.5"/>
    </pattern>
    <marker id="arr" markerWidth="10" markerHeight="7" refX="9" refY="3.5" orient="auto"><polygon points="0,0 10,3.5 0,7" fill="#64748b"/></marker>
    <marker id="arr-input" markerWidth="10" markerHeight="7" refX="9" refY="3.5" orient="auto"><polygon points="0,0 10,3.5 0,7" fill="#60a5fa"/></marker>
    <marker id="arr-llm" markerWidth="10" markerHeight="7" refX="9" refY="3.5" orient="auto"><polygon points="0,0 10,3.5 0,7" fill="#fb923c"/></marker>
    <marker id="arr-model" markerWidth="10" markerHeight="7" refX="9" refY="3.5" orient="auto"><polygon points="0,0 10,3.5 0,7" fill="#a78bfa"/></marker>
    <marker id="arr-token" markerWidth="10" markerHeight="7" refX="9" refY="3.5" orient="auto"><polygon points="0,0 10,3.5 0,7" fill="#34d399"/></marker>
    <marker id="arr-output" markerWidth="10" markerHeight="7" refX="9" refY="3.5" orient="auto"><polygon points="0,0 10,3.5 0,7" fill="#34d399"/></marker>
    <marker id="arr-gate" markerWidth="10" markerHeight="7" refX="9" refY="3.5" orient="auto"><polygon points="0,0 10,3.5 0,7" fill="#fbbf24"/></marker>
    <marker id="arr-tool" markerWidth="10" markerHeight="7" refX="9" refY="3.5" orient="auto"><polygon points="0,0 10,3.5 0,7" fill="#22d3ee"/></marker>
    <marker id="arr-memory" markerWidth="10" markerHeight="7" refX="9" refY="3.5" orient="auto"><polygon points="0,0 10,3.5 0,7" fill="#f472b6"/></marker>
    <marker id="arr-error" markerWidth="10" markerHeight="7" refX="9" refY="3.5" orient="auto"><polygon points="0,0 10,3.5 0,7" fill="#f87171"/></marker>
  </defs>
  <rect width="900" height="240" fill="#020617"/>
  <rect width="900" height="240" fill="url(#grid)"/>
  <text x="450" y="36" text-anchor="middle" font-size="18" font-weight="700" fill="#f1f5f9">다음 토큰 한 번 생성하기</text>
  <path d="M 270,130 L 294,130" stroke="#64748b" stroke-width="1.8" fill="none" marker-end="url(#arr)"/>
  <path d="M 438,130 L 462,130" stroke="#64748b" stroke-width="1.8" fill="none" marker-end="url(#arr)"/>
  <path d="M 606,130 L 630,130" stroke="#64748b" stroke-width="1.8" fill="none" marker-end="url(#arr)"/>
  <rect x="128" y="90" width="140" height="105" rx="10" fill="#0f172a"/>
  <rect x="128" y="90" width="140" height="105" rx="10" fill="rgba(96,165,250,0.15)" stroke="#60a5fa" stroke-width="1.5"/>
  <text x="198.0" y="138.5" text-anchor="middle" font-size="14" font-weight="700" fill="#bfdbfe">입력</text>
  <text x="198.0" y="154.5" text-anchor="middle" font-size="11" font-family="JetBrains Mono, monospace" fill="#60a5fa">context</text>
  <text x="198.0" y="170.5" text-anchor="middle" font-size="10" fill="#60a5fa">'오늘 점심은'</text>
  <rect x="296" y="90" width="140" height="105" rx="10" fill="#0f172a"/>
  <rect x="296" y="90" width="140" height="105" rx="10" fill="rgba(167,139,250,0.15)" stroke="#a78bfa" stroke-width="1.5"/>
  <text x="366.0" y="138.5" text-anchor="middle" font-size="14" font-weight="700" fill="#ddd6fe">LLM</text>
  <text x="366.0" y="154.5" text-anchor="middle" font-size="11" font-family="JetBrains Mono, monospace" fill="#a78bfa">probability</text>
  <text x="366.0" y="170.5" text-anchor="middle" font-size="10" fill="#a78bfa">다음 토큰 확률</text>
  <rect x="464" y="90" width="140" height="105" rx="10" fill="#0f172a"/>
  <rect x="464" y="90" width="140" height="105" rx="10" fill="rgba(167,139,250,0.15)" stroke="#a78bfa" stroke-width="1.5"/>
  <text x="534.0" y="138.5" text-anchor="middle" font-size="14" font-weight="700" fill="#ddd6fe">샘플링</text>
  <text x="534.0" y="154.5" text-anchor="middle" font-size="11" font-family="JetBrains Mono, monospace" fill="#a78bfa">temperature</text>
  <text x="534.0" y="170.5" text-anchor="middle" font-size="10" fill="#a78bfa">확률에 따라 선택</text>
  <rect x="632" y="90" width="140" height="105" rx="10" fill="#0f172a"/>
  <rect x="632" y="90" width="140" height="105" rx="10" fill="rgba(52,211,153,0.2)" stroke="#34d399" stroke-width="1.5"/>
  <text x="702.0" y="138.5" text-anchor="middle" font-size="14" font-weight="700" fill="#a7f3d0">다음 토큰</text>
  <text x="702.0" y="154.5" text-anchor="middle" font-size="11" font-family="JetBrains Mono, monospace" fill="#34d399">output</text>
  <text x="702.0" y="170.5" text-anchor="middle" font-size="10" fill="#34d399">'김치찌개'</text>
</svg>