<svg xmlns="http://www.w3.org/2000/svg" viewBox="0 0 960 390" font-family="Pretendard, -apple-system, BlinkMacSystemFont, sans-serif">
  <defs>
    <pattern id="grid" width="40" height="40" patternUnits="userSpaceOnUse">
      <path d="M 40 0 L 0 0 0 40" fill="none" stroke="#1e293b" stroke-width="0.5"/>
    </pattern>
    <marker id="arr" markerWidth="10" markerHeight="7" refX="9" refY="3.5" orient="auto"><polygon points="0,0 10,3.5 0,7" fill="#64748b"/></marker>
    <marker id="arr-input" markerWidth="10" markerHeight="7" refX="9" refY="3.5" orient="auto"><polygon points="0,0 10,3.5 0,7" fill="#60a5fa"/></marker>
    <marker id="arr-llm" markerWidth="10" markerHeight="7" refX="9" refY="3.5" orient="auto"><polygon points="0,0 10,3.5 0,7" fill="#fb923c"/></marker>
    <marker id="arr-model" markerWidth="10" markerHeight="7" refX="9" refY="3.5" orient="auto"><polygon points="0,0 10,3.5 0,7" fill="#a78bfa"/></marker>
    <marker id="arr-token" markerWidth="10" markerHeight="7" refX="9" refY="3.5" orient="auto"><polygon points="0,0 10,3.5 0,7" fill="#34d399"/></marker>
    <marker id="arr-output" markerWidth="10" markerHeight="7" refX="9" refY="3.5" orient="auto"><polygon points="0,0 10,3.5 0,7" fill="#34d399"/></marker>
    <marker id="arr-gate" markerWidth="10" markerHeight="7" refX="9" refY="3.5" orient="auto"><polygon points="0,0 10,3.5 0,7" fill="#fbbf24"/></marker>
    <marker id="arr-tool" markerWidth="10" markerHeight="7" refX="9" refY="3.5" orient="auto"><polygon points="0,0 10,3.5 0,7" fill="#22d3ee"/></marker>
    <marker id="arr-memory" markerWidth="10" markerHeight="7" refX="9" refY="3.5" orient="auto"><polygon points="0,0 10,3.5 0,7" fill="#f472b6"/></marker>
    <marker id="arr-error" markerWidth="10" markerHeight="7" refX="9" refY="3.5" orient="auto"><polygon points="0,0 10,3.5 0,7" fill="#f87171"/></marker>
  </defs>
  <rect width="960" height="390" fill="#020617"/>
  <rect width="960" height="390" fill="url(#grid)"/>
  <text x="480" y="36" text-anchor="middle" font-size="18" font-weight="700" fill="#f1f5f9">두 가지 접근</text>
  <text x="480" y="58" text-anchor="middle" font-size="12" fill="#94a3b8">같은 입력, 다른 처리 방식</text>
  <path d="M 332,152 L 400,152" stroke="#64748b" stroke-width="1.8" fill="none" marker-end="url(#arr)"/>
  <path d="M 332,302 L 400,302" stroke="#64748b" stroke-width="1.8" fill="none" marker-end="url(#arr)"/>
  <path d="M 559,152 L 627,152" stroke="#64748b" stroke-width="1.8" fill="none" marker-end="url(#arr)"/>
  <path d="M 559,302 L 627,302" stroke="#64748b" stroke-width="1.8" fill="none" marker-end="url(#arr)"/>
  <rect x="175" y="110" width="155" height="85" rx="10" fill="#0f172a"/>
  <rect x="175" y="110" width="155" height="85" rx="10" fill="rgba(96,165,250,0.15)" stroke="#60a5fa" stroke-width="1.5"/>
  <text x="252.5" y="148.5" text-anchor="middle" font-size="14" font-weight="700" fill="#bfdbfe">사용자 메시지</text>
  <text x="252.5" y="164.5" text-anchor="middle" font-size="11" font-family="JetBrains Mono, monospace" fill="#60a5fa">input</text>
  <rect x="402" y="110" width="155" height="85" rx="10" fill="#0f172a"/>
  <rect x="402" y="110" width="155" height="85" rx="10" fill="rgba(251,191,36,0.15)" stroke="#fbbf24" stroke-width="1.5"/>
  <text x="479.5" y="148.5" text-anchor="middle" font-size="14" font-weight="700" fill="#fde68a">if-else 체인</text>
  <text x="479.5" y="164.5" text-anchor="middle" font-size="11" font-family="JetBrains Mono, monospace" fill="#fbbf24">deterministic</text>
  <rect x="629" y="110" width="155" height="85" rx="10" fill="#0f172a"/>
  <rect x="629" y="110" width="155" height="85" rx="10" fill="rgba(52,211,153,0.2)" stroke="#34d399" stroke-width="1.5"/>
  <text x="706.5" y="148.5" text-anchor="middle" font-size="14" font-weight="700" fill="#a7f3d0">결과 A</text>
  <text x="706.5" y="164.5" text-anchor="middle" font-size="11" font-family="JetBrains Mono, monospace" fill="#34d399">고정</text>
  <rect x="175" y="260" width="155" height="85" rx="10" fill="#0f172a"/>
  <rect x="175" y="260" width="155" height="85" rx="10" fill="rgba(96,165,250,0.15)" stroke="#60a5fa" stroke-width="1.5"/>
  <text x="252.5" y="298.5" text-anchor="middle" font-size="14" font-weight="700" fill="#bfdbfe">사용자 메시지</text>
  <text x="252.5" y="314.5" text-anchor="middle" font-size="11" font-family="JetBrains Mono, monospace" fill="#60a5fa">input</text>
  <rect x="402" y="260" width="155" height="85" rx="10" fill="#0f172a"/>
  <rect x="402" y="260" width="155" height="85" rx="10" fill="rgba(251,146,60,0.15)" stroke="#fb923c" stroke-width="1.5"/>
  <text x="479.5" y="298.5" text-anchor="middle" font-size="14" font-weight="700" fill="#fed7aa">LLM</text>
  <text x="479.5" y="314.5" text-anchor="middle" font-size="11" font-family="JetBrains Mono, monospace" fill="#fb923c">probabilistic</text>
  <rect x="629" y="260" width="155" height="85" rx="10" fill="#0f172a"/>
  <rect x="629" y="260" width="155" height="85" rx="10" fill="rgba(52,211,153,0.2)" stroke="#34d399" stroke-width="1.5"/>
  <text x="706.5" y="298.5" text-anchor="middle" font-size="14" font-weight="700" fill="#a7f3d0">결과 B</text>
  <text x="706.5" y="314.5" text-anchor="middle" font-size="11" font-family="JetBrains Mono, monospace" fill="#34d399">가변</text>
  <rect x="342.0" y="140" width="48" height="24" rx="6" fill="rgba(251,191,36,0.15)" stroke="#fbbf24" stroke-width="1.5"/>
  <text x="366" y="157" text-anchor="middle" font-size="12" font-weight="700" font-family="JetBrains Mono, monospace" fill="#fde68a">Rule</text>
  <rect x="338.5" y="290" width="55" height="24" rx="6" fill="rgba(251,146,60,0.15)" stroke="#fb923c" stroke-width="1.5"/>
  <text x="366" y="307" text-anchor="middle" font-size="12" font-weight="700" font-family="JetBrains Mono, monospace" fill="#fed7aa">Model</text>
</svg>