<svg xmlns="http://www.w3.org/2000/svg" viewBox="0 0 880 340" font-family="Pretendard, -apple-system, BlinkMacSystemFont, sans-serif">
  <defs>
    <pattern id="grid" width="40" height="40" patternUnits="userSpaceOnUse">
      <path d="M 40 0 L 0 0 0 40" fill="none" stroke="#f1f5f9" stroke-width="0.5"/>
    </pattern>
    <marker id="arr" markerWidth="10" markerHeight="7" refX="9" refY="3.5" orient="auto"><polygon points="0,0 10,3.5 0,7" fill="#6b7280"/></marker>
    <marker id="arr-input" markerWidth="10" markerHeight="7" refX="9" refY="3.5" orient="auto"><polygon points="0,0 10,3.5 0,7" fill="#2563eb"/></marker>
    <marker id="arr-llm" markerWidth="10" markerHeight="7" refX="9" refY="3.5" orient="auto"><polygon points="0,0 10,3.5 0,7" fill="#ea580c"/></marker>
    <marker id="arr-model" markerWidth="10" markerHeight="7" refX="9" refY="3.5" orient="auto"><polygon points="0,0 10,3.5 0,7" fill="#7c3aed"/></marker>
    <marker id="arr-token" markerWidth="10" markerHeight="7" refX="9" refY="3.5" orient="auto"><polygon points="0,0 10,3.5 0,7" fill="#059669"/></marker>
    <marker id="arr-output" markerWidth="10" markerHeight="7" refX="9" refY="3.5" orient="auto"><polygon points="0,0 10,3.5 0,7" fill="#059669"/></marker>
    <marker id="arr-gate" markerWidth="10" markerHeight="7" refX="9" refY="3.5" orient="auto"><polygon points="0,0 10,3.5 0,7" fill="#ca8a04"/></marker>
    <marker id="arr-tool" markerWidth="10" markerHeight="7" refX="9" refY="3.5" orient="auto"><polygon points="0,0 10,3.5 0,7" fill="#0891b2"/></marker>
    <marker id="arr-memory" markerWidth="10" markerHeight="7" refX="9" refY="3.5" orient="auto"><polygon points="0,0 10,3.5 0,7" fill="#db2777"/></marker>
    <marker id="arr-error" markerWidth="10" markerHeight="7" refX="9" refY="3.5" orient="auto"><polygon points="0,0 10,3.5 0,7" fill="#dc2626"/></marker>
  </defs>
  <rect width="880" height="340" fill="#ffffff"/>
  <rect width="880" height="340" fill="url(#grid)"/>
  <text x="440" y="36" text-anchor="middle" font-size="18" font-weight="700" fill="#0f172a">두 가지 접근</text>
  <text x="440" y="58" text-anchor="middle" font-size="12" fill="#64748b">같은 입력, 다른 처리 방식</text>
  <path d="M 344,140 L 368,140" stroke="#6b7280" stroke-width="1.8" fill="none" marker-end="url(#arr)"/>
  <rect x="334.0" y="113.0" width="44" height="18" rx="4" fill="#ffffff" stroke="#e5e7eb" stroke-width="0.8"/>
  <text x="356.0" y="126.0" text-anchor="middle" font-size="11" font-family="JetBrains Mono, monospace" fill="#475569">Rule</text>
  <path d="M 512,140 L 536,140" stroke="#6b7280" stroke-width="1.8" fill="none" marker-end="url(#arr)"/>
  <path d="M 344,270 L 368,270" stroke="#6b7280" stroke-width="1.8" fill="none" marker-end="url(#arr)"/>
  <rect x="330.5" y="243.0" width="51" height="18" rx="4" fill="#ffffff" stroke="#e5e7eb" stroke-width="0.8"/>
  <text x="356.0" y="256.0" text-anchor="middle" font-size="11" font-family="JetBrains Mono, monospace" fill="#475569">Model</text>
  <path d="M 512,270 L 536,270" stroke="#6b7280" stroke-width="1.8" fill="none" marker-end="url(#arr)"/>
  <rect x="202" y="100" width="140" height="80" rx="10" fill="#ffffff"/>
  <rect x="202" y="100" width="140" height="80" rx="10" fill="#e3f2fd" stroke="#2563eb" stroke-width="1.5"/>
  <text x="272.0" y="136.0" text-anchor="middle" font-size="14" font-weight="700" fill="#0d47a1">사용자 메시지</text>
  <text x="272.0" y="152.0" text-anchor="middle" font-size="11" font-family="JetBrains Mono, monospace" fill="#1e40af">input</text>
  <rect x="370" y="100" width="140" height="80" rx="10" fill="#ffffff"/>
  <rect x="370" y="100" width="140" height="80" rx="10" fill="#fef9c3" stroke="#ca8a04" stroke-width="1.5"/>
  <text x="440.0" y="136.0" text-anchor="middle" font-size="14" font-weight="700" fill="#713f12">if-else 체인</text>
  <text x="440.0" y="152.0" text-anchor="middle" font-size="11" font-family="JetBrains Mono, monospace" fill="#a16207">deterministic</text>
  <rect x="538" y="100" width="140" height="80" rx="10" fill="#ffffff"/>
  <rect x="538" y="100" width="140" height="80" rx="10" fill="#d1fae5" stroke="#059669" stroke-width="1.5"/>
  <text x="608.0" y="136.0" text-anchor="middle" font-size="14" font-weight="700" fill="#064e3b">결과 A</text>
  <text x="608.0" y="152.0" text-anchor="middle" font-size="11" font-family="JetBrains Mono, monospace" fill="#047857">고정</text>
  <rect x="202" y="230" width="140" height="80" rx="10" fill="#ffffff"/>
  <rect x="202" y="230" width="140" height="80" rx="10" fill="#e3f2fd" stroke="#2563eb" stroke-width="1.5"/>
  <text x="272.0" y="266.0" text-anchor="middle" font-size="14" font-weight="700" fill="#0d47a1">사용자 메시지</text>
  <text x="272.0" y="282.0" text-anchor="middle" font-size="11" font-family="JetBrains Mono, monospace" fill="#1e40af">input</text>
  <rect x="370" y="230" width="140" height="80" rx="10" fill="#ffffff"/>
  <rect x="370" y="230" width="140" height="80" rx="10" fill="#fef3e0" stroke="#ea580c" stroke-width="1.5"/>
  <text x="440.0" y="266.0" text-anchor="middle" font-size="14" font-weight="700" fill="#9a3412">LLM</text>
  <text x="440.0" y="282.0" text-anchor="middle" font-size="11" font-family="JetBrains Mono, monospace" fill="#c2410c">probabilistic</text>
  <rect x="538" y="230" width="140" height="80" rx="10" fill="#ffffff"/>
  <rect x="538" y="230" width="140" height="80" rx="10" fill="#d1fae5" stroke="#059669" stroke-width="1.5"/>
  <text x="608.0" y="266.0" text-anchor="middle" font-size="14" font-weight="700" fill="#064e3b">결과 B</text>
  <text x="608.0" y="282.0" text-anchor="middle" font-size="11" font-family="JetBrains Mono, monospace" fill="#047857">가변</text>
</svg>