<svg xmlns="http://www.w3.org/2000/svg" viewBox="0 0 880 340" font-family="Pretendard, -apple-system, BlinkMacSystemFont, sans-serif">
  <defs>
    <pattern id="grid" width="40" height="40" patternUnits="userSpaceOnUse">
      <path d="M 40 0 L 0 0 0 40" fill="none" stroke="#1e293b" stroke-width="0.5"/>
    </pattern>
    <marker id="arr" markerWidth="10" markerHeight="7" refX="9" refY="3.5" orient="auto"><polygon points="0,0 10,3.5 0,7" fill="#64748b"/></marker>
    <marker id="arr-input" markerWidth="10" markerHeight="7" refX="9" refY="3.5" orient="auto"><polygon points="0,0 10,3.5 0,7" fill="#60a5fa"/></marker>
    <marker id="arr-llm" markerWidth="10" markerHeight="7" refX="9" refY="3.5" orient="auto"><polygon points="0,0 10,3.5 0,7" fill="#fb923c"/></marker>
    <marker id="arr-model" markerWidth="10" markerHeight="7" refX="9" refY="3.5" orient="auto"><polygon points="0,0 10,3.5 0,7" fill="#a78bfa"/></marker>
    <marker id="arr-token" markerWidth="10" markerHeight="7" refX="9" refY="3.5" orient="auto"><polygon points="0,0 10,3.5 0,7" fill="#34d399"/></marker>
    <marker id="arr-output" markerWidth="10" markerHeight="7" refX="9" refY="3.5" orient="auto"><polygon points="0,0 10,3.5 0,7" fill="#34d399"/></marker>
    <marker id="arr-gate" markerWidth="10" markerHeight="7" refX="9" refY="3.5" orient="auto"><polygon points="0,0 10,3.5 0,7" fill="#fbbf24"/></marker>
    <marker id="arr-tool" markerWidth="10" markerHeight="7" refX="9" refY="3.5" orient="auto"><polygon points="0,0 10,3.5 0,7" fill="#22d3ee"/></marker>
    <marker id="arr-memory" markerWidth="10" markerHeight="7" refX="9" refY="3.5" orient="auto"><polygon points="0,0 10,3.5 0,7" fill="#f472b6"/></marker>
    <marker id="arr-error" markerWidth="10" markerHeight="7" refX="9" refY="3.5" orient="auto"><polygon points="0,0 10,3.5 0,7" fill="#f87171"/></marker>
  </defs>
  <rect width="880" height="340" fill="#020617"/>
  <rect width="880" height="340" fill="url(#grid)"/>
  <text x="440" y="36" text-anchor="middle" font-size="18" font-weight="700" fill="#f1f5f9">두 가지 접근</text>
  <text x="440" y="58" text-anchor="middle" font-size="12" fill="#94a3b8">같은 입력, 다른 처리 방식</text>
  <path d="M 344,140 L 368,140" stroke="#64748b" stroke-width="1.8" fill="none" marker-end="url(#arr)"/>
  <rect x="334.0" y="113.0" width="44" height="18" rx="4" fill="#0f172a" stroke="#334155" stroke-width="0.8"/>
  <text x="356.0" y="126.0" text-anchor="middle" font-size="11" font-family="JetBrains Mono, monospace" fill="#94a3b8">Rule</text>
  <path d="M 512,140 L 536,140" stroke="#64748b" stroke-width="1.8" fill="none" marker-end="url(#arr)"/>
  <path d="M 344,270 L 368,270" stroke="#64748b" stroke-width="1.8" fill="none" marker-end="url(#arr)"/>
  <rect x="330.5" y="243.0" width="51" height="18" rx="4" fill="#0f172a" stroke="#334155" stroke-width="0.8"/>
  <text x="356.0" y="256.0" text-anchor="middle" font-size="11" font-family="JetBrains Mono, monospace" fill="#94a3b8">Model</text>
  <path d="M 512,270 L 536,270" stroke="#64748b" stroke-width="1.8" fill="none" marker-end="url(#arr)"/>
  <rect x="202" y="100" width="140" height="80" rx="10" fill="#0f172a"/>
  <rect x="202" y="100" width="140" height="80" rx="10" fill="rgba(96,165,250,0.15)" stroke="#60a5fa" stroke-width="1.5"/>
  <text x="272.0" y="136.0" text-anchor="middle" font-size="14" font-weight="700" fill="#bfdbfe">사용자 메시지</text>
  <text x="272.0" y="152.0" text-anchor="middle" font-size="11" font-family="JetBrains Mono, monospace" fill="#60a5fa">input</text>
  <rect x="370" y="100" width="140" height="80" rx="10" fill="#0f172a"/>
  <rect x="370" y="100" width="140" height="80" rx="10" fill="rgba(251,191,36,0.15)" stroke="#fbbf24" stroke-width="1.5"/>
  <text x="440.0" y="136.0" text-anchor="middle" font-size="14" font-weight="700" fill="#fde68a">if-else 체인</text>
  <text x="440.0" y="152.0" text-anchor="middle" font-size="11" font-family="JetBrains Mono, monospace" fill="#fbbf24">deterministic</text>
  <rect x="538" y="100" width="140" height="80" rx="10" fill="#0f172a"/>
  <rect x="538" y="100" width="140" height="80" rx="10" fill="rgba(52,211,153,0.2)" stroke="#34d399" stroke-width="1.5"/>
  <text x="608.0" y="136.0" text-anchor="middle" font-size="14" font-weight="700" fill="#a7f3d0">결과 A</text>
  <text x="608.0" y="152.0" text-anchor="middle" font-size="11" font-family="JetBrains Mono, monospace" fill="#34d399">고정</text>
  <rect x="202" y="230" width="140" height="80" rx="10" fill="#0f172a"/>
  <rect x="202" y="230" width="140" height="80" rx="10" fill="rgba(96,165,250,0.15)" stroke="#60a5fa" stroke-width="1.5"/>
  <text x="272.0" y="266.0" text-anchor="middle" font-size="14" font-weight="700" fill="#bfdbfe">사용자 메시지</text>
  <text x="272.0" y="282.0" text-anchor="middle" font-size="11" font-family="JetBrains Mono, monospace" fill="#60a5fa">input</text>
  <rect x="370" y="230" width="140" height="80" rx="10" fill="#0f172a"/>
  <rect x="370" y="230" width="140" height="80" rx="10" fill="rgba(251,146,60,0.15)" stroke="#fb923c" stroke-width="1.5"/>
  <text x="440.0" y="266.0" text-anchor="middle" font-size="14" font-weight="700" fill="#fed7aa">LLM</text>
  <text x="440.0" y="282.0" text-anchor="middle" font-size="11" font-family="JetBrains Mono, monospace" fill="#fb923c">probabilistic</text>
  <rect x="538" y="230" width="140" height="80" rx="10" fill="#0f172a"/>
  <rect x="538" y="230" width="140" height="80" rx="10" fill="rgba(52,211,153,0.2)" stroke="#34d399" stroke-width="1.5"/>
  <text x="608.0" y="266.0" text-anchor="middle" font-size="14" font-weight="700" fill="#a7f3d0">결과 B</text>
  <text x="608.0" y="282.0" text-anchor="middle" font-size="11" font-family="JetBrains Mono, monospace" fill="#34d399">가변</text>
</svg>