<svg xmlns="http://www.w3.org/2000/svg" viewBox="0 0 960 220" font-family="Pretendard, -apple-system, BlinkMacSystemFont, sans-serif">
  <defs>
    <pattern id="grid" width="40" height="40" patternUnits="userSpaceOnUse">
      <path d="M 40 0 L 0 0 0 40" fill="none" stroke="#1e293b" stroke-width="0.5"/>
    </pattern>
    <marker id="arr" markerWidth="10" markerHeight="7" refX="9" refY="3.5" orient="auto"><polygon points="0,0 10,3.5 0,7" fill="#64748b"/></marker>
    <marker id="arr-input" markerWidth="10" markerHeight="7" refX="9" refY="3.5" orient="auto"><polygon points="0,0 10,3.5 0,7" fill="#60a5fa"/></marker>
    <marker id="arr-llm" markerWidth="10" markerHeight="7" refX="9" refY="3.5" orient="auto"><polygon points="0,0 10,3.5 0,7" fill="#fb923c"/></marker>
    <marker id="arr-model" markerWidth="10" markerHeight="7" refX="9" refY="3.5" orient="auto"><polygon points="0,0 10,3.5 0,7" fill="#a78bfa"/></marker>
    <marker id="arr-token" markerWidth="10" markerHeight="7" refX="9" refY="3.5" orient="auto"><polygon points="0,0 10,3.5 0,7" fill="#34d399"/></marker>
    <marker id="arr-output" markerWidth="10" markerHeight="7" refX="9" refY="3.5" orient="auto"><polygon points="0,0 10,3.5 0,7" fill="#34d399"/></marker>
    <marker id="arr-gate" markerWidth="10" markerHeight="7" refX="9" refY="3.5" orient="auto"><polygon points="0,0 10,3.5 0,7" fill="#fbbf24"/></marker>
    <marker id="arr-tool" markerWidth="10" markerHeight="7" refX="9" refY="3.5" orient="auto"><polygon points="0,0 10,3.5 0,7" fill="#22d3ee"/></marker>
    <marker id="arr-memory" markerWidth="10" markerHeight="7" refX="9" refY="3.5" orient="auto"><polygon points="0,0 10,3.5 0,7" fill="#f472b6"/></marker>
    <marker id="arr-error" markerWidth="10" markerHeight="7" refX="9" refY="3.5" orient="auto"><polygon points="0,0 10,3.5 0,7" fill="#f87171"/></marker>
  </defs>
  <rect width="960" height="220" fill="#020617"/>
  <rect width="960" height="220" fill="url(#grid)"/>
  <text x="480" y="36" text-anchor="middle" font-size="18" font-weight="700" fill="#f1f5f9">기술 선택의 계단</text>
  <text x="480" y="58" text-anchor="middle" font-size="12" fill="#94a3b8">왼쪽 → 오른쪽으로 갈수록 비용·복잡도 ↑</text>
  <path d="M 243,140 L 261,140" stroke="#64748b" stroke-width="1.8" fill="none" marker-end="url(#arr)"/>
  <rect x="237.0" y="113.0" width="30" height="18" rx="4" fill="#0f172a" stroke="#334155" stroke-width="0.8"/>
  <text x="252.0" y="126.0" text-anchor="middle" font-size="11" font-family="JetBrains Mono, monospace" fill="#94a3b8">부족</text>
  <path d="M 395,140 L 413,140" stroke="#64748b" stroke-width="1.8" fill="none" marker-end="url(#arr)"/>
  <rect x="389.0" y="113.0" width="30" height="18" rx="4" fill="#0f172a" stroke="#334155" stroke-width="0.8"/>
  <text x="404.0" y="126.0" text-anchor="middle" font-size="11" font-family="JetBrains Mono, monospace" fill="#94a3b8">부족</text>
  <path d="M 547,140 L 565,140" stroke="#64748b" stroke-width="1.8" fill="none" marker-end="url(#arr)"/>
  <rect x="541.0" y="113.0" width="30" height="18" rx="4" fill="#0f172a" stroke="#334155" stroke-width="0.8"/>
  <text x="556.0" y="126.0" text-anchor="middle" font-size="11" font-family="JetBrains Mono, monospace" fill="#94a3b8">부족</text>
  <path d="M 699,140 L 717,140" stroke="#64748b" stroke-width="1.8" fill="none" marker-end="url(#arr)"/>
  <rect x="693.0" y="113.0" width="30" height="18" rx="4" fill="#0f172a" stroke="#334155" stroke-width="0.8"/>
  <text x="708.0" y="126.0" text-anchor="middle" font-size="11" font-family="JetBrains Mono, monospace" fill="#94a3b8">부족</text>
  <rect x="111" y="100" width="130" height="80" rx="10" fill="#0f172a"/>
  <rect x="111" y="100" width="130" height="80" rx="10" fill="rgba(96,165,250,0.15)" stroke="#60a5fa" stroke-width="1.5"/>
  <text x="176.0" y="136.0" text-anchor="middle" font-size="14" font-weight="700" fill="#bfdbfe">코드/규칙</text>
  <text x="176.0" y="152.0" text-anchor="middle" font-size="11" font-family="JetBrains Mono, monospace" fill="#60a5fa">Part 1</text>
  <rect x="263" y="100" width="130" height="80" rx="10" fill="#0f172a"/>
  <rect x="263" y="100" width="130" height="80" rx="10" fill="rgba(251,146,60,0.15)" stroke="#fb923c" stroke-width="1.5"/>
  <text x="328.0" y="136.0" text-anchor="middle" font-size="14" font-weight="700" fill="#fed7aa">Prompt</text>
  <text x="328.0" y="152.0" text-anchor="middle" font-size="11" font-family="JetBrains Mono, monospace" fill="#fb923c">Part 2</text>
  <rect x="415" y="100" width="130" height="80" rx="10" fill="#0f172a"/>
  <rect x="415" y="100" width="130" height="80" rx="10" fill="rgba(34,211,238,0.15)" stroke="#22d3ee" stroke-width="1.5"/>
  <text x="480.0" y="136.0" text-anchor="middle" font-size="14" font-weight="700" fill="#a5f3fc">RAG</text>
  <text x="480.0" y="152.0" text-anchor="middle" font-size="11" font-family="JetBrains Mono, monospace" fill="#22d3ee">Part 3</text>
  <rect x="567" y="100" width="130" height="80" rx="10" fill="#0f172a"/>
  <rect x="567" y="100" width="130" height="80" rx="10" fill="rgba(244,114,182,0.15)" stroke="#f472b6" stroke-width="1.5"/>
  <text x="632.0" y="136.0" text-anchor="middle" font-size="14" font-weight="700" fill="#fbcfe8">Agent</text>
  <text x="632.0" y="152.0" text-anchor="middle" font-size="11" font-family="JetBrains Mono, monospace" fill="#f472b6">Part 5</text>
  <rect x="719" y="100" width="130" height="80" rx="10" fill="#0f172a"/>
  <rect x="719" y="100" width="130" height="80" rx="10" fill="rgba(167,139,250,0.15)" stroke="#a78bfa" stroke-width="1.5"/>
  <text x="784.0" y="136.0" text-anchor="middle" font-size="14" font-weight="700" fill="#ddd6fe">Fine-tune</text>
  <text x="784.0" y="152.0" text-anchor="middle" font-size="11" font-family="JetBrains Mono, monospace" fill="#a78bfa">Part 7</text>
</svg>