<svg xmlns="http://www.w3.org/2000/svg" viewBox="0 0 960 220" font-family="Pretendard, -apple-system, BlinkMacSystemFont, sans-serif">
  <defs>
    <pattern id="grid" width="40" height="40" patternUnits="userSpaceOnUse">
      <path d="M 40 0 L 0 0 0 40" fill="none" stroke="#1e293b" stroke-width="0.5"/>
    </pattern>
    <marker id="arr" markerWidth="10" markerHeight="7" refX="9" refY="3.5" orient="auto"><polygon points="0,0 10,3.5 0,7" fill="#64748b"/></marker>
    <marker id="arr-input" markerWidth="10" markerHeight="7" refX="9" refY="3.5" orient="auto"><polygon points="0,0 10,3.5 0,7" fill="#60a5fa"/></marker>
    <marker id="arr-llm" markerWidth="10" markerHeight="7" refX="9" refY="3.5" orient="auto"><polygon points="0,0 10,3.5 0,7" fill="#fb923c"/></marker>
    <marker id="arr-model" markerWidth="10" markerHeight="7" refX="9" refY="3.5" orient="auto"><polygon points="0,0 10,3.5 0,7" fill="#a78bfa"/></marker>
    <marker id="arr-token" markerWidth="10" markerHeight="7" refX="9" refY="3.5" orient="auto"><polygon points="0,0 10,3.5 0,7" fill="#34d399"/></marker>
    <marker id="arr-output" markerWidth="10" markerHeight="7" refX="9" refY="3.5" orient="auto"><polygon points="0,0 10,3.5 0,7" fill="#34d399"/></marker>
    <marker id="arr-gate" markerWidth="10" markerHeight="7" refX="9" refY="3.5" orient="auto"><polygon points="0,0 10,3.5 0,7" fill="#fbbf24"/></marker>
    <marker id="arr-tool" markerWidth="10" markerHeight="7" refX="9" refY="3.5" orient="auto"><polygon points="0,0 10,3.5 0,7" fill="#22d3ee"/></marker>
    <marker id="arr-memory" markerWidth="10" markerHeight="7" refX="9" refY="3.5" orient="auto"><polygon points="0,0 10,3.5 0,7" fill="#f472b6"/></marker>
    <marker id="arr-error" markerWidth="10" markerHeight="7" refX="9" refY="3.5" orient="auto"><polygon points="0,0 10,3.5 0,7" fill="#f87171"/></marker>
  </defs>
  <rect width="960" height="220" fill="#020617"/>
  <rect width="960" height="220" fill="url(#grid)"/>
  <text x="480" y="36" text-anchor="middle" font-size="18" font-weight="700" fill="#f1f5f9">각 블록의 기술 라벨</text>
  <text x="480" y="58" text-anchor="middle" font-size="12" fill="#94a3b8">CODE · MODEL · RAG · EXT</text>
  <path d="M 172,135 L 188,135" stroke="#64748b" stroke-width="1.8" fill="none" marker-end="url(#arr)"/>
  <path d="M 322,135 L 338,135" stroke="#64748b" stroke-width="1.8" fill="none" marker-end="url(#arr)"/>
  <path d="M 472,135 L 488,135" stroke="#64748b" stroke-width="1.8" fill="none" marker-end="url(#arr)"/>
  <path d="M 622,135 L 638,135" stroke="#64748b" stroke-width="1.8" fill="none" marker-end="url(#arr)"/>
  <path d="M 772,135 L 788,135" stroke="#64748b" stroke-width="1.8" fill="none" marker-end="url(#arr)"/>
  <rect x="40" y="95" width="130" height="80" rx="10" fill="#0f172a"/>
  <rect x="40" y="95" width="130" height="80" rx="10" fill="rgba(96,165,250,0.15)" stroke="#60a5fa" stroke-width="1.5"/>
  <text x="105.0" y="131.0" text-anchor="middle" font-size="14" font-weight="700" fill="#bfdbfe">입력</text>
  <text x="105.0" y="147.0" text-anchor="middle" font-size="11" font-family="JetBrains Mono, monospace" fill="#60a5fa">CODE</text>
  <rect x="190" y="95" width="130" height="80" rx="10" fill="#0f172a"/>
  <rect x="190" y="95" width="130" height="80" rx="10" fill="rgba(251,146,60,0.15)" stroke="#fb923c" stroke-width="1.5"/>
  <text x="255.0" y="131.0" text-anchor="middle" font-size="14" font-weight="700" fill="#fed7aa">이해</text>
  <text x="255.0" y="147.0" text-anchor="middle" font-size="11" font-family="JetBrains Mono, monospace" fill="#fb923c">MODEL</text>
  <rect x="340" y="95" width="130" height="80" rx="10" fill="#0f172a"/>
  <rect x="340" y="95" width="130" height="80" rx="10" fill="rgba(34,211,238,0.15)" stroke="#22d3ee" stroke-width="1.5"/>
  <text x="405.0" y="131.0" text-anchor="middle" font-size="14" font-weight="700" fill="#a5f3fc">검색</text>
  <text x="405.0" y="147.0" text-anchor="middle" font-size="11" font-family="JetBrains Mono, monospace" fill="#22d3ee">RAG + EXT</text>
  <rect x="490" y="95" width="130" height="80" rx="10" fill="#0f172a"/>
  <rect x="490" y="95" width="130" height="80" rx="10" fill="rgba(251,146,60,0.15)" stroke="#fb923c" stroke-width="1.5"/>
  <text x="555.0" y="131.0" text-anchor="middle" font-size="14" font-weight="700" fill="#fed7aa">생성</text>
  <text x="555.0" y="147.0" text-anchor="middle" font-size="11" font-family="JetBrains Mono, monospace" fill="#fb923c">MODEL</text>
  <rect x="640" y="95" width="130" height="80" rx="10" fill="#0f172a"/>
  <rect x="640" y="95" width="130" height="80" rx="10" fill="rgba(251,191,36,0.15)" stroke="#fbbf24" stroke-width="1.5"/>
  <text x="705.0" y="131.0" text-anchor="middle" font-size="14" font-weight="700" fill="#fde68a">검증</text>
  <text x="705.0" y="147.0" text-anchor="middle" font-size="11" font-family="JetBrains Mono, monospace" fill="#fbbf24">CODE + MODEL</text>
  <rect x="790" y="95" width="130" height="80" rx="10" fill="#0f172a"/>
  <rect x="790" y="95" width="130" height="80" rx="10" fill="rgba(244,114,182,0.15)" stroke="#f472b6" stroke-width="1.5"/>
  <text x="855.0" y="131.0" text-anchor="middle" font-size="14" font-weight="700" fill="#fbcfe8">저장</text>
  <text x="855.0" y="147.0" text-anchor="middle" font-size="11" font-family="JetBrains Mono, monospace" fill="#f472b6">EXT (DB)</text>
</svg>